<svg id="Слой_1" data-name="Слой 1" xmlns="http://www.w3.org/2000/svg" viewBox="0 0 271.55 243.2"><defs><style>.cls-1{fill:#1d1d1b;}</style></defs><title>andis</title><polygon class="cls-1" points="77.31 108.08 61.7 135.1 77.31 162.12 108.5 162.12 139.7 108.08 77.31 108.08 77.31 108.08"/><polygon class="cls-1" points="139.7 0 108.5 54.04 170.9 162.12 202.1 162.12 217.7 135.1 139.7 0 139.7 0"/><polygon class="cls-1" points="70.6 199.7 86.56 199.7 108.59 223.72 108.81 223.72 108.81 199.7 123.45 199.7 123.45 242.05 108.01 242.05 85.46 217.43 85.24 217.43 85.24 242.05 70.6 242.05 70.6 199.7 70.6 199.7"/><path class="cls-1" d="M275.1,359.92c7.47,0,11.93-3.08,11.93-10.65s-4.46-10.7-11.93-10.7H264.56v21.35ZM249.18,328.1h27.6c16,0,25.77,7.56,25.77,21.17s-9.73,21.18-25.77,21.18h-27.6V328.1Z" transform="translate(-114.23 -128.4)"/><polygon class="cls-1" points="196.42 199.7 211.87 199.7 211.87 242.05 196.42 242.05 196.42 199.7 196.42 199.7"/><path class="cls-1" d="M337.89,367.67V356.05H338a64,64,0,0,0,24.16,5.33c5.49,0,8.27-1.09,8.27-3.21s-1.83-2.66-12.81-4.12c-12-1.57-20-4.53-20-13.06,0-7.93,8.42-14,24.89-14a60.57,60.57,0,0,1,19.84,3.39v11.49l-.07.06a52.43,52.43,0,0,0-20.87-4.71c-5.85,0-8.19,1.14-8.19,3.08,0,2.48,3.58,2.72,12.59,4,12,1.7,20,4.48,20,13.44,0,6.95-6.29,13.91-24.38,13.91a72.43,72.43,0,0,1-23.5-3.93Z" transform="translate(-114.23 -128.4)"/><path class="cls-1" d="M140.59,352.18l6-10.39,6,10.39Zm22.54,18.27h15.81L154.49,328.1H138.68l-24.45,42.35H130l5.06-8.77h23l5.07,8.77Z" transform="translate(-114.23 -128.4)"/></svg>