<svg id="Слой_1" data-name="Слой 1" xmlns="http://www.w3.org/2000/svg" viewBox="0 0 424.9 123.31"><title>beautyimage</title><path d="M79.7,114.81c3.82.08,7.67,0,11.47.31a7.46,7.46,0,0,1,6.91,5.44c1.07,3.6.56,7-2.16,9.76a16.27,16.27,0,0,1-3,2,16.93,16.93,0,0,1,3.52,1.75c3.42,2.75,4.43,6.41,3.47,10.62a8.44,8.44,0,0,1-7.66,6.89c-4.14.48-8.36.26-12.54.34Zm3.4,34.86A72,72,0,0,0,91,149a6.48,6.48,0,0,0,5.53-5.94c.41-3.87-1-6.84-4-8.34s-6.21-.88-9.37-1Zm0-18.42c3.59.36,6.51,0,8.54-1.1,2.59-1.36,3.8-4,3.41-7.42a5.54,5.54,0,0,0-4.45-5.16,68.24,68.24,0,0,0-7.5-.52Z" transform="translate(-79.7 -29.34)"/><path d="M455.05,152.65c-.46-.12-.91-.24-1.37-.34a12,12,0,0,1-8.66-7.23,25,25,0,0,1-2.09-8.67c-.36-4.8-.26-9.57,1.56-14.14A13.07,13.07,0,0,1,463.71,116a10.59,10.59,0,0,1,4.94,8.75h-3.91c-.14-.85-.22-1.72-.43-2.56-1-3.73-4.4-6-8.52-5.63a8.35,8.35,0,0,0-7,4.55,20.52,20.52,0,0,0-2.3,8.84,30.9,30.9,0,0,0,1.39,12.63c1.22,3.45,3.17,6.32,7,7.25a10.38,10.38,0,0,0,9.08-1.78,1.82,1.82,0,0,0,.67-1.26c.05-4.14,0-8.29,0-12.44a5.79,5.79,0,0,0-.09-.59h-9.14v-2.34H468v1.09c0,5.15,0,10.3,0,15.44a2.07,2.07,0,0,1-1,1.88,15.55,15.55,0,0,1-6.89,2.55c-.34.06-.68.17-1,.25Z" transform="translate(-79.7 -29.34)"/><path d="M202.73,152.65c-.41-.11-.83-.23-1.25-.32-4.64-1-7.62-4.6-8.09-9.77-.14-1.47-.21-2.95-.21-4.42,0-7.3,0-14.61,0-21.91v-1.39h3.32v1.36c0,7.39,0,14.77,0,22.15a28.62,28.62,0,0,0,.5,5.47c.86,4.26,3.64,6.44,7.86,6.38s6.82-2.23,7.64-6.49a30.07,30.07,0,0,0,.48-5.35c.05-7.39,0-14.77,0-22.15v-1.38h3.31V116c0,7.7.08,15.41-.05,23.11a23.37,23.37,0,0,1-1.11,6.79c-1.23,3.72-4.08,5.77-7.93,6.47a9.36,9.36,0,0,0-.91.24Z" transform="translate(-79.7 -29.34)"/><path d="M292.38,68.35c-1.55,3.07-2.84,6.37-4.74,9.27a45,45,0,0,1-18.16,15.74,12.32,12.32,0,0,1-6.35,1.42A1.68,1.68,0,0,1,261.31,93c-.44-8.15,1.48-15.44,7.73-21.15,1.55-1.41,3.19-2.73,4.85-4.14-1.31-.23-2.61-.36-3.85-.7-6.25-1.68-9.72-6.1-11.62-12a28.45,28.45,0,0,1-1.13-9.69,19.88,19.88,0,0,0-4.4-12.63,16.11,16.11,0,0,1-1.2-2.34,9.92,9.92,0,0,1,2.8-1,36.48,36.48,0,0,1,17,3.29c9.12,4.17,16.06,10.48,19.6,20.08.38,1,.66,2,1,3.17.14-.16.27-.25.3-.36,3-10.95,10.25-18.14,20.31-22.82a37.53,37.53,0,0,1,16.51-3.42,11.89,11.89,0,0,1,2.14.24c1.48.3,1.77,1.09.88,2.28-.24.32-.53.6-.76.93a20.59,20.59,0,0,0-4.38,13.46,22.85,22.85,0,0,1-4.47,15.3,15.36,15.36,0,0,1-11.4,6l-.59.07s-.06,0-.2.13c.45.36.86.7,1.29,1,4,3,7.45,6.53,9.44,11.23A29.65,29.65,0,0,1,323.07,93c-.05,1.36-.48,1.7-1.86,1.82a11,11,0,0,1-6-1.29c-10.56-5.43-18.84-13-22.61-24.61A5.43,5.43,0,0,0,292.38,68.35Zm-12.92-2.3-1.56,1.22A17.4,17.4,0,0,0,270.68,81c-.17,4,.85,5,4.51,3.35,7.69-3.36,13.51-8.69,16.51-16.72.14-.38.27-.75.5-1.37.17.46.22.61.27.75,2.67,8,8.32,13.17,15.57,16.87a11.48,11.48,0,0,0,3.9,1c1.36.15,1.71-.27,1.77-1.65.25-5.9-1.45-11-6.08-14.94-.84-.71-1.7-1.4-2.67-2.2l.7-.11.71-.11A10.77,10.77,0,0,0,314.52,60a16.49,16.49,0,0,0,2-8.76,14.42,14.42,0,0,1,3.19-9.67,7.59,7.59,0,0,0,.7-1.43c-.56-.25-1.12-.74-1.66-.71a37.9,37.9,0,0,0-7.71.76c-8.57,2.31-15,7.21-18.2,15.81-.18.49-.34,1-.56,1.64a3.47,3.47,0,0,1-.26-.45c-2.2-7.5-7.27-12.4-14.21-15.56a24.72,24.72,0,0,0-12.13-2.21,2.61,2.61,0,0,0-1.53.72c-.13.14.23.93.52,1.3a15,15,0,0,1,3.31,10.1C267.64,59.54,271.86,64.87,279.46,66.05Z" transform="translate(-79.7 -29.34)"/><path d="M368.63,147.77l4.14-12.83c2.06-6.37,4.13-12.74,6.14-19.12a1.27,1.27,0,0,1,1.51-1.09c1.3.07,2.61,0,4,0v37.18H381.2V118l-.28-.09c-.14.36-.3.72-.41,1.09-3.37,10.55-6.77,21.09-10.05,31.67-.41,1.32-1.12,1.31-2.17,1.36a1.7,1.7,0,0,1-2-1.43c-3.28-10.49-6.65-21-10-31.44a2,2,0,0,0-.62-1v33.76H353V114.76c1.46,0,2.93-.06,4.38,0,.28,0,.64.6.77,1q3.63,11.26,7.2,22.54,1.51,4.71,3,9.42Z" transform="translate(-79.7 -29.34)"/><path d="M177.24,152a18.79,18.79,0,0,1-2.73,0c-.32-.05-.7-.57-.83-.94-1.15-3.4-2.28-6.8-3.34-10.22a1.44,1.44,0,0,0-1.69-1.19c-3.8.06-7.59.07-11.39,0a1.5,1.5,0,0,0-1.73,1.3c-.93,3-2,6.06-2.94,9.09-.72,2.21-.72,2.21-3.23,1.9.12-.41.21-.81.34-1.21q5.66-17.44,11.29-34.89a1.31,1.31,0,0,1,1.52-1.07c2.68,0,2.68,0,3.51,2.58q5.35,16.47,10.7,32.95C176.89,150.79,177,151.32,177.24,152Zm-14.13-33.68-.27,0-6,18.74h12.28Z" transform="translate(-79.7 -29.34)"/><path d="M428.52,152a17.82,17.82,0,0,1-2.67,0,1.48,1.48,0,0,1-.86-.9c-1.15-3.4-2.28-6.8-3.34-10.22a1.45,1.45,0,0,0-1.66-1.24c-3.83.07-7.67.06-11.5,0a1.37,1.37,0,0,0-1.61,1.13c-1,3.12-2,6.22-3,9.32-.72,2.21-.72,2.2-3.25,1.81q1.31-4,2.61-8c3-9.32,6.07-18.63,9-28a1.37,1.37,0,0,1,1.57-1.16c2.64,0,2.65,0,3.46,2.52q5.42,16.64,10.81,33.29C428.24,150.94,428.34,151.36,428.52,152Zm-14.09-33.58h-.31c-2,6.19-4,12.38-6,18.65h12.26C418.37,130.76,416.4,124.59,414.43,118.43Z" transform="translate(-79.7 -29.34)"/><path d="M122,149.52h13.53v2.41H118.69V114.86H135v2.3H122v14.1h12.4v2.44H122Z" transform="translate(-79.7 -29.34)"/><path d="M487.74,151.91v-37.1h16.38v2.34h-13v14.14h12.34v2.37H491.09v15.82h13.5v2.43Z" transform="translate(-79.7 -29.34)"/><path d="M278,152h-3.32v-1.31c0-4.91,0-9.82,0-14.73a4.27,4.27,0,0,0-.49-1.91c-3.28-6-6.6-11.93-9.91-17.9-.21-.37-.39-.76-.7-1.35a32.57,32.57,0,0,1,3.31,0c.31,0,.63.54.83.89q4,7.33,8.05,14.69c.21.38.43.75.73,1.26.26-.41.47-.72.65-1.05,2.69-4.8,5.42-9.58,8.05-14.42a2.2,2.2,0,0,1,2.49-1.45,12.6,12.6,0,0,0,1.78,0c-.31.57-.52,1-.75,1.37-3.36,5.89-6.74,11.77-10.06,17.68a5.2,5.2,0,0,0-.61,2.35c-.06,4.83,0,9.66,0,14.49Z" transform="translate(-79.7 -29.34)"/><path d="M243.77,117.17v34.76h-3.28V117.2h-8.75v-2.35h20.78v2.32Z" transform="translate(-79.7 -29.34)"/><path d="M332.3,114.82v37.12h-3.12V114.82Z" transform="translate(-79.7 -29.34)"/></svg>