<svg id="Слой_1" data-name="Слой 1" xmlns="http://www.w3.org/2000/svg" viewBox="0 0 435.31 70.62"><title>black</title><path d="M372.48,244.72h.89q16.56,0,33.11,0a2.74,2.74,0,0,0,1.42-.45q2.43-1.65,4.76-3.43a15.72,15.72,0,0,0,1.58-1.65c-1.39-.11-10.13,1.75-12.35,2.58-.25-.69,0-1.08.71-1.23,2.5-.55,5-1.13,7.49-1.66,1.47-.31,3-.54,4.46-.8a1.58,1.58,0,0,0-.89-1.78,14.24,14.24,0,0,0-3.48-1.16,35.46,35.46,0,0,0-5.25-.37c-11.73,0-23.47,0-35.2,0a18.31,18.31,0,0,1-6.32-.87,8.49,8.49,0,0,1-1.41-.64,2.51,2.51,0,0,1-1.35-3.28,2.41,2.41,0,0,1,1.71-1.52,51.55,51.55,0,0,1,5.46-1.43c7.69-1.42,15.39-2.76,23.09-4.15q6.33-1.14,12.65-2.35a13.92,13.92,0,0,0,1.62-.53l0-.28a5.34,5.34,0,0,0-1.05-.39,14.1,14.1,0,0,0-1.95-.14H360.67v-4.32h.73q27.51,0,55,0a6,6,0,0,1,4.41,2,2.89,2.89,0,0,1-.09,4,9.8,9.8,0,0,1-2.86,1.84,46.51,46.51,0,0,1-9.19,2.31c-1.86.35-3.74.66-5.6,1.11h.77q21.93,0,43.86,0a34.8,34.8,0,0,1,9.42,1.06,8.12,8.12,0,0,1,3.31,1.61,3.5,3.5,0,0,1,.07,5.48,9.5,9.5,0,0,1-4.5,2.19c-3.6.83-7.22,1.62-10.86,2.3-5.5,1-11,1.92-16.54,2.87a1.55,1.55,0,0,0-.21.18h.81c6.58,0,13.15,0,19.73,0a48.9,48.9,0,0,1,10.93,1,12.9,12.9,0,0,1,5.8,2.54,5.1,5.1,0,0,1,1.19,6.79,15.08,15.08,0,0,1-4.64,4.83c-3.38,2.39-6.82,4.69-10.25,7q-14.57,9.82-29.17,19.6a5.32,5.32,0,0,1-1.73.46l-.09-.22c.13-.11.24-.22.37-.31q16.71-11.25,33.41-22.49c2.61-1.76,5.2-3.56,7.74-5.41A13.27,13.27,0,0,0,466,252a4.34,4.34,0,0,0-1.29-6.25,14,14,0,0,0-6.62-2.31c-3.08-.35-6.18-.64-9.27-.68-8.16-.09-16.31,0-24.47,0a1.94,1.94,0,0,0-1.07.39c-1.15.81-2.25,1.68-3.34,2.51.67.42,1.34.85,2,1.25a1.53,1.53,0,0,0,.65.08c7.26,0,14.51,0,21.76,0a27.05,27.05,0,0,1,7.5.75,8.06,8.06,0,0,1,1.61.67,2.34,2.34,0,0,1,.88,3.69,13,13,0,0,1-2.91,2.87c-4.11,2.9-8.3,5.7-12.48,8.52q-14.85,10.05-29.72,20.11a3.12,3.12,0,0,1-2.14.34l4.32-2.92Q430.71,268,450,255a19.39,19.39,0,0,0,3-2.52c1.58-1.61,1.28-2.89-.86-3.58a20.45,20.45,0,0,0-3.89-.77,31.61,31.61,0,0,0-3.77-.17H422.61a2.78,2.78,0,0,1-1.7,3.59,28.14,28.14,0,0,1-5.34,1.78c-3.09.7-6.22,1.19-9.34,1.77a2.27,2.27,0,0,0-.79.32,32.09,32.09,0,0,0-3.17,2.29c.24,0,.47,0,.71,0,3.22,0,6.44,0,9.66,0a42.13,42.13,0,0,1,8.46.75,11.72,11.72,0,0,1,4.78,1.91,3.93,3.93,0,0,1,1.15,5.32,11.23,11.23,0,0,1-3.48,3.71c-2.94,2.07-5.92,4.08-8.9,6.1-4,2.7-8,5.38-12,8.08a2.59,2.59,0,0,1-1.57.47c-3.22,0-6.44,0-9.66,0h-.71l0-.14,4.91-3.31c6.12-4.15,12.26-8.28,18.37-12.45a12.94,12.94,0,0,0,2.23-1.95c1.32-1.47,1-2.81-.88-3.38a17.17,17.17,0,0,0-4.43-.73c-5-.11-10-.08-15-.08a1.51,1.51,0,0,0-.78.32c-8.1,5.44-16.18,10.91-24.3,16.33-2.58,1.72-5.25,3.3-7.88,4.93a2.86,2.86,0,0,1-2.29.39,4.73,4.73,0,0,1,0-.53c0-2.2,0-4.41,0-6.61a1,1,0,0,1,.51-.92q10-6.7,19.91-13.44a1.07,1.07,0,0,0,.43-.51,22.24,22.24,0,0,1-2.45,0c-1.42-.17-2.84-.41-4.25-.68a5.1,5.1,0,0,1-1.22-.55,2.07,2.07,0,0,1-1.12-2.36,1.79,1.79,0,0,1,1.36-1.52,42.75,42.75,0,0,1,5-1.32c5.58-1.05,11.18-2,16.78-3a1,1,0,0,0,.38-.12l4.8-3.24H372.48Zm52.79-3.33,3.37-.58c5.31-.92,10.63-1.79,15.93-2.78,3.71-.68,7.4-1.47,11.08-2.3a9.52,9.52,0,0,0,4.07-1.87,2.65,2.65,0,0,0-.23-4.56,9.93,9.93,0,0,0-2.75-1.21,33.1,33.1,0,0,0-9-1H401.86l-.07-.82-18.19,3.16v.12h.72c4.55,0,9.1,0,13.65,0,5.67.05,11.34.1,17,.27a24.12,24.12,0,0,1,7.45,1.43,3.4,3.4,0,0,0,1.06.16c6.39,0,12.79,0,19.18,0a8.26,8.26,0,0,1,2.24.41,1,1,0,0,1,.5.71.91.91,0,0,1-.5.63,5.84,5.84,0,0,1-1.53.5q-7.68,1.44-15.37,2.83a.67.67,0,0,0-.65.68,5.3,5.3,0,0,1-.49,1.66C426.41,239.74,425.82,240.54,425.27,241.39Zm-.33-9a6,6,0,0,1,2.4,3.41l16.74-3.06,0-.34C437.69,232.22,431.33,232.38,424.94,232.39Z" transform="translate(-32.34 -214.69)"/><path d="M55.59,224.88h.8c4.46,0,8.92,0,13.38,0a29.2,29.2,0,0,1,8,.76,9.12,9.12,0,0,1,2.52,1.09,2.9,2.9,0,0,1,.86,4.37,12.37,12.37,0,0,1-3.65,3.37q-12.57,8.49-25.18,17c-2.91,1.95-5.8,3.95-8.76,5.83a9,9,0,0,1-7.16,1.31A2.47,2.47,0,0,1,34.19,256c0-.52-.06-1-.06-1.55q0-17.82,0-35.64c0-2.57.62-3.24,3.22-3.46.71-.06,1.43-.09,2.15-.09q15.07,0,30.14,0a19.78,19.78,0,0,1,6.21.75,5.31,5.31,0,0,1,1.43.71,1.92,1.92,0,0,1,0,3.21,7.85,7.85,0,0,1-3.59,1.45c-3.63.73-7.28,1.38-10.92,2-2.41.44-4.82.84-7.22,1.26ZM41,253.34l.49-.31q13.67-9.22,27.32-18.46,2.12-1.44,4.14-3a1.6,1.6,0,0,0-.82-3.07,33.9,33.9,0,0,0-4.49-.41c-7.27-.05-14.54,0-21.82,0A6.84,6.84,0,0,1,41,226.53Zm0-28.65a14.09,14.09,0,0,1,2.36-.93c3.88-.77,7.76-1.46,11.65-2.18l11.92-2.17a10.8,10.8,0,0,0,1.22-.39l0-.29a47.21,47.21,0,0,0-6.73-.17c-2.25,0-4.5,0-6.75,0H41Z" transform="translate(-32.34 -214.69)"/><path d="M308.83,248v.75c0,2.34,0,4.68,0,7,0,1.81-.7,2.57-2.49,2.63a13.29,13.29,0,0,1-2.75-.15,1.73,1.73,0,0,1-1.54-1.78,7,7,0,0,1-.05-.8V217.77a7.43,7.43,0,0,1,.07-.94,1.73,1.73,0,0,1,1.44-1.64,8,8,0,0,1,3.8,0,1.82,1.82,0,0,1,1.5,1.83c0,.34,0,.68,0,1v28.13c1.7-1.76,3.34-3.47,5-5.18l14.39-15.1c2.91-3.06,5.88-6.07,8.72-9.2a5.17,5.17,0,0,1,6-1.26c1.16.44,1.4,1.19.59,2.12-1.15,1.32-2.39,2.57-3.61,3.84L322.6,239.45c-1.72,1.79-3.44,3.56-5.1,5.4-1.13,1.27-1,1.82.59,2.36,1.94.65,3.93,1.14,5.91,1.63q13.19,3.33,26.39,6.62a5.58,5.58,0,0,1,1.38.51,1.14,1.14,0,0,1,0,2.06,5.13,5.13,0,0,1-4,.44c-3.12-.66-6.21-1.44-9.3-2.2q-12.72-3.15-25.42-6.34A10.1,10.1,0,0,1,308.83,248Z" transform="translate(-32.34 -214.69)"/><path d="M206.52,258.55c-2,.32-3.09-.87-3.92-2.46-1.24-2.36-2.55-4.69-3.81-7a.87.87,0,0,0-.89-.53q-12.87,0-25.74,0a.91.91,0,0,0-.93.58c-1.3,2.51-2.63,5-3.94,7.51a4.38,4.38,0,0,1-6.21,1.22,1.4,1.4,0,0,1-.31-2l7.47-14.18c4.24-8.08,8.51-16.16,12.72-24.27a3.87,3.87,0,0,1,4-2.41l1.81.1a2.68,2.68,0,0,1,2.31,1.61q5.12,9.8,10.24,19.57l10.24,19.49c.61,1.17.36,2-.87,2.49a14.47,14.47,0,0,1-2.21.49Zm-33.16-13.27h23.57c-4-7.7-7.87-15.33-11.85-23.06Z" transform="translate(-32.34 -214.69)"/><path d="M249.67,259c-5.44-.06-9.79-.55-13.93-2.28a15,15,0,0,1-5.46-3.75,8.72,8.72,0,0,1-1.93-8.84,22.88,22.88,0,0,1,5.14-8.75,67.75,67.75,0,0,1,14.75-12,97.53,97.53,0,0,1,13.88-7.46,19.83,19.83,0,0,1,3.46-1.08,3.85,3.85,0,0,1,2.91.55c.81.49.88,1.25.11,1.78a23.31,23.31,0,0,1-2.59,1.43,113.77,113.77,0,0,0-18.37,11,43.3,43.3,0,0,0-9.06,8.82,17.19,17.19,0,0,0-3.16,6.92c-.67,3.45.64,6,3.46,7.91a14.7,14.7,0,0,0,6.57,2.26c9.29,1.12,17.05-2,23.53-8.59a5,5,0,0,1,5.52-1.22c1.19.38,1.56,1.33.76,2.31a23.33,23.33,0,0,1-3.22,3.22,33.56,33.56,0,0,1-17.12,7.35C252.86,258.81,250.76,258.88,249.67,259Z" transform="translate(-32.34 -214.69)"/><path d="M112.26,254.94h.9q13.41,0,26.81,0a11.48,11.48,0,0,1,2.41.27,1.3,1.3,0,0,1,1.18,1.35c0,.64-.35,1.09-1.17,1.27a12.1,12.1,0,0,1-2.47.31q-14.79,0-29.59,0a15.07,15.07,0,0,1-3.06-.38,2.16,2.16,0,0,1-1.84-2.26c0-.2,0-.4,0-.6V217.73c0-1.89.46-2.49,2.34-2.68a13.23,13.23,0,0,1,3,.16,1.65,1.65,0,0,1,1.41,1.59,10.18,10.18,0,0,1,.07,1.35q0,17.88,0,35.76Z" transform="translate(-32.34 -214.69)"/><path d="M317.73,268.77l10.6,11.07v-10h2.22v15.46l-10.57-11v10.05h-2.25Z" transform="translate(-32.34 -214.69)"/><path d="M220.58,279.86V269.81h2.23v15.5l-10.62-11.06v10.08H210V268.77Z" transform="translate(-32.34 -214.69)"/><path d="M191.46,284.64a7.44,7.44,0,0,1-7.58-7.6,7.55,7.55,0,0,1,7.81-7.54,7.57,7.57,0,1,1-.23,15.14Zm-5.33-7.57a5.4,5.4,0,1,0,10.8.05,5.4,5.4,0,1,0-10.8-.05Z" transform="translate(-32.34 -214.69)"/><path d="M77,284.64a7.5,7.5,0,0,1-7.64-7.58,7.65,7.65,0,0,1,7.78-7.56A7.57,7.57,0,1,1,77,284.64Zm.22-13a5.4,5.4,0,0,0-5.58,5.22,5.5,5.5,0,0,0,5.2,5.76,5.44,5.44,0,0,0,5.6-5.29A5.38,5.38,0,0,0,77.21,271.6Z" transform="translate(-32.34 -214.69)"/><path d="M53,284.35H50.81V269.67a44.13,44.13,0,0,1,4.92.38A3.73,3.73,0,0,1,59,273.92a4.06,4.06,0,0,1-2.86,4.17l-.32.12,4.47,6.16c-1,0-1.77,0-2.58,0-.17,0-.35-.25-.47-.42-1.2-1.69-2.37-3.38-3.57-5.07a3.49,3.49,0,0,0-.45-.49l-.2.06Zm0-8a3.27,3.27,0,0,0,3.44-1,2.5,2.5,0,0,0-.12-2.61A3.5,3.5,0,0,0,53,272Z" transform="translate(-32.34 -214.69)"/><path d="M247,284.3l-.18.06c-2.23.12-2.23.12-3.09-1.91-.68-1.61-.68-1.61-2.43-1.61-1.32,0-2.65,0-4,0a.65.65,0,0,0-.71.46c-.38.88-.81,1.75-1.19,2.63a.62.62,0,0,1-.7.46c-.61,0-1.21,0-1.94,0,2.41-5.19,4.79-10.29,7.25-15.56C242.35,274.05,244.64,279.16,247,284.3Zm-7-10.44c-.77,1.68-1.47,3.23-2.2,4.83h4.3C241.35,277.08,240.69,275.55,240,273.86Z" transform="translate(-32.34 -214.69)"/><path d="M113.33,269.81h8v2h-5.77v3.44h5.59v2.14h-5.59v4.84h5.75v2.05h-8Z" transform="translate(-32.34 -214.69)"/><path d="M350,275.32v2.12h-5.58v4.84h5.76v2h-8V269.83h8v2h-5.76v3.47Z" transform="translate(-32.34 -214.69)"/><path d="M131.54,280.34l2.23-.5c.07.34.12.62.19.9a2.28,2.28,0,0,0,2.2,1.84,2.37,2.37,0,0,0,2.39-1.62,2.19,2.19,0,0,0-.93-2.7,21.75,21.75,0,0,0-2.17-1.06c-.47-.23-.95-.42-1.39-.69A3.54,3.54,0,0,1,132.2,273a3.69,3.69,0,0,1,2.4-3.09,4.46,4.46,0,0,1,5.93,2.12L138.76,273c-.47-.74-1-1.45-2-1.41a3.58,3.58,0,0,0-1.42.3,1.5,1.5,0,0,0-.21,2.64,11.3,11.3,0,0,0,1.74.87c.65.31,1.33.56,1.94.92a4,4,0,0,1,2.07,4.2,4.22,4.22,0,0,1-3.3,3.9C134.54,285.25,132,283.73,131.54,280.34Z" transform="translate(-32.34 -214.69)"/><path d="M150.83,280.34l2.24-.49c.08.36.14.67.22,1a2.23,2.23,0,0,0,2.19,1.75,2.34,2.34,0,0,0,2.31-1.43,2.15,2.15,0,0,0-.67-2.72,18.18,18.18,0,0,0-2.32-1.21c-.5-.25-1-.45-1.5-.75a3.49,3.49,0,0,1-1.78-3.58,3.69,3.69,0,0,1,2.46-3,4.47,4.47,0,0,1,5.87,2.13l-1.8,1.09a2.31,2.31,0,0,0-2.66-1.41,1.93,1.93,0,0,0-1.58,1.38,1.53,1.53,0,0,0,1,1.75c.79.41,1.65.7,2.46,1.08a4.5,4.5,0,0,1-.27,8.62,4.59,4.59,0,0,1-6-3.4C150.92,280.86,150.89,280.64,150.83,280.34Z" transform="translate(-32.34 -214.69)"/><path d="M32.34,269.89c1.54,0,3-.11,4.49,0a4,4,0,0,1,3.7,3.93,4.1,4.1,0,0,1-3.25,4.42c-.86.19-1.77.21-2.72.32v5.74H32.34Zm2.24,6.49c1.28,0,2.57.15,3.43-1.05a2.24,2.24,0,0,0,0-2.48c-.89-1.11-2.15-1-3.42-1Z" transform="translate(-32.34 -214.69)"/><path d="M95.46,284.32V269.81h7.25v2h-5v3.46h4.78v2.11h-4.8v6.9Z" transform="translate(-32.34 -214.69)"/><path d="M287.41,269.8h2.2v12.49h4.25v2h-6.45Z" transform="translate(-32.34 -214.69)"/><path d="M259,282.3h4.23v2h-6.43v-14.5H259Z" transform="translate(-32.34 -214.69)"/><path d="M173.07,284.34h-2.16V269.83h2.16Z" transform="translate(-32.34 -214.69)"/><path d="M306.15,284.34H304V269.81h2.14Z" transform="translate(-32.34 -214.69)"/></svg>