<svg id="Слой_1" data-name="Слой 1" xmlns="http://www.w3.org/2000/svg" viewBox="0 0 445.87 183.89"><title>cera</title><path d="M121.29,226.81A82.83,82.83,0,1,1,179,84.6l6.26-6.26a91.68,91.68,0,1,0,1.47,129.83l-6.27-6.26a82.56,82.56,0,0,1-59.13,24.9" transform="translate(-29.6 -52.29)"/><path d="M121.29,208.66A64.68,64.68,0,1,1,166.12,97.43l6.13-6.13a73.34,73.34,0,1,0,1.47,103.91l-6.13-6.13a64.46,64.46,0,0,1-46.3,19.58" transform="translate(-29.6 -52.29)"/><path d="M121.29,178.3a34.32,34.32,0,1,1,23.38-59.41l14.3-14.3a54.55,54.55,0,1,0,1.46,77.33l-14.3-14.3a34.16,34.16,0,0,1-24.84,10.68" transform="translate(-29.6 -52.29)"/><path d="M278.49,155.39H194.68a30.35,30.35,0,0,0,29.77,23.5,29.91,29.91,0,0,0,26-14.3l20,9.4c-9,14.49-25.26,24.68-46,24.68-32.32,0-53.86-25.27-53.86-51.71,0-25.45,21.35-51.5,53.86-51.5s54,26.05,54,51.5Zm-24.47-18c-3.92-13.9-15.87-22.13-29.57-22.13-13.91,0-25.66,8.23-29.38,22.13Z" transform="translate(-29.6 -52.29)"/><path d="M356.42,120.53c-2.93-2.16-6.26-2.94-11-2.94-15.67,0-22.91,9.79-22.91,29.38v48.56H299.24V98.6h18.61l3.33,11.75h1c3.92-7.83,13.71-14.69,29.38-14.69,7.25,0,12.73,2.15,15.66,4.5Z" transform="translate(-29.6 -52.29)"/><path d="M475.35,98.59v96.94H455.77l-2.55-11h-1c-4.12,7.83-17.43,13.9-31.92,13.9-32.32,0-52.88-25.07-52.88-51.5,0-25.46,20.37-51.51,52.88-51.51,14.1,0,27.22,6.07,32.31,14.49h.78l3.33-11.36ZM452.63,147c0-19.78-15.66-31.73-32.31-31.73-16.85,0-29.77,12-29.77,31.73,0,18.8,12.92,31.72,29.77,31.72,17,0,32.31-12.33,32.31-31.72" transform="translate(-29.6 -52.29)"/><path d="M224.77,235.83V216.72h7.68a5.76,5.76,0,1,1,0,11.52h-5.3v7.59ZM236,222.48a3.55,3.55,0,0,0-3.81-3.64h-5v7.28h5a3.55,3.55,0,0,0,3.81-3.64" transform="translate(-29.6 -52.29)"/><path d="M257,235.83l-4.84-7.59H248.3v7.59h-2.38V216.72h7.68c3.5,0,6,2.23,6,5.76a5.31,5.31,0,0,1-5,5.56l5.16,7.79Zm.17-13.35a3.56,3.56,0,0,0-3.84-3.64h-5v7.3h5a3.59,3.59,0,0,0,3.84-3.66" transform="translate(-29.6 -52.29)"/><path d="M266.88,226.29c0-5.65,3.84-9.89,9.49-9.89s9.52,4.24,9.52,9.89-3.88,9.89-9.52,9.89-9.49-4.25-9.49-9.89m16.54,0c0-4.47-2.78-7.77-7.05-7.77s-7,3.3-7,7.77,2.72,7.76,7,7.76,7.05-3.32,7.05-7.76" transform="translate(-29.6 -52.29)"/><polygon points="264.59 183.54 264.59 164.43 277.11 164.43 277.11 166.55 266.97 166.55 266.97 172.71 276.91 172.71 276.91 174.83 266.97 174.83 266.97 183.54 264.59 183.54"/><polygon points="284.73 183.54 284.73 164.43 297.25 164.43 297.25 166.55 287.11 166.55 287.11 172.71 297.05 172.71 297.05 174.83 287.11 174.83 287.11 181.42 297.25 181.42 297.25 183.54 284.73 183.54"/><path d="M334,233.14l1.44-1.84a7.85,7.85,0,0,0,6,2.75c3.41,0,4.5-1.83,4.5-3.32,0-4.93-11.32-2.18-11.32-9,0-3.15,2.81-5.33,6.59-5.33a9,9,0,0,1,6.76,2.69l-1.43,1.75a7.22,7.22,0,0,0-5.53-2.29c-2.27,0-3.93,1.23-3.93,3,0,4.3,11.32,1.83,11.32,9,0,2.75-1.89,5.62-7,5.62a9.52,9.52,0,0,1-7.34-3" transform="translate(-29.6 -52.29)"/><path d="M355.31,233.14l1.43-1.84a7.86,7.86,0,0,0,6,2.75c3.41,0,4.5-1.83,4.5-3.32,0-4.93-11.32-2.18-11.32-9,0-3.15,2.81-5.33,6.59-5.33a9,9,0,0,1,6.77,2.69l-1.44,1.75a7.2,7.2,0,0,0-5.52-2.29c-2.27,0-3.93,1.23-3.93,3,0,4.3,11.32,1.83,11.32,9,0,2.75-1.9,5.62-7.05,5.62a9.49,9.49,0,0,1-7.34-3" transform="translate(-29.6 -52.29)"/><rect x="348.29" y="164.43" width="2.38" height="19.12"/><path d="M388.56,226.29c0-5.65,3.84-9.89,9.49-9.89s9.51,4.24,9.51,9.89-3.87,9.89-9.51,9.89-9.49-4.25-9.49-9.89m16.54,0c0-4.47-2.79-7.77-7.05-7.77s-7,3.3-7,7.77,2.72,7.76,7,7.76,7.05-3.32,7.05-7.76" transform="translate(-29.6 -52.29)"/><polygon points="399.8 183.54 388.64 168.3 388.64 183.54 386.27 183.54 386.27 164.43 388.7 164.43 399.71 179.36 399.71 164.43 402.09 164.43 402.09 183.54 399.8 183.54"/><path d="M454.47,235.83l-1.69-4.27h-9.52l-1.69,4.27h-2.72l7.71-19.11h2.95l7.68,19.11ZM448,219.15l-4,10.32h8.11Z" transform="translate(-29.6 -52.29)"/><polygon points="434.6 183.54 434.6 164.43 436.98 164.43 436.98 181.42 445.87 181.42 445.87 183.54 434.6 183.54"/></svg>