<svg id="Слой_1" data-name="Слой 1" xmlns="http://www.w3.org/2000/svg" viewBox="0 0 606.9 150.02"><title>ceriotti</title><path d="M157.75,189.92c-9.87,0-19.74.07-29.6,0-9.27-.08-16.61-5.75-17.44-14.62-.36-3.87,1.13-8.41,3.09-11.91,7.84-14,16.21-27.74,24.37-41.58Q151.36,99.42,164.49,77c7-12,22.92-12.29,30.07-.46,6.31,10.45,12.3,21.09,18.64,31.51,2.06,3.39,1.49,6-.92,8.73a22.47,22.47,0,0,1-13.81,7.53c-3.21.49-5.75-.36-7.44-3.57-2.56-4.84-5.43-9.52-8.29-14.19-1.93-3.16-4.05-3.21-5.92-.08q-15.87,26.64-31.6,53.37c-1.91,3.25-.69,5.09,3.26,5.11,13.12,0,26.24.11,39.35-.05,3.41,0,5.48,1.39,6.72,4.26a20.57,20.57,0,0,1,.12,16.32c-1.23,3.08-3.38,4.55-6.94,4.49C177.74,189.8,167.75,189.92,157.75,189.92Z" transform="translate(53.69 -64.93)"/><path d="M216.64,162.25c1.52,4.25,4.4,6,7.62,7,6.79,2.26,13.4,1.62,19.24-2.62,2.74-2,5-1.87,7.42,0a21.38,21.38,0,0,1,2.86,2.4c6.27,6.93,5.71,9.87-1.12,14.29-12.44,8-25.59,9-38.69,2.26-12.92-6.69-19.59-17.84-19.53-32.44.07-18.58,15.13-33.81,34.45-35.31,18.49-1.45,35.64,11.78,38.64,29.83a20.83,20.83,0,0,1,.57,5.51c-.61,5.7-4.58,9-10.89,9-12,.08-24,0-36,0Zm27.62-17c-.63-4.4-4.69-7.43-10.19-8.06-8.17-.94-15.1,2.25-17.21,8.06Z" transform="translate(53.69 -64.93)"/><path d="M421.65,154.11c0,20-16.63,36.14-37.09,36.13s-37.53-16.7-37.23-36.51c.3-20.3,16.76-36.06,37.61-36A36.4,36.4,0,0,1,421.65,154.11Zm-37.26-16.8a16.89,16.89,0,0,0-16.87,16.51c-.08,9,7.86,16.84,17.06,16.85s17.18-7.91,17.13-16.84C401.66,144.73,393.81,137.24,384.39,137.31Z" transform="translate(53.69 -64.93)"/><path d="M427.14,139.43q0-19.62,0-39.24c0-4.54.92-5.63,5.44-6.43a25.6,25.6,0,0,1,4.46-.41c8.5,0,9.94,1.41,9.94,9.8,0,3.48.1,7,0,10.46-.12,3.24,1.37,4.51,4.5,4.41,2.87-.09,5.75.07,8.62,0,2.54-.09,4.14,1.1,4.6,3.45a35.28,35.28,0,0,1,.81,7.72c-.19,6.91-1.6,8.15-8.45,8.15-11.09,0-10.05-.93-10.06,10,0,6.23.08,12.46,0,18.68-.05,3.14,1.11,4.65,4.4,4.46,2.73-.15,5.49,0,8.23,0,3-.08,4.77,1.29,5.29,4.16a33.29,33.29,0,0,1,.72,6.26c-.09,7.6-1.63,9-9.19,9-6.12,0-12.24.07-18.35,0-7.22-.1-10.84-3.67-10.89-10.86C427.09,165.84,427.14,152.63,427.14,139.43Z" transform="translate(53.69 -64.93)"/><path d="M469.77,139.27c0-13.09.14-26.18-.08-39.26-.07-4.06,1.88-5.64,5.35-6.24a29.16,29.16,0,0,1,4.47-.43c8.47-.1,10,1.38,10,9.64,0,3.62,0,7.23,0,10.85,0,2.74,1.27,4.17,4.08,4.16,3,0,6,.13,9,0a4.36,4.36,0,0,1,4.88,3.65,28,28,0,0,1,.93,5.51c.38,8-1.69,10.21-9.63,10.16-9.4-.07-9.37-.48-9.26,9.11q.11,9.72,0,19.44c0,3.3,1.3,4.84,4.71,4.65,2.74-.16,5.49,0,8.24-.05s4.46,1.37,5.07,4a29,29,0,0,1,.89,5.9c.09,7.76-1.8,9.6-9.49,9.6-5.88,0-11.75,0-17.62,0-7.91,0-11.48-3.57-11.49-11.4C469.75,165.44,469.77,152.35,469.77,139.27Z" transform="translate(53.69 -64.93)"/><path d="M293.82,164c0,6.6-.17,13.22.06,19.81.12,3.57-1.82,4.93-4.74,5.61a25.39,25.39,0,0,1-4.45.52c-8.79.5-10.92-1.45-10.86-10.12.09-13.2-.1-26.42.5-39.6.47-10.22,6.49-17.16,15.89-20.67,9.67-3.62,18.65-1.66,26.57,5a4.41,4.41,0,0,1,.72,6.39,50.49,50.49,0,0,1-8.43,8.16c-1.8,1.4-4,1.13-6.2-.41-4.43-3.09-8.93-.68-9,4.72C293.72,150.24,293.82,157.09,293.82,164Z" transform="translate(53.69 -64.93)"/><path d="M23.6,214.77C15.89,214.26,8,216.25.51,213.26S-9.7,201.71-6.17,194.49c.33-.67.7-1.32,1.08-2l27.88-47c4.05,6.86,7.93,13.29,11.58,19.85.4.71-.31,2.29-.87,3.25-4.55,7.86-9.2,15.66-13.82,23.48-4.83,8.2-3.89,13.89,3.33,20.37a7.13,7.13,0,0,1,.83,1.11Z" transform="translate(53.69 -64.93)"/><path d="M28.32,142.45c7.34,0,14.45-.12,21.55.11A5.31,5.31,0,0,1,53.43,145c4.69,7.63,9.51,15.21,13.65,23.15S79.9,179,86.9,175.73a14.68,14.68,0,0,1,2.79-.39c-1.73,3-3,5.27-4.36,7.53-1.78,3-3.42,6.1-5.43,8.94-5.53,7.85-17.91,8.13-23,0-9.84-15.86-19.06-32.1-28.52-48.18C28.31,143.43,28.37,143.15,28.32,142.45Z" transform="translate(53.69 -64.93)"/><path d="M20.54,65.17c8.32.38,16.09-1.38,23.47,1.21,8.16,2.86,10.87,12.39,6.27,20.24C42.91,99.2,35.45,111.72,28,124.27c-1.89,3.2-3.81,6.39-6,10-4.18-7.08-8.16-13.8-12.18-20.6,4.95-8.4,9.84-16.78,14.81-25.12,5.44-9.11,4.8-13.94-2.92-21.33A13,13,0,0,1,20.54,65.17Z" transform="translate(53.69 -64.93)"/><path d="M16.51,137.29c-7.57,0-15.11.08-22.65-.11-.86,0-1.91-1.42-2.5-2.4-4.67-7.78-9.24-15.63-13.86-23.44-4.74-8-10.37-10.18-19.19-7.45a4.08,4.08,0,0,1-2.5-.09c5.56-7.21,6.36-18,17-21.16,5.73-1.67,12.11.27,15.15,5.3,9.66,16,19,32.1,28.46,48.18C16.54,136.3,16.47,136.59,16.51,137.29Z" transform="translate(53.69 -64.93)"/><path d="M87.65,100.55c3.71,6.62,7.57,12.2,10.08,18.32,3.15,7.72-2.28,16.49-10.7,17.52-6.4.78-12.94.54-19.42.53-11.85,0-23.7-.18-35.54-.3-1.32,0-2.64-.11-4.61-.2,4-6.75,7.55-13,11.37-19,.52-.83,2.35-1.14,3.58-1.15,9.24-.09,18.47,0,27.71,0,9.67,0,14.41-3.89,16.32-13.33A14.55,14.55,0,0,1,87.65,100.55Z" transform="translate(53.69 -64.93)"/><path d="M535.1,154c0,9.83-.14,19.67.07,29.5.09,3.68-1.69,5.24-4.83,5.89a28,28,0,0,1-4.83.52c-8.55.22-10.25-1.44-10.25-9.85,0-18.42.11-36.85-.09-55.27,0-4,1.63-5.77,5.19-6.31a34.78,34.78,0,0,1,5.58-.43c7.67.07,9.16,1.58,9.16,9.06Z" transform="translate(53.69 -64.93)"/><path d="M322.27,153.91c0-9.84.14-19.68-.07-29.52-.07-3.43,1.39-5.15,4.47-5.75a31.06,31.06,0,0,1,5.93-.6c8.13,0,9.58,1.46,9.58,9.44q0,27.64,0,55.3c0,4.78-1.17,6.1-6,6.77a31,31,0,0,1-3.72.35c-8.58.21-10.22-1.38-10.22-9.83Z" transform="translate(53.69 -64.93)"/><path d="M17.19,143.82c-3.73,6.26-7.38,12.57-11.29,18.7-.51.8-2.42,1-3.69,1-9.1.08-18.21,0-27.31.05-9.69,0-14.31,3.71-16.56,13.17a10.81,10.81,0,0,1-.68,1.6c-.61-.47-1.19-.73-1.46-1.17-2.82-4.69-5.8-9.3-8.32-14.15-4.53-8.69,1.24-19.55,11-19.76,19.07-.4,38.16-.07,57.23,0C16.31,143.22,16.51,143.44,17.19,143.82Z" transform="translate(53.69 -64.93)"/><path d="M513.48,103.34c0-8.15,2.22-10.37,10.38-10.51,10-.18,14.23,1.07,12.37,14.86-.78,5.78-2.2,6.8-8,7.37-1,.09-2,.15-3,.15C515.68,115.26,513.46,113,513.48,103.34Z" transform="translate(53.69 -64.93)"/><path d="M320.68,103.38c0-8.53,1.95-10.46,10.62-10.55.87,0,1.75,0,2.62,0,7.3.26,9.5,2.52,9.6,9.83.15,10.47-1.92,12.66-11.85,12.55C322.51,115.11,320.68,113.14,320.68,103.38Z" transform="translate(53.69 -64.93)"/><path d="M44.39,108.69c2.51-6.54,2.51-6.55,8.57-6.53,6.74,0,13.47.1,20.21.08,1.71,0,3.42-.27,5.15-.42.77,3.56-1.6,6.71-5.89,6.8C63.21,108.82,54,108.69,44.39,108.69Z" transform="translate(53.69 -64.93)"/><path d="M-33.8,177.81c.23-4.41,2.53-6.74,7.14-6.8,9-.11,17.94,0,26.94,0-1.18,5.4-2.59,6.58-7.81,6.57-6.36,0-12.72-.1-19.07-.08C-28.92,177.47-31.23,177.68-33.8,177.81Z" transform="translate(53.69 -64.93)"/><path d="M39.18,173.82c4.35,6,4.3,5.94.89,11.63-4.14,6.89-8.18,13.84-12.27,20.78-3.27-1.62-4.69-4.87-2.75-8.33C29.54,189.88,34.33,182,39.18,173.82Z" transform="translate(53.69 -64.93)"/><path d="M5.7,105.93c-4.43-5.79-4.42-5.78-1-11.48C8.79,87.53,12.88,80.59,17,73.6a5.48,5.48,0,0,1,2.84,8.12C15.33,89.86,10.48,97.81,5.7,105.93Z" transform="translate(53.69 -64.93)"/><path d="M61,143c5.27-1.56,8.36-.13,10.63,4.5,2.83,5.8,6.41,11.23,9.71,16.8.81,1.36,1.81,2.6,2.73,3.92a5.71,5.71,0,0,1-8.73-1.29C70.45,159.11,65.88,151.13,61,143Z" transform="translate(53.69 -64.93)"/><path d="M-39.22,110.93c3.23-1.38,6.58-1.25,8.54,1.77,5,7.78,9.6,15.85,14.4,23.88-5.61,1.75-7.16,1.15-9.87-3.46C-30.4,125.87-34.68,118.64-39.22,110.93Z" transform="translate(53.69 -64.93)"/><path d="M544.31,94.67c-5,0-9-3.78-8.94-8.5a8.74,8.74,0,0,1,8.8-8.3c5.14-.06,9,3.48,9,8.34S549.46,94.67,544.31,94.67Zm.1-1.36a7,7,0,1,0-.1-14.08,7,7,0,0,0,.1,14.08Z" transform="translate(53.69 -64.93)"/><path d="M63.57,65.25a7,7,0,0,1,7.34,6.84,7.29,7.29,0,0,1-14.58.11A7,7,0,0,1,63.57,65.25ZM69.79,72a6.15,6.15,0,1,0-5.9,6.32A6.06,6.06,0,0,0,69.79,72Z" transform="translate(53.69 -64.93)"/><path d="M546.43,87.66l1.62,2.86-.6.58-4.37-4.83c-.31,2.11-.5,3.36-.68,4.61l-.78,0V81.13c2,.44,4.3.58,6.14,1.57.52.28-.31,3-.52,4.67Z" transform="translate(53.69 -64.93)"/><path d="M61.18,68.65c5.06-.6,5-.61,4.16,4.12-.16.87.53,1.89,1.06,3.55L63,72c-.65,1.33-1.06,2.19-1.78,3.66Z" transform="translate(53.69 -64.93)"/></svg>