<svg id="Слой_1" data-name="Слой 1" xmlns="http://www.w3.org/2000/svg" viewBox="0 0 291.16 291.6"><title>charles_w</title><path d="M235.28,105.52c-34.28,14.53-53.7,39.82-53.4,77.13.31,37.9,20.46,63,55.51,76.81-4.92-1.46-10-2.61-14.74-4.44-23-8.77-40.28-23.82-49.48-47.06-11-27.68-3.15-59.44,19.44-80.46A90.27,90.27,0,0,1,234,105.67,11,11,0,0,1,235.28,105.52Z" transform="translate(-104.42 -104.2)"/><path d="M234.38,235.34l-35-90.1c4.17,0,8-.11,11.78.1.65,0,1.46,1.37,1.8,2.26,6.44,16.74,12.77,33.53,19.23,50.27,1.74,4.51,3.74,8.93,5.8,13.31,1.18,2.5,2.06,2.56,3.68.37a77.17,77.17,0,0,1,4.84-6.47L235,235.37Z" transform="translate(-104.42 -104.2)"/><path d="M294.43,204.8c-3.89,10.22-7.78,20.44-11.9,31.28-1.84-4.62-3.46-8.62-5-12.63q-12.48-31.65-25-63.29a5.51,5.51,0,0,1,0-4.5c1.82-4.39,3.46-8.84,5.37-13.76.59,1.37,1,2.28,1.36,3.2Q271,175,282.85,204.9c.92,2.32,2.12,4.54,3.21,6.79.81,1.66,1.87,1.83,3,.3,1.75-2.4,3.42-4.86,5.12-7.29Z" transform="translate(-104.42 -104.2)"/><path d="M314.59,153.5c-1.36-5-2.68-9.26-3.63-13.56a32.25,32.25,0,0,0-7.25-13.82c-7.74-9.23-17.44-15.7-28.55-20.18l-2.72-1.07.15-.67c3.74.77,7.54,1.37,11.23,2.36a78.1,78.1,0,0,1,37.41,22.65,3.43,3.43,0,0,1,.85,4.18C319.55,139.82,317.23,146.34,314.59,153.5Z" transform="translate(-104.42 -104.2)"/><path d="M272.21,260.21c21-4.21,34.94-17.64,46.44-34.94,1.34,3.43,2.61,6.46,3.68,9.56a2.74,2.74,0,0,1-.71,2.15c-11.54,13.06-26,20.63-43.21,23.14-2,.29-4,.46-5.92.68Z" transform="translate(-104.42 -104.2)"/><path d="M128.14,361.17l-7-15.51c-2.36,5.26-4.49,10-6.92,15.48l-9.8-23.32c3.76-1.11,4.32-.84,5.67,2.51l4.27,10.6c2.34-5.19,4.45-9.89,6.79-15.07l6.78,15c1.48-3.74,2.75-7,4-10.18,1.4-3.54,1.4-3.54,5.83-3.15Z" transform="translate(-104.42 -104.2)"/><path d="M315,342.2l-3,2.34c-4.82-4-8.36-4.67-11.62-2.25a8.41,8.41,0,0,0-2.41,10,7.65,7.65,0,0,0,8.66,4.39c3.06-.59,4.64-2.09,4.74-4.84h-7.18v-3.93h11.27c.92,6.81.7,8.37-4.53,11.48a12,12,0,0,1-14.54-2,11.6,11.6,0,0,1-2.75-12.73,11.11,11.11,0,0,1,9.65-7.68A11.42,11.42,0,0,1,315,342.2Z" transform="translate(-104.42 -104.2)"/><path d="M166.47,348.91a12.07,12.07,0,1,1-11.94-12.14A11.77,11.77,0,0,1,166.47,348.91Zm-19.7-.23c0,4.66,3.21,8.05,7.68,8a7.56,7.56,0,0,0,7.63-7.84c0-4.66-3.17-8-7.7-8S146.79,344.1,146.77,348.68Z" transform="translate(-104.42 -104.2)"/><path d="M369.7,349a12.06,12.06,0,1,1-24.12-.38,12.06,12.06,0,0,1,24.12.38ZM350,348.84a7.56,7.56,0,0,0,7.59,7.88c4.47,0,7.75-3.36,7.73-8a7.51,7.51,0,0,0-7.87-7.83C353.05,341,350,344.23,350,348.84Z" transform="translate(-104.42 -104.2)"/><path d="M186.51,350.78c2.29,3.15,4.54,6.23,6.88,9.46-3.13.73-5.5.4-7.07-2.57a34.15,34.15,0,0,0-3.1-4.25c-1.59-2.15-1.59-2.15-4.79-1.72v8.71h-4.15V336.85c3.86.25,7.84,0,11.54.88,4.94,1.2,6.21,8,2.5,11.61C187.79,349.85,187.17,350.26,186.51,350.78Zm-8-3.36c2.61-.27,5.32.91,6.93-1.59a3.64,3.64,0,0,0-.16-3.41c-1.79-2.17-4.37-1.18-6.77-1.31Z" transform="translate(-104.42 -104.2)"/><path d="M395.58,361.85l-14.31-15.28V360.4H377V336.08c4.81,5.12,9.33,9.95,14.35,15.31v-13.9h4.28Z" transform="translate(-104.42 -104.2)"/><path d="M262,309.63l6.93,9.49c-3,.49-5.41.59-7-2.38-.84-1.61-2.26-2.91-3.19-4.48-1.11-1.89-2.59-2.42-4.9-1.72v8.67h-4.06V296c3.29,0,6.53-.21,9.73.05a6.38,6.38,0,0,1,6.1,5.11,6.91,6.91,0,0,1-2.78,7.73C262.56,309.08,262.32,309.32,262,309.63Zm-8-3.39c2.65-.2,5.34.84,7-1.59a3.66,3.66,0,0,0-.18-3.43c-1.81-2.14-4.37-1.22-6.79-1.26Z" transform="translate(-104.42 -104.2)"/><path d="M212.84,319.23h-4.13V309h-10.4v10.13H194.2V296.06h3.91v8.63h10.52V296h4.21Z" transform="translate(-104.42 -104.2)"/><path d="M269.93,346.43v14h-4.07V336.19l14.39,15.32v-14h4.08v24.27Z" transform="translate(-104.42 -104.2)"/><path d="M227.65,350.17v10.17h-4V337.18h3.91v8.68h10.51v-8.63h4.06v23.11H238.2V350.17Z" transform="translate(-104.42 -104.2)"/><path d="M301.59,315.31H313v3.89H297.36V296.05c.53-.07.92-.18,1.32-.19h14v3.86h-11v5H310v4.05h-8.38Z" transform="translate(-104.42 -104.2)"/><path d="M185.92,301.36l-3,2.42c-1.84-2.55-4.08-4.56-7.28-4a10.81,10.81,0,0,0-5.26,2.39c-3.11,2.88-2.78,8.35.3,11.28,3.46,3.3,8.12,2.62,12.3-1.93l2.87,2.22c-1.45,4.59-8.14,6.63-12.41,5.68a12,12,0,0,1-9.53-10.86c-.3-6.08,3.07-11,8.61-12.57A11.45,11.45,0,0,1,185.92,301.36Z" transform="translate(-104.42 -104.2)"/><path d="M336.66,299.88l-2.92,2.22a40.12,40.12,0,0,0-6-2.27,2.87,2.87,0,0,0-2.32,1.62,3.18,3.18,0,0,0,1.34,2.52c1.57,1.07,3.41,1.74,5.09,2.67,3.51,2,4.81,4.52,4.05,7.77-.69,3-3.46,5-7.13,5.29a9.69,9.69,0,0,1-9.49-5.92l2.3-1.68a45.29,45.29,0,0,0,6.4,3.31,2.63,2.63,0,0,0,3.54-1.93c.45-1.77-.74-2.57-2.1-3.23s-2.56-1.23-3.82-1.88c-4.22-2.16-5.75-5.18-4.39-8.61s5.83-5.26,9.79-3.67C332.94,296.85,334.53,298.41,336.66,299.88Z" transform="translate(-104.42 -104.2)"/><path d="M242.35,319.08c-2.84.64-4.79.37-5.6-2.53a2.67,2.67,0,0,0-2-1.31,48.24,48.24,0,0,0-7,.05,2.57,2.57,0,0,0-1.92,1.4c-.75,3.05-2.79,2.95-5.45,2.46,3.61-8,7.14-15.9,10.89-24.23Zm-7.89-7.73-3.16-7.27c-1,2.18-1.72,3.83-2.45,5.5-.22.52-.38,1.06-.63,1.77Z" transform="translate(-104.42 -104.2)"/><path d="M204.19,341.09H196.8v-3.84H216V341H208.6v19.35h-4.41Z" transform="translate(-104.42 -104.2)"/><path d="M321.51,341.05v-3.82h19.22V341h-7.44v19.34h-4.22V341.05Z" transform="translate(-104.42 -104.2)"/><path d="M275.51,296h4v19.24h10.13v4H275.51Z" transform="translate(-104.42 -104.2)"/><path d="M256.08,360.43h-4V337.24h4Z" transform="translate(-104.42 -104.2)"/><path d="M295.22,381.21q4.15,4.95,8.29,9.92l.65-.07c0-2.5-.06-5,0-7.51a7.57,7.57,0,0,1,.75-2.1,6.81,6.81,0,0,1,.87,2.17,73.33,73.33,0,0,1-.54,12c-2.82-3.35-5.63-6.7-9-10.7,0,3.19.07,5.69,0,8.19a7.21,7.21,0,0,1-.87,2.19,6.55,6.55,0,0,1-.78-2c-.07-4,0-8,0-11.92Z" transform="translate(-104.42 -104.2)"/><path d="M271.77,388.34a7.14,7.14,0,0,1,7.35-7.2,7.26,7.26,0,0,1-.11,14.51A7.13,7.13,0,0,1,271.77,388.34Zm12.76,0a5.51,5.51,0,0,0-5.65-5.72,5.79,5.79,0,0,0,.11,11.57A5.55,5.55,0,0,0,284.53,388.33Z" transform="translate(-104.42 -104.2)"/><path d="M223.7,388.36a7.12,7.12,0,0,1-7.25,7.29,7.26,7.26,0,0,1-.07-14.51A7.13,7.13,0,0,1,223.7,388.36Zm-12.73.09a5.53,5.53,0,0,0,5.66,5.73,5.79,5.79,0,0,0-.13-11.56A5.49,5.49,0,0,0,211,388.45Z" transform="translate(-104.42 -104.2)"/><path d="M252.67,381.72c4.75-1.07,8.79,0,10.52,2.76a7,7,0,0,1,0,7.8c-1.74,2.82-5.73,3.86-10.51,2.8Zm1.68,1.28v10.89c3,.16,5.75.22,7.45-2.59a5.31,5.31,0,0,0-.19-6.14C259.81,382.64,257.16,382.65,254.35,383Z" transform="translate(-104.42 -104.2)"/><path d="M233.69,384.84c0,3.51,0,6.22,0,8.93,0,.54-.46,1.06-.7,1.58-.27-.5-.77-1-.78-1.5a91.66,91.66,0,0,1,.5-12.71l9,10.8V381.38c1.71.7,2.26,9.07,1.2,14.42Z" transform="translate(-104.42 -104.2)"/><path d="M196,393.83l6.55.32,0,.9h-8.1c0-4.08,0-8.29,0-12.51,0-.37.46-.73.71-1.09.29.41.81.8.82,1.21.07,2.75,0,5.5,0,8.26Z" transform="translate(-104.42 -104.2)"/></svg>