<svg id="Слой_1" data-name="Слой 1" xmlns="http://www.w3.org/2000/svg" viewBox="0 0 274.11 86.84"><defs><style>.cls-1,.cls-3{fill:#1d1d1b;}.cls-2{fill:none;stroke:#1d1d1b;stroke-miterlimit:10;stroke-width:5px;}.cls-3{fill-rule:evenodd;}</style></defs><title>dandy</title><path class="cls-1" d="M206.39,82.08a34.49,34.49,0,0,1-8.58,23.51q-8.58,9.64-20.54,9.66h-22V48.82h22q12,0,20.54,9.81a34.4,34.4,0,0,1,8.58,23.45m-8.53,0a24.44,24.44,0,0,0-6.07-16.64q-6.07-7-14.51-7H163.76v47.21h13.52q8.43,0,14.51-7A24.43,24.43,0,0,0,197.86,82" transform="translate(-152.73 -46.32)"/><path class="cls-2" d="M206.39,82.08a34.49,34.49,0,0,1-8.58,23.51q-8.58,9.64-20.54,9.66h-22V48.82h22q12,0,20.54,9.81A34.4,34.4,0,0,1,206.39,82.08Zm-8.53,0a24.44,24.44,0,0,0-6.07-16.64q-6.07-7-14.51-7H163.76v47.21h13.52q8.43,0,14.51-7A24.43,24.43,0,0,0,197.86,82Z" transform="translate(-152.73 -46.32)"/><path class="cls-1" d="M252.27,115.25l-3.91-12H221.17l-3.91,12h-8.91l21.07-66.43H240.2l21.19,66.43ZM234.79,60.43l-10.58,33h21.11Z" transform="translate(-152.73 -46.32)"/><path class="cls-2" d="M252.27,115.25l-3.91-12H221.17l-3.91,12h-8.91l21.07-66.43H240.2l21.19,66.43ZM234.79,60.43l-10.58,33h21.11Z" transform="translate(-152.73 -46.32)"/><polygon class="cls-1" points="149.93 68.92 122.61 21.01 122.61 68.92 114.08 68.92 114.08 2.5 122.23 2.5 149.59 50.56 149.59 2.5 158.12 2.5 158.12 68.92 149.93 68.92"/><polygon class="cls-2" points="149.93 68.92 122.61 21.01 122.61 68.92 114.08 68.92 114.08 2.5 122.23 2.5 149.59 50.56 149.59 2.5 158.12 2.5 158.12 68.92 149.93 68.92"/><path class="cls-1" d="M374.8,82.08a34.45,34.45,0,0,1-8.59,23.51q-8.58,9.64-20.54,9.66h-22V48.82h22q12,0,20.54,9.81a34.36,34.36,0,0,1,8.59,23.45m-8.54,0a24.44,24.44,0,0,0-6.07-16.64q-6.07-7-14.51-7H332.17v47.21h13.51q8.44,0,14.51-7A24.43,24.43,0,0,0,366.26,82" transform="translate(-152.73 -46.32)"/><path class="cls-2" d="M374.8,82.08a34.45,34.45,0,0,1-8.59,23.51q-8.58,9.64-20.54,9.66h-22V48.82h22q12,0,20.54,9.81A34.36,34.36,0,0,1,374.8,82.08Zm-8.54,0a24.44,24.44,0,0,0-6.07-16.64q-6.07-7-14.51-7H332.17v47.21h13.51q8.44,0,14.51-7A24.43,24.43,0,0,0,366.26,82Z" transform="translate(-152.73 -46.32)"/><polygon class="cls-1" points="250.13 37.23 250.13 68.92 241.59 68.92 241.59 37.23 221.94 2.5 231.94 2.5 245.8 26.86 259.71 2.5 269.82 2.5 250.13 37.23"/><polygon class="cls-2" points="250.13 37.23 250.13 68.92 241.59 68.92 241.59 37.23 221.94 2.5 231.94 2.5 245.8 26.86 259.71 2.5 269.82 2.5 250.13 37.23"/><path class="cls-3" d="M170.59,123.75c2.27.58,4.72,1.35,7.63,1.93a139.15,139.15,0,0,0,29.25,2.21,167.23,167.23,0,0,0,38-5,109.84,109.84,0,0,1,17.58-3.06c7.34-.62,14.53,2.57,21.47,3.54a8.67,8.67,0,0,0,1.83,0c9.86-1.33,19.59-4.3,28.81-2.65,5.06.9,9.67,2,14.39,3.06a160.37,160.37,0,0,0,25.83,3.71c14.13.82,27.49.34,39.32-2.22,2.12-.46,3.9-1,6-1.64-1.46.76-2.62,1.5-4.2,2.17-8.94,3.81-20.92,6.35-37,7.1a221.67,221.67,0,0,1-27.61-.71c-8.27-.62-15.55-1.85-23.11-2.92a172.56,172.56,0,0,0-21.59-1.74c-4.31-.07-8.75.24-13.05.51-7.44.46-14.08,1.51-20.69,2.54-6.23,1-12.92,1.53-19.74,2-5.79.39-11.66.62-17.63.46-12.88-.33-24.09-1.69-33.29-4.37a52.58,52.58,0,0,1-12.27-5" transform="translate(-152.73 -46.32)"/></svg>