<svg id="Слой_1" data-name="Слой 1" xmlns="http://www.w3.org/2000/svg" xmlns:xlink="http://www.w3.org/1999/xlink" viewBox="0 0 436.99 153.35"><defs><style>.cls-1{fill:none;}.cls-2{clip-path:url(#clip-path);}.cls-3{fill:#020202;}.cls-4{clip-path:url(#clip-path-2);}</style><clipPath id="clip-path" transform="translate(-32.58 -171.86)"><rect class="cls-1" x="32.58" y="171.86" width="436.98" height="153.35"/></clipPath><clipPath id="clip-path-2" transform="translate(-32.58 -171.86)"><rect class="cls-1" x="26.03" y="154.24" width="447.93" height="191.51"/></clipPath></defs><title>Безымянный-1</title><g class="cls-2"><path class="cls-3" d="M285.59,297.33a30.09,30.09,0,0,1-2,4.29,42.27,42.27,0,0,1-4.6,6.06c-8.86,9.13-22.45,12.47-30.14,12.43A46.35,46.35,0,0,1,233.9,318a45.8,45.8,0,0,1-8.49-4.32,42.53,42.53,0,0,1-12.51-13.39c-.58-1-1.11-2-1.59-2.94h-4.4c.5,1.13,1.06,2.3,1.71,3.51a41.85,41.85,0,0,0,7,9.83l.31.32c.34.36.68.71,1,1.06.55.53,1.11,1,1.66,1.54l.24.2a46.7,46.7,0,0,0,22.25,10.71h0c.95.18,1.91.32,2.87.43a40.35,40.35,0,0,0,5.59.26c14.31.09,34.53-5.05,46.2-27.87Z" transform="translate(-32.58 -171.86)"/></g><g class="cls-4"><path class="cls-3" d="M251.46,229.92a127.78,127.78,0,0,1,24,20.05,49.53,49.53,0,0,1,9.75,16.39h16.62c-1.91-17.85-12.1-30.49-13.61-32.41h0c-.43-.58-.86-1.16-1.32-1.72-8.31-10.32-18.36-15.71-28.09-20.93-3.67-2-7.47-4-11.05-6.27-9-5.63-8.9-12.79-8.87-16.64,0-.33,0-.63,0-.92a11.48,11.48,0,0,1,3.43-8.35c3.78-3.82,9.46-5.18,13.17-5.18,8.59,0,18.79,7.79,21.33,20.87h2.18v-21h-2.47l-4.16,3.54-.51.43-.56-.37c-5.64-3.72-10.73-5.53-15.57-5.53a24.68,24.68,0,0,0-24.42,24.88v.1l0,.11s-1,4.3,1,10.44c3.32,10.32,12.3,18,19.25,22.53" transform="translate(-32.58 -171.86)"/><path class="cls-3" d="M100.42,289.92h-3V272.57h6.5c2.76,0,4.43,2.15,4.43,5.56,0,1.57-.72,5.53-4.54,5.53h-3.41Zm2.75-9.26c2.22,0,2.22-1.93,2.22-2.7,0-1.7-.77-2.4-2.61-2.4h-2.36v5.1Z" transform="translate(-32.58 -171.86)"/><path class="cls-3" d="M122.76,272.57H130c3.79,0,4.49,3.4,4.49,4.9,0,1.91-.8,3.56-2.21,4.14,1.17.62,1.81,1.16,1.81,4.4,0,2.53,0,3.16.63,3.45v.46h-3.29a13.92,13.92,0,0,1-.31-3.5c0-2.37-.12-3.29-2.33-3.29h-3.07v6.79h-2.91Zm6.4,7.63c1.55,0,2.3-.65,2.3-2.36a2,2,0,0,0-2.08-2.28h-3.71v4.64Z" transform="translate(-32.58 -171.86)"/><path class="cls-3" d="M155,272.11c1.88,0,6.84,1,6.84,9.13s-5,9.14-6.84,9.14-6.84-1-6.84-9.14,5-9.13,6.84-9.13m0,15.2c1.6,0,3.86-1.21,3.86-6.07s-2.26-6.06-3.86-6.06-3.87,1.21-3.87,6.06,2.26,6.07,3.87,6.07" transform="translate(-32.58 -171.86)"/><polygon class="cls-3" points="146.71 118.06 143.74 118.06 143.74 100.7 153.87 100.7 153.87 103.77 146.71 103.77 146.71 107.69 152.98 107.69 152.98 110.76 146.71 110.76 146.71 118.06"/><polygon class="cls-3" points="178.41 103.78 170.85 103.78 170.85 107.42 177.8 107.42 177.8 110.5 170.85 110.5 170.85 114.99 178.75 114.99 178.75 118.06 167.94 118.06 167.94 100.7 178.41 100.7 178.41 103.78"/><path class="cls-3" d="M228,284.58a2.67,2.67,0,0,0,3,2.8c1.41,0,3-.41,3-2.25,0-1.35-1.08-1.71-2.58-2.15l-1.53-.43c-2.3-.65-4.52-1.28-4.52-5.1,0-1.94.85-5.34,5.47-5.34,4.36,0,5.53,3.48,5.55,5.6h-2.85a2.59,2.59,0,0,0-2.92-2.61c-1.13,0-2.47.51-2.47,2.08a1.7,1.7,0,0,0,1.5,1.81l3.47,1c1.94.58,3.73,1.55,3.73,4.67,0,5.22-4.36,5.68-5.61,5.68-5.2,0-6.09-3.65-6.09-5.8Z" transform="translate(-32.58 -171.86)"/><path class="cls-3" d="M253.27,284.58a2.68,2.68,0,0,0,3,2.8c1.4,0,3-.41,3-2.25,0-1.35-1.07-1.71-2.58-2.15l-1.52-.43c-2.31-.65-4.52-1.28-4.52-5.1,0-1.94.85-5.34,5.47-5.34,4.36,0,5.53,3.48,5.55,5.6H258.8a2.58,2.58,0,0,0-2.91-2.61c-1.13,0-2.48.51-2.48,2.08a1.7,1.7,0,0,0,1.51,1.81l3.47,1c1.94.58,3.73,1.55,3.73,4.67,0,5.22-4.37,5.68-5.62,5.68-5.19,0-6.08-3.65-6.08-5.8Z" transform="translate(-32.58 -171.86)"/><rect class="cls-3" x="243.65" y="100.7" width="2.97" height="17.36"/><path class="cls-3" d="M300.27,272.11c1.89,0,6.84,1,6.84,9.13s-4.95,9.14-6.84,9.14-6.84-1-6.84-9.14,5-9.13,6.84-9.13m0,15.2c1.61,0,3.87-1.21,3.87-6.07s-2.26-6.06-3.87-6.06-3.86,1.21-3.86,6.06,2.26,6.07,3.86,6.07" transform="translate(-32.58 -171.86)"/><polygon class="cls-3" points="297.69 100.7 300.46 100.7 300.46 118.06 297.49 118.06 291.68 105.69 291.64 105.69 291.64 118.06 288.86 118.06 288.86 100.7 292 100.7 297.65 112.79 297.69 112.79 297.69 100.7"/><path class="cls-3" d="M350,289.92h-3.14L352,272.57h3.43l5,17.35h-3.23l-.92-3.58H351Zm1.78-6.57h3.63l-1.76-6.87h0Z" transform="translate(-32.58 -171.86)"/><polygon class="cls-3" points="344.79 114.92 351.86 114.92 351.86 118.06 341.81 118.06 341.81 100.7 344.79 100.7 344.79 114.92"/><path class="cls-3" d="M78.62,257.42A35.92,35.92,0,0,0,101,246.52c7.22-7.56,11-18.36,11-31.24a45.2,45.2,0,0,0-10.52-29.11c-6.85-8-15.94-12.38-25.58-12.38H32.58v2.07h8.94V256H32.58v2.09h34.1a117.24,117.24,0,0,0,11.94-.66M59.72,256V175.86h12.2c9.62,0,14.32,2.29,16.78,8.16.87,2,2.33,5.44,2.33,16.06v30.27a48.57,48.57,0,0,1-1.35,13C87.25,252,81.61,256,71.92,256H59.72Z" transform="translate(-32.58 -171.86)"/><polygon class="cls-3" points="108.08 4.9 108.08 4 108.98 4 118.07 4 118.07 1.94 81.08 1.94 81.08 4 88.99 4 89.88 4 89.88 4.9 89.88 83.23 89.88 84.13 88.99 84.13 81.08 84.13 81.08 86.22 118.07 86.22 118.07 84.13 108.98 84.13 108.08 84.13 108.08 83.23 108.08 4.9"/><polygon class="cls-3" points="152.39 4.9 152.39 4 153.28 4 162.63 4 162.63 1.94 125.26 1.94 125.26 4 133.3 4 134.19 4 134.19 4.9 134.19 83.23 134.19 84.13 133.3 84.13 125.03 84.13 125.03 86.22 162.38 86.22 162.38 84.13 153.28 84.13 152.39 84.13 152.39 83.23 152.39 4.9"/><path class="cls-3" d="M212.57,254.62l.85,1.37H203.08v2.09h40.08V256H235l-.26-.42-33.32-53.08-.36-.57.45-.5,20.69-23.31a5.34,5.34,0,0,1,4.6-2.25h7.8V173.8H207.47v2.06h4.94c2.07,0,5.54,0,5.54,2.6,0,.85-2.26,3.27-2.28,3.29l-24.26,27.18c-.32.34-.66.67-1,1-1.15,1.13-2.35,2.31-2.35,3.68s1,3.27,1.89,4.69Z" transform="translate(-32.58 -171.86)"/><path class="cls-3" d="M357.92,182.7c-7.5-6.69-17.34-10.84-25.67-10.84S314.18,176,306.7,182.7A42.13,42.13,0,0,0,292.45,215c0,25.22,17.48,45,39.8,45a37.55,37.55,0,0,0,28.48-13.1c7.38-8.39,11.45-19.71,11.45-31.86a42.11,42.11,0,0,0-14.26-32.33m-7.52,42.37c0,13.15-.18,21.48-2.6,26.43-2.63,5.34-7.9,6.42-15.55,6.42-17.39,0-18.05-6.27-18.05-32.85V203.44c0-23.16,3.88-29.5,18.05-29.5s18.15,6.34,18.15,29.5Z" transform="translate(-32.58 -171.86)"/><path class="cls-3" d="M445,175.86h4.1V173.8h-23.3v2.06h2.41c2.86,0,8.76,1.14,8.76,4.64v46.42l-1.64-2.51L402.1,173.8h-30v2.06h3c3.38,0,5,.38,6,1.38s1.08,2.82,1,5.34q0,1,0,2.16v63.65c0,3.24,0,7.28-5.12,7.6h-4.88v2.09h24.39V256h-6c-3.67-.31-5.46-2.17-5.46-5.67V181.26l1.64,2.47L437.34,260h1.36V180.5c0-3.83,3.4-4.64,6.25-4.64" transform="translate(-32.58 -171.86)"/><path class="cls-3" d="M462.28,172.08a6.94,6.94,0,0,1,5.2,2.19,7.33,7.33,0,0,1,1,8.86,7.24,7.24,0,0,1-2.71,2.62,7.4,7.4,0,0,1-3.54.91,6.94,6.94,0,0,1-5.2-2.18A7.3,7.3,0,0,1,458.73,173a7.33,7.33,0,0,1,3.55-.91m0,1.2a6.11,6.11,0,1,0,4.17,1.68,5.86,5.86,0,0,0-4.17-1.68m-3.21,10.12v-7.84h2.71a6.21,6.21,0,0,1,2,.21,2.07,2.07,0,0,1,1,.73,2,2,0,0,1,.39,1.18,2.07,2.07,0,0,1-.63,1.52,2.5,2.5,0,0,1-1.61.69,1.93,1.93,0,0,1,.7.45,9.87,9.87,0,0,1,1.14,1.53l.92,1.53h-1.53l-.7-1.23a6.62,6.62,0,0,0-1.29-1.81,1.56,1.56,0,0,0-1-.29h-.75v3.33Zm1.28-4.42h1.53a2.49,2.49,0,0,0,1.47-.31,1.11,1.11,0,0,0,.21-1.54,1.16,1.16,0,0,0-.55-.4,4.84,4.84,0,0,0-1.23-.11h-1.43Z" transform="translate(-32.58 -171.86)"/></g></svg>