<?xml version="1.0" encoding="utf-8"?>
<!-- Generator: Adobe Illustrator 24.0.1, SVG Export Plug-In . SVG Version: 6.00 Build 0)  -->
<svg version="1.1" id="Слой_1" xmlns="http://www.w3.org/2000/svg" xmlns:xlink="http://www.w3.org/1999/xlink" x="0px" y="0px"
	 viewBox="0 0 490.8 190.3" style="enable-background:new 0 0 490.8 190.3;" xml:space="preserve">
<g>
	<path d="M141.1,104.1c-2.7-0.7-5.3-1.4-8-2.1c-2.6-0.7-2.6-0.7-3.4,1.9c-7.3,22.4-30.1,36.6-53.5,32.8c-19.1-3.1-32-14.2-39-32.1
		c-0.4-1-0.4-1.9,0-3c2.8-8.4,7.7-15.4,14.4-21c13-10.9,27.9-14.2,44.3-10.1c1,0.2,1.5,0.2,1.8-1c0.8-3,1.6-6.1,2.7-9
		c0.5-1.5,0.1-1.9-1.3-2.2c-12-2.9-24-2.6-35.7,1.3c-7.5,2.5-14.3,6.5-20.3,11.7c-2.5,2.1-4.6,4.6-7.1,7.1c0-0.4-0.1-0.6-0.1-0.7
		c0-0.3,0.1-0.6,0.2-0.9c2.1-9.1,6.6-16.8,13.3-23.2c12-11.3,26.3-15.8,42.6-13c15,2.8,26.3,11.2,34.1,24.4c0.6,1,0.5,1.7,0,2.7
		c-6.4,11.1-15.7,18.7-27.8,22.7c-8.8,2.9-17.8,3-26.8,0.8c-0.9-0.2-2-0.8-2.2,0.8c-0.4,3.1-1.8,6-2.6,9c-0.4,1.3-0.2,1.9,1.3,2.3
		c8.9,2.2,17.9,2.4,26.9,0.9c6.7-1.1,13-3.5,18.9-6.9c12.1-6.9,20.8-16.9,26.5-29.7c0.4-1,0.3-1.8-0.1-2.7c-1.2-2.8-2.7-5.6-4.3-8.2
		C122.9,36,99.2,24,73.3,28.2c-27.5,4.5-49.3,27.3-51.2,57c-0.5,8,0.6,15.8,3.3,23.4c5.7,15.7,15.9,27.5,30.9,35
		c14.1,7,28.9,8.2,43.9,3.8c21.3-6.3,35.1-20.5,42-41.5C142.7,104.7,142.2,104.4,141.1,104.1z"/>
	<path d="M220.1,68.3c-0.9,0-1.2,0.4-1.6,1.1c-1.2,2.6-2.9,4.7-5.1,6.4c-10.4,8-29.5,5.1-32.7-12.6c-0.4-2.4-0.5-2.4,2-2.4
		c10.5,0,21,0,31.4,0c4.9,0,9.9,0,14.8,0c1.3,0,1.6-0.3,1.5-1.6c-0.1-2.2-0.2-4.5-0.6-6.7c-3.2-16.7-16.9-27.9-34.8-24.7
		c-20.7,3.6-31.6,25.8-22.4,45c6.6,13.8,22.2,20.6,37.3,16.1c10.3-3.1,16.7-10,19.8-20.6C226.3,68.3,223.2,68.4,220.1,68.3z
		 M181.9,49.4c3.4-7.5,9.3-11.4,17.4-11.8c6.9-0.4,12.8,1.8,16.6,7.9c0.7,1.2,1.2,2.5,1.8,3.8c0.6,1.5,0.4,2-1.3,2
		c-5.6-0.1-11.2,0-16.7,0l0,0c-5.5,0-11-0.1-16.6,0C181.3,51.3,181.3,50.7,181.9,49.4z"/>
	<path d="M378.3,48.3c-4.6-12.9-16.6-21-31.6-21c-1.7,0-4.1,0.1-6.5,0.5c-22.5,4.2-33.3,30.1-20,48.7c8.4,11.7,20.3,15.4,34.1,12.9
		C373.3,86,384.7,66.3,378.3,48.3z M347.3,79.9c-10.8,0.4-21.6-7.5-21.9-21.3c-0.2-11.7,9.6-21.2,21.6-21.1c12.6,0,22.1,9.1,22,21.1
		C369.1,70.8,359.7,79.9,347.3,79.9z"/>
	<path d="M302,68.3c-2.6,0-5.3,0-7.9,0c-0.8,0-1.4,0.1-1.8,1c-4.3,8.5-12.9,11.6-21.7,10.4c-10.4-1.4-19-10.7-18.1-22.7
		c0.7-8.8,6.3-16,14.9-18.6c8.8-2.6,18.6,0.1,23.2,7.3c2.1,3.2,4.2,3.9,7.4,3.5c0.1,0,0.3,0,0.4,0l0,0c1.5,0,3-0.1,4.4,0
		c1.2,0.1,1.3-0.3,0.9-1.3c-1.6-4.7-4.1-9-7.8-12.4c-11-10.3-28.8-11.2-41.7-2.1C239.2,44,237,66.9,249.8,80
		c10.9,11.2,27.7,13.5,41.2,5.6c6-3.5,10.1-8.6,12.5-15.1C304.2,68.4,304.2,68.3,302,68.3z"/>
	<path d="M203.6,141.1c-0.8-1-0.7-1.4,0.2-2.1c1.5-1.2,2.9-2.5,4.4-3.7c3.1-2.5,3.1-2.5,0.5-5.5c-2.8-3.2-2.7-3.1-5.9-0.6
		c-1.8,1.4-3.4,4.2-5.3,3.7c-1.8-0.5-2.9-3.3-4.4-5.1c-0.6-0.7-0.6-1.1,0.2-1.7c1.3-1,2.5-2,3.7-3.1c3.4-3.3,4.8-7.3,3.5-11.9
		c-1.6-6-7.6-9.2-14.4-8c-6.5,1.2-10.7,7.3-9.4,13.8c0.6,3,2.2,5.6,4.2,7.9c0.8,0.9,0.8,1.4-0.2,2.2c-2.8,2.2-5.8,4.4-7.9,7.3
		c-2.6,3.6-3.3,7.5-1.4,11.6c1.8,3.8,5.2,5.4,9.2,5.7c5.7,0.5,10.4-1.8,14.5-5.4c1.3-1.2,2.2-1.4,3.2,0.3c0.7,1.3,1.8,2.3,2.7,3.5
		c0.4,0.5,0.7,0.9,1.4,0.8c2.9,0,5.7,0,8.9,0c-0.3-0.5-0.4-0.7-0.5-0.8C208.3,147,206,144,203.6,141.1z M189.9,139.9
		c-1.3,0.8-2.4,1.9-3.7,2.8c-1.1,0.8-2.3,1.2-3.7,1.3c-2,0-3.5-1.7-3.3-3.8c0.2-1.8,1.2-3.2,2.5-4.4c1.5-1.3,3.1-3.5,4.6-3.5
		c1.6,0,2.5,2.8,3.9,4.1C191.7,137.9,191.6,138.9,189.9,139.9z M192.4,115.6c-0.6,2.4-2.5,3.6-4.2,5.1c-0.4,0.4-0.7,0.1-0.9-0.2
		c-1.4-1.8-2.9-3.5-2.7-6.1c0.2-2.2,1.9-3.9,4-3.8C191.3,110.6,193.1,113.1,192.4,115.6z"/>
	<path d="M333.6,118.8c-0.9-1.1-3-0.3-4.6-0.3c-3.8-0.1-3.8,0-4,3.6c0,0.3-0.1,0.6-0.1,0.8c-0.5,0.1-0.5-0.2-0.7-0.4
		c-5.4-6.3-14-6.6-19.8-0.8c-5.8,5.7-6.8,16.1-2.2,22.9c2.9,4.3,7,6.6,12.4,6.5c4.2,0,7.4-2.1,10.5-5.5c0,2.9,0.1,5.3,0,7.6
		c-0.1,2.2-0.9,2.9-3.2,2.9c-3.7,0-7.5,0-11.2,0c-1.8,0-4.1-0.8-5.2,0.3c-1.1,1.2-0.2,3.6-0.4,5.4c-0.1,1,0.3,1.3,1.3,1.3
		c6-0.1,11.9,0,17.9-0.1c6.3-0.2,9.4-3.4,9.5-9.6c0.1-10.1,0-20.1,0-30.2C333.8,121.7,334.4,119.7,333.6,118.8z M316.4,143.5
		c-4.5,0-8.1-3.9-8.1-8.8c0-4.7,3.7-8.8,8.1-8.9c5.1-0.1,8.7,3.7,8.8,8.9C325.1,139.8,321.4,143.5,316.4,143.5z"/>
	<path d="M259.6,127c-0.5-4.1-2.8-7.1-6.9-8.5c-6-2-11-0.3-15.5,4.6c0-5.5,0-10.4,0-15.4c0-3.8,0-3.9-3.8-3.8c-1.7,0-3.9-0.8-5,0.4
		c-1.1,1.1-0.3,3.3-0.3,5c0,13.2,0,26.5-0.1,39.7c0,1.5,0.4,2.1,1.9,1.9c1.9-0.1,3.7-0.1,5.6,0c1.4,0.1,1.7-0.4,1.7-1.7
		c-0.1-6.1,0-12.2,0-18.3c0-0.6-0.1-1.2,0.3-1.8c1.7-2.5,6-3.8,9.3-2.8c2.6,0.8,3.9,3,3.9,6.5c0,5.5,0,11,0,16.6
		c0,0.7-0.2,1.6,1.1,1.5c2.4-0.1,4.8,0,7.1,0c0.7,0,1.1-0.2,1-1C259.8,142.2,260.5,134.6,259.6,127z"/>
	<path d="M288.8,118.4c-1.6-0.1-2.2,0.4-2.5,2c-1.3,7.1-2.9,14.2-4.2,21.3c-0.2,1.3-0.8,1.6-2,1.6c-1.6,0.1-1.6-1-1.7-2
		c-1.4-7.2-2.9-14.3-4.3-21.5c-0.2-1.1-0.5-1.5-1.7-1.5c-2.1,0.1-4.2,0.1-6.4,0c-1,0-1.5,0.1-1.2,1.4c2.3,9.8,4.7,19.6,7,29.4
		c0.2,1,0.8,1.3,1.8,1.3c1.9-0.1,3.9,0,5.8,0c0.4,0,0.9-0.2,1,0.6c0.3,2.6-1.8,5.1-4.5,5.1c-2.1,0.1-4.2,0-6.3,0
		c0.9,7.4,0.9,7.4,8,7c0.3,0,0.6,0,1,0c4.3-0.3,7.2-2.3,8.3-6.4c1.9-7.2,3.6-14.4,5.4-21.6c1.3-5.5,2.6-11,4-16.6
		C293.5,118.4,291.1,118.6,288.8,118.4z"/>
	<path d="M469.3,136c0.9,0,1.4-0.1,1.4-1.2c-0.2-9.4-7.3-19-19.6-16.9c-9,1.5-14.6,9.1-13.8,18.4c0.7,8.8,7.6,15.2,16.7,15.4
		c7.5,0.2,14.1-4.3,16.1-10.8c0.4-1.2,0.1-1.5-1-1.5c-1.5,0-3,0.1-4.4-0.1c-1.5-0.1-2.4,0.3-3.4,1.5c-2.3,2.9-5.5,3.6-9,2.9
		c-3.3-0.7-5.4-2.8-6.4-6c-0.4-1.3-0.4-1.9,1.3-1.9c3.7,0.1,7.3,0,11,0l0,0C461.7,136,465.5,136,469.3,136z M453.8,130.8
		L453.8,130.8c-2.2,0-4.5,0-6.7,0c-0.9,0-1.4-0.1-0.8-1.2c1.7-3.1,4.3-4.5,7.7-4.6c3.2-0.1,5.7,1.1,7.3,4c0.6,1.1,0.8,1.8-0.9,1.7
		C458.1,130.7,455.9,130.8,453.8,130.8z"/>
	<path d="M367.5,119.3c-7.3,3.6-10.9,11.8-8.7,20.2c2,7.5,9.1,12.6,17.1,12.1c7.4-0.4,13.1-4.6,15-10.9c0.3-1.1,0.1-1.4-0.9-1.4
		c-1.7,0-3.3,0.1-5,0c-1.2-0.1-2,0.3-2.7,1.3c-2.3,3-5.5,3.8-9.1,3.1c-3.5-0.6-5.5-3-6.7-6.2c-0.4-1.1-0.2-1.6,1.1-1.6
		c3.8,0.1,7.6,0,11.4,0l0,0c3.8,0,7.6,0,11.4,0c0.7,0,1.3,0.2,1.3-1C391.8,122,378.9,113.7,367.5,119.3z M381.3,130.8
		c-2.2-0.1-4.4,0-6.5,0c-2.3,0-4.6,0-6.9,0c-0.9,0-1.2-0.2-0.7-1.1c1.7-3.2,4.4-4.6,7.8-4.7c3.2-0.1,5.7,1.3,7.3,4.1
		C382.9,130.3,382.9,130.9,381.3,130.8z"/>
	<path d="M429.9,125.3c-1.9-6.1-8.2-9.1-14.7-7c-2.8,0.9-5,2.7-7.3,5.2c0-1.6-0.1-2.6,0-3.7s-0.4-1.3-1.3-1.3
		c-2.1,0.1-4.2,0.1-6.4,0c-1,0-1.4,0.2-1.4,1.3c0,9.9,0,19.9,0,29.8c0,1,0.4,1.3,1.4,1.3c2.1-0.1,4.1-0.1,6.2,0
		c1.3,0.1,1.6-0.3,1.6-1.6c-0.1-5.6,0.2-11.2-0.1-16.7c-0.2-3.1,1.3-4.7,3.7-5.8c4.4-2.1,9.6-0.9,10,5.3c0.1,0.8,0.1,1.7,0.1,2.5
		c0,4.8,0,9.6,0,14.4c0,1.3,0.1,2,1.7,1.9c2-0.1,4-0.1,6,0c1.1,0,1.4-0.3,1.4-1.4c-0.1-6.6,0-13.2-0.1-19.8
		C430.5,128.2,430.3,126.6,429.9,125.3z"/>
	<path d="M351.1,134.6L351.1,134.6c0-4.9-0.1-9.7,0-14.6c0-1.3-0.4-1.6-1.6-1.6c-2,0.1-4.1,0.1-6.2,0c-1,0-1.5,0.1-1.5,1.3
		c0,9.9,0,19.9,0,29.8c0,1.1,0.4,1.3,1.4,1.3c2.1,0,4.2-0.1,6.4,0c1.3,0.1,1.6-0.4,1.6-1.6C351,144.4,351.1,139.5,351.1,134.6z"/>
	<path d="M415.9,39.6c0-7-5.3-12.4-12.2-12.4c-6.8,0-12.3,5.4-12.3,12.3c0,7,5.4,12.6,12.1,12.5C410.5,52,415.9,46.6,415.9,39.6z
		 M393.9,39.6c0-5.6,4.3-9.9,9.8-9.9s10,4.5,9.9,9.9c-0.1,5.5-4.6,10-10.1,9.9C398.1,49.4,393.8,45,393.9,39.6z"/>
	<path d="M351,109.2c0-2.1,0.6-3.9-0.1-4.9c-0.8-1.2-2.8-0.4-4.3-0.4s-3.5-0.7-4.4,0.3s-0.3,2.9-0.3,4.4s-0.5,3.4,0.2,4.3
		c0.9,1.1,2.9,0.3,4.4,0.4s3.4,0.5,4.3-0.2C351.8,112.1,350.9,110.1,351,109.2z"/>
	<path d="M407.6,40.2c1.8-1.3,2-3.2,1.4-5.2c-0.6-1.9-2.2-2.8-4.1-2.9c-1.5-0.1-3,0-4.4-0.1c-0.9,0-1.2,0.3-1.2,1.2
		c0,2.1,0,4.1,0,6.2l0,0c0,2.1,0,4.2,0,6.3c0,0.8,0.2,1.1,1.1,1.2c1,0.1,1-0.4,1-1.1c0-0.9-0.1-1.8,0-2.7c0.1-0.6-0.4-1.6,0.7-1.7
		c1,0,2.3-0.7,2.9,1c0.4,1.3,1.2,2.6,1.7,3.8c0.5,1.1,1.5,0.8,2.2,0.5c0.9-0.4,0-1-0.2-1.4c-0.4-1-0.8-2-1.4-3
		C406.7,41.6,406.6,40.9,407.6,40.2z M402.8,39.3c-2.4,0.1-1.4-1.5-1.7-2.5c0.3-1-0.7-2.7,1.7-2.5c3,0.2,4.1,0.7,4.1,2.5
		C407,38.6,405.9,39.1,402.8,39.3z"/>
</g>
</svg>
