<svg id="Слой_1" data-name="Слой 1" xmlns="http://www.w3.org/2000/svg" viewBox="0 0 428.94 91.34"><defs><style>.cls-1{fill:#1d1d1b;}</style></defs><title>feetcalm</title><path class="cls-1" d="M194.69,250.68h-37.2a12.89,12.89,0,0,0,5.1,8.3A16.77,16.77,0,0,0,172.85,262a17.28,17.28,0,0,0,12.87-5.15l5.95,6.84a20,20,0,0,1-8.08,5.77,32,32,0,0,1-24.77-1.16,22.32,22.32,0,0,1-9.19-8.65,24.46,24.46,0,0,1-3.24-12.56,24.83,24.83,0,0,1,3.15-12.48,22.41,22.41,0,0,1,8.75-8.66,25.53,25.53,0,0,1,12.61-3.1A24.89,24.89,0,0,1,183.28,226a21.65,21.65,0,0,1,8.52,8.61,26,26,0,0,1,3.07,12.83c0,.77-.06,1.87-.18,3.29m-32.81-15.76a13.27,13.27,0,0,0-4.48,8.39h26.9A13.07,13.07,0,0,0,180,235a13.24,13.24,0,0,0-9-3.19,13.4,13.4,0,0,0-9,3.15" transform="translate(-35.53 -204.33)"/><path class="cls-1" d="M247,250.68h-37.2a12.86,12.86,0,0,0,5.11,8.3A16.73,16.73,0,0,0,225.13,262,17.28,17.28,0,0,0,238,256.89l5.95,6.84a20,20,0,0,1-8.08,5.77,32,32,0,0,1-24.77-1.16,22.38,22.38,0,0,1-9.19-8.65,24.46,24.46,0,0,1-3.24-12.56,24.83,24.83,0,0,1,3.15-12.48,22.41,22.41,0,0,1,8.75-8.66,25.53,25.53,0,0,1,12.61-3.1A24.89,24.89,0,0,1,235.56,226a21.74,21.74,0,0,1,8.53,8.61,26.15,26.15,0,0,1,3.06,12.83c0,.77-.06,1.87-.18,3.29m-32.8-15.76a13.28,13.28,0,0,0-4.49,8.39h26.9a13.07,13.07,0,0,0-4.35-8.35,13.2,13.2,0,0,0-9-3.19,13.38,13.38,0,0,0-9,3.15" transform="translate(-35.53 -204.33)"/><path class="cls-1" d="M105.59,213H73.17c3.82,9.25,9.12,20.92,11.09,24.92a106.22,106.22,0,0,1,4.52,10.63,1.17,1.17,0,0,0,0,.11h0A12.36,12.36,0,0,0,90.33,252a17.43,17.43,0,0,0,7.84,5.63,26,26,0,0,0,4.59,1.15c1,.15.48,2.6-.69,3.78s-3.51,1.21-6.62,1.22a13.79,13.79,0,0,1-8.76-2.31,28.27,28.27,0,0,1-6.37-5.42v0a79,79,0,0,0-6.43-6.5c-4.27-3.48-6.51-3-11.63-4.86a8.71,8.71,0,0,1-6-7.95c.13-7.12,5.39-8,4.18-12.24-.34-1.2-2.56-6.55-4.71-11.58H38.51c-2.61,0-3.72,1.87-2.46,4.16l27.2,49.5a27.88,27.88,0,0,0,2.55,4.16h39.79a4.75,4.75,0,0,0,4.75-4.75V217.71a4.76,4.76,0,0,0-4.75-4.75" transform="translate(-35.53 -204.33)"/><path class="cls-1" d="M147.41,223.77h-9.6v-2.84q0-7.63,7-7.63a10.58,10.58,0,0,1,5.63,1.63l2.91-8.46a18,18,0,0,0-9.34-2.14q-8.09,0-12.52,4.4t-4.44,12v3h-7.81v8.88h7.81v38.18h11.1V232.65h6.19Z" transform="translate(-35.53 -204.33)"/><path class="cls-1" d="M134.45,291.43A2.4,2.4,0,0,1,135,293a2.23,2.23,0,0,1-.92,1.91,4.61,4.61,0,0,1-2.71.67H126.9v-9.65h4.17a4.22,4.22,0,0,1,2.5.64,2.16,2.16,0,0,1,.89,1.84,2.23,2.23,0,0,1-.4,1.35,2.28,2.28,0,0,1-1.08.84,2.57,2.57,0,0,1,1.47.82m-6.53-4.65v3.5H131a3.07,3.07,0,0,0,1.8-.45,1.64,1.64,0,0,0,0-2.6,3.07,3.07,0,0,0-1.8-.45Zm5.36,7.52a1.51,1.51,0,0,0,.67-1.37c0-1.21-.88-1.81-2.62-1.81h-3.41v3.63h3.41a3.47,3.47,0,0,0,1.95-.45" transform="translate(-35.53 -204.33)"/><path class="cls-1" d="M151.35,293H146l-1.16,2.58h-1.06l4.41-9.65h1l4.41,9.65H152.5Zm-.38-.83L148.66,287l-2.32,5.18Z" transform="translate(-35.53 -204.33)"/><path class="cls-1" d="M169.76,295.59l-2.2-3.11a6.49,6.49,0,0,1-.77,0h-2.6v3.06h-1v-9.65h3.62a4.34,4.34,0,0,1,2.89.88,3,3,0,0,1,1,2.42,3.14,3.14,0,0,1-.57,1.91,3.18,3.18,0,0,1-1.64,1.13l2.36,3.31ZM169,291a2.48,2.48,0,0,0,0-3.57,3.33,3.33,0,0,0-2.19-.63h-2.57v4.84h2.57A3.27,3.27,0,0,0,169,291" transform="translate(-35.53 -204.33)"/><path class="cls-1" d="M182.75,295a4.71,4.71,0,0,1-1.81-1.76,4.89,4.89,0,0,1-.66-2.52,4.83,4.83,0,0,1,.66-2.51,4.64,4.64,0,0,1,1.81-1.76,5.24,5.24,0,0,1,2.59-.64,5.38,5.38,0,0,1,2,.36,4.06,4.06,0,0,1,1.54,1.05l-.65.65a3.81,3.81,0,0,0-2.85-1.15,4.18,4.18,0,0,0-2.08.53,3.81,3.81,0,0,0-1.47,1.43,4.19,4.19,0,0,0,0,4.08,3.74,3.74,0,0,0,1.47,1.43,4.18,4.18,0,0,0,2.08.53,3.78,3.78,0,0,0,2.85-1.16l.65.65a4.1,4.1,0,0,1-1.55,1.05,5.18,5.18,0,0,1-2,.37,5.24,5.24,0,0,1-2.58-.63" transform="translate(-35.53 -204.33)"/><polygon class="cls-1" points="170.34 90.37 170.34 91.26 163.52 91.26 163.52 81.61 170.14 81.61 170.14 82.49 164.54 82.49 164.54 85.92 169.53 85.92 169.53 86.79 164.54 86.79 164.54 90.37 170.34 90.37"/><polygon class="cls-1" points="180.74 81.61 181.76 81.61 181.76 90.37 187.16 90.37 187.16 91.25 180.74 91.25 180.74 81.61"/><path class="cls-1" d="M233.81,295a4.81,4.81,0,0,1-1.82-1.76,5.17,5.17,0,0,1,0-5,4.81,4.81,0,0,1,1.82-1.76,5.41,5.41,0,0,1,2.6-.64,5.21,5.21,0,0,1,2.59.64,4.71,4.71,0,0,1,1.81,1.76,4.83,4.83,0,0,1,.66,2.51,4.89,4.89,0,0,1-.66,2.52A4.78,4.78,0,0,1,239,295a5.62,5.62,0,0,1-5.19,0m4.67-.79a3.69,3.69,0,0,0,1.45-1.43,4,4,0,0,0,.52-2.05,4.09,4.09,0,0,0-.52-2.05,3.69,3.69,0,0,0-1.45-1.43,4.38,4.38,0,0,0-4.14,0,3.72,3.72,0,0,0-1.46,1.43,4,4,0,0,0-.54,2.05,4,4,0,0,0,.54,2.05,3.72,3.72,0,0,0,1.46,1.43,4.38,4.38,0,0,0,4.14,0" transform="translate(-35.53 -204.33)"/><polygon class="cls-1" points="224.29 81.61 224.29 91.25 223.45 91.25 217.25 83.42 217.25 91.25 216.23 91.25 216.23 81.61 217.07 81.61 223.28 89.44 223.28 81.61 224.29 81.61"/><path class="cls-1" d="M277,293h-5.37l-1.16,2.58h-1.06l4.41-9.65h1l4.41,9.65h-1.08Zm-.37-.83L274.32,287,272,292.18Z" transform="translate(-35.53 -204.33)"/><path class="cls-1" d="M359,228.66q4.39,4.26,4.39,12.34v29.83h-2.84V261.6a16.39,16.39,0,0,1-6.61,7,20.86,20.86,0,0,1-10.53,2.53q-7.72,0-12.11-3.55a12.32,12.32,0,0,1-.4-18.52q4-3.5,12.78-3.5h16.78V241q0-6.84-3.6-10.39t-10.61-3.55a24.5,24.5,0,0,0-9.14,1.69,22.6,22.6,0,0,0-7.28,4.52l-1.6-2.13a23.84,23.84,0,0,1,8.13-5,28.31,28.31,0,0,1,10-1.77q8.26,0,12.66,4.26m1.46,28.85v-9.59H343.65q-7.18,0-10.52,2.71A9,9,0,0,0,329.8,258a9.31,9.31,0,0,0,3.69,7.81q3.67,2.85,10.07,2.84,12.44,0,16.87-11.1" transform="translate(-35.53 -204.33)"/><rect class="cls-1" x="338.92" y="0.62" width="2.93" height="65.88"/><path class="cls-1" d="M459.63,229.37q4.85,5,4.84,14.38v27.08h-2.93v-26.9c0-5.45-1.33-9.6-4-12.48s-6.46-4.3-11.37-4.3q-8.25,0-13.14,5.15T428.16,246v24.86h-2.93v-26.9c0-5.45-1.33-9.6-4-12.48s-6.42-4.3-11.27-4.3q-8.35,0-13.19,5.1T391.93,246v24.86H389V224.75h2.84v11.1a17.47,17.47,0,0,1,6.88-8.39,20.65,20.65,0,0,1,11.41-3.06,18.93,18.93,0,0,1,11.19,3.19,15.46,15.46,0,0,1,6,9.32,18.06,18.06,0,0,1,7-9.14,20.84,20.84,0,0,1,12-3.37q8.43,0,13.27,5" transform="translate(-35.53 -204.33)"/><path class="cls-1" d="M293.31,268.12a21.31,21.31,0,0,1-8.17-8.3,26,26,0,0,1,0-24.15,21.31,21.31,0,0,1,8.17-8.3,23.25,23.25,0,0,1,11.76-3,23.64,23.64,0,0,1,9.72,2,18,18,0,0,1,7.33,5.91l-2.22,1.86a15.93,15.93,0,0,0-6.35-5.24,21.29,21.29,0,0,0-18.73.85,18.54,18.54,0,0,0-7.15,7.28,21.72,21.72,0,0,0-2.58,10.7,22,22,0,0,0,2.58,10.74,18.45,18.45,0,0,0,7.15,7.32,21.29,21.29,0,0,0,18.73.85,15.93,15.93,0,0,0,6.35-5.24l2.22,1.77a17.9,17.9,0,0,1-7.33,5.91,23.65,23.65,0,0,1-9.72,2,23.16,23.16,0,0,1-11.76-3" transform="translate(-35.53 -204.33)"/><path class="cls-1" d="M277.55,261.72a11.09,11.09,0,0,1-3.7.59,6.33,6.33,0,0,1-4.88-1.82,7.49,7.49,0,0,1-1.69-5.28V232.65h7.41l3.06-8.88H267.28V212.94H256.19v10.83h-7.82v8.88h7.82v22.82q0,7.82,4.26,11.9t12.07,4.08a21.78,21.78,0,0,0,5-.58Z" transform="translate(-35.53 -204.33)"/></svg>