<svg id="Слой_1" data-name="Слой 1" xmlns="http://www.w3.org/2000/svg" viewBox="0 0 402.1 119.93"><title>frutti</title><path d="M440.65,217h10.4v65.19h-10.4Zm0-27h10.4v12.32h-10.4Zm-59.86,27h42.89v8.79h-43v34.24q0,8,3.47,10.94T400,274c6.7,0,11.16-.83,13.44-2.47s3.41-5.22,3.41-10.72v-8.34h9v8.34c0,8.27-2.07,14-6.21,17.35s-11.5,4.95-22,4.95a48.24,48.24,0,0,1-13.47-1.55,20,20,0,0,1-8.64-4.9,13.72,13.72,0,0,1-3.59-5.85q-1-3.36-1.06-11.41V225.81h-14V217h14V202.1h10Zm-74.05,0h42.9v8.79h-43v34.24q0,8,3.46,10.94t15.85,3c6.7,0,11.16-.83,13.44-2.47s3.4-5.22,3.4-10.72v-8.34h9v8.34c0,8.27-2.07,14-6.21,17.35s-11.49,4.95-22,4.95a48.21,48.21,0,0,1-13.46-1.55,20,20,0,0,1-8.64-4.9,13.74,13.74,0,0,1-3.6-5.85q-1.05-3.36-1.05-11.41V225.81h-14V217h14V202.1h10Zm-35,0v65.19h-9.91V269.89A22.2,22.2,0,0,1,251,280.08q-7,3-20.68,3c-13.82,0-23.61-1.8-29.31-5.39s-8.59-9.66-8.59-18.19V217h10.27v39.3a28,28,0,0,0,1,8.65,9.42,9.42,0,0,0,3.31,4.43c1.86,1.36,4.86,2.37,9,3.07a104.46,104.46,0,0,0,16.12,1q15.22,0,22.19-3.8t7-12.05V217ZM111.59,282.21V217.69h10v9.6a18,18,0,0,1,9-8.62q5.83-2.5,18.16-2.52,16.51,0,23.22,4.93t6.68,16.75v8.6H169v-6.06c0-5.83-1.52-9.7-4.54-11.65s-9.15-2.91-18.3-2.91q-12.64,0-18.36,3.78c-3.83,2.52-5.73,6.58-5.73,12.2v40.42Zm-49,0V226.29H49V217H62.62v-4.65c0-7.75,1.91-13.42,5.69-17S78.16,190,86.46,190h16.59v9.41H86.82q-7.6,0-10.78,2.53c-2.09,1.69-3.15,4.53-3.15,8.48V217h30.16v9.27H72.89v55.92Z" transform="translate(-48.95 -190.03)"/><path d="M364.91,309.73h-7.22V295.81h1.62v12.45h5.6Zm-21.81-5.36-2.18-5.94a5.55,5.55,0,0,1-.21-.93h0a5,5,0,0,1-.23.93l-2.16,5.94Zm3.82,5.36h-1.81l-1.47-3.9h-5.91l-1.39,3.9h-1.81l5.34-13.92h1.69Zm-23.14,0h-2l-7.16-11.09a4.87,4.87,0,0,1-.45-.88h-.05a15.33,15.33,0,0,1,.07,1.92v10.05h-1.63V295.81h2.12l7,10.92c.29.46.48.77.56.94h0a15.45,15.45,0,0,1-.1-2.05v-9.81h1.64Zm-29.21-12.68a4.47,4.47,0,0,0-3.56,1.59,7,7,0,0,0,0,8.29,4.34,4.34,0,0,0,3.48,1.57,4.58,4.58,0,0,0,3.61-1.49,6.14,6.14,0,0,0,1.32-4.19,6.36,6.36,0,0,0-1.28-4.26,4.4,4.4,0,0,0-3.54-1.51M294.46,310a6.1,6.1,0,0,1-4.75-2,7.24,7.24,0,0,1-1.78-5.07,7.65,7.65,0,0,1,1.82-5.36,6.35,6.35,0,0,1,4.94-2,6,6,0,0,1,4.65,1.94,7.3,7.3,0,0,1,1.76,5.08,7.67,7.67,0,0,1-1.81,5.39,6.21,6.21,0,0,1-4.83,2m-16.63-14.16v1.4h-1.36v11.13h1.36v1.39h-4.35v-1.39h1.36V297.21h-1.36v-1.4ZM254.9,309.17v-1.92a3.86,3.86,0,0,0,.79.52,5.56,5.56,0,0,0,1,.39,7.63,7.63,0,0,0,1,.26,6.64,6.64,0,0,0,.95.08,3.77,3.77,0,0,0,2.25-.56,1.88,1.88,0,0,0,.74-1.6,1.81,1.81,0,0,0-.25-1,2.72,2.72,0,0,0-.68-.77,7,7,0,0,0-1-.66l-1.29-.66c-.49-.25-.94-.5-1.36-.75a5.6,5.6,0,0,1-1.1-.84,3.39,3.39,0,0,1-.73-1,3.5,3.5,0,0,1,.15-3,3.69,3.69,0,0,1,1.1-1.16,5.12,5.12,0,0,1,1.54-.68,7.11,7.11,0,0,1,1.78-.22,6.82,6.82,0,0,1,3,.49v1.84a5.43,5.43,0,0,0-3.16-.86,4.81,4.81,0,0,0-1.07.12,2.9,2.9,0,0,0-1,.36,2.34,2.34,0,0,0-.68.65,1.78,1.78,0,0,0-.26,1,2,2,0,0,0,.2.92,2.17,2.17,0,0,0,.59.71,4.88,4.88,0,0,0,.95.62c.37.21.8.42,1.28.66s1,.51,1.42.78a6.35,6.35,0,0,1,1.17.9,4,4,0,0,1,.8,1.1,3,3,0,0,1,.3,1.38,3.47,3.47,0,0,1-.4,1.74,3.28,3.28,0,0,1-1.09,1.16,5,5,0,0,1-1.57.65,8.9,8.9,0,0,1-1.89.2,7,7,0,0,1-.82-.06c-.32,0-.65-.09-1-.15s-.65-.16-.95-.25a3.6,3.6,0,0,1-.73-.34m-19.28,0v-1.92a3.61,3.61,0,0,0,.79.52,5.46,5.46,0,0,0,1,.39,7.4,7.4,0,0,0,1,.26,6.64,6.64,0,0,0,1,.08,3.77,3.77,0,0,0,2.25-.56,1.88,1.88,0,0,0,.74-1.6,1.81,1.81,0,0,0-.25-1,2.72,2.72,0,0,0-.68-.77,6.67,6.67,0,0,0-1-.66l-1.28-.66c-.49-.25-.94-.5-1.36-.75a5.6,5.6,0,0,1-1.1-.84,3.39,3.39,0,0,1-.73-1,3.5,3.5,0,0,1,.15-3,3.66,3.66,0,0,1,1.09-1.16,5.24,5.24,0,0,1,1.56-.68,7,7,0,0,1,1.76-.22,6.84,6.84,0,0,1,3,.49v1.84a5.47,5.47,0,0,0-3.17-.86,4.88,4.88,0,0,0-1.07.12,2.93,2.93,0,0,0-1,.36,2.22,2.22,0,0,0-.68.65,1.78,1.78,0,0,0-.26,1,2,2,0,0,0,.2.92,2.27,2.27,0,0,0,.58.71,5.58,5.58,0,0,0,1,.62c.37.21.8.42,1.29.66s1,.51,1.42.78a6,6,0,0,1,1.17.9,3.82,3.82,0,0,1,.8,1.1,3,3,0,0,1,.3,1.38,3.58,3.58,0,0,1-.4,1.74,3.37,3.37,0,0,1-1.09,1.16,4.87,4.87,0,0,1-1.58.65,8.81,8.81,0,0,1-1.88.2,7,7,0,0,1-.82-.06c-.32,0-.65-.09-1-.15s-.65-.16-1-.25a3.35,3.35,0,0,1-.73-.34m-10.75.56H217.5V295.81h7.07v1.47h-5.44v4.64h5v1.46h-5v4.88h5.74Zm-18.73-12.45H200.7v4.82h5v1.47h-5v6.16h-1.63V295.81h7.07Zm-25-.23a4.47,4.47,0,0,0-3.56,1.59,7,7,0,0,0,0,8.29A4.36,4.36,0,0,0,181,308.5a4.61,4.61,0,0,0,3.61-1.49,6.14,6.14,0,0,0,1.32-4.19,6.41,6.41,0,0,0-1.28-4.26,4.4,4.4,0,0,0-3.54-1.51M181,310a6.1,6.1,0,0,1-4.75-2,7.24,7.24,0,0,1-1.78-5.07,7.69,7.69,0,0,1,1.81-5.36,6.39,6.39,0,0,1,5-2,6,6,0,0,1,4.64,1.94,7.26,7.26,0,0,1,1.77,5.08,7.72,7.72,0,0,1-1.81,5.39,6.21,6.21,0,0,1-4.83,2m-24.4-12.69v5.06h2.21a3.39,3.39,0,0,0,1.13-.19,2.52,2.52,0,0,0,.9-.53,2.41,2.41,0,0,0,.59-.84,2.7,2.7,0,0,0,.22-1.12,2.17,2.17,0,0,0-.73-1.75,3.12,3.12,0,0,0-2.09-.63Zm8.35,12.45H163l-2.34-3.9a8.81,8.81,0,0,0-.62-.93,3.59,3.59,0,0,0-.61-.62,2.1,2.1,0,0,0-.68-.35,2.62,2.62,0,0,0-.82-.12h-1.34v5.92H155V295.81h4.15a6.06,6.06,0,0,1,1.69.23,3.79,3.79,0,0,1,1.34.69,3.17,3.17,0,0,1,.88,1.16,3.8,3.8,0,0,1,.33,1.63,4.09,4.09,0,0,1-.22,1.34,3.62,3.62,0,0,1-.62,1.08,3.84,3.84,0,0,1-1,.81,5.44,5.44,0,0,1-1.28.52v0l.61.35.49.47.46.62c.15.23.32.5.5.8Zm-28.2-12.45V303h1.71a3.78,3.78,0,0,0,2.57-.78,2.7,2.7,0,0,0,.89-2.18q0-2.76-3.26-2.76Zm0,7.19v5.26H135.1V295.81h3.82a5,5,0,0,1,3.46,1.09,3.86,3.86,0,0,1,1.23,3.07,4.24,4.24,0,0,1-1.36,3.24,5.23,5.23,0,0,1-3.69,1.26Z" transform="translate(-48.95 -190.03)"/></svg>