<svg id="Слой_1" data-name="Слой 1" xmlns="http://www.w3.org/2000/svg" viewBox="0 0 349.05 93.77"><title>fudge</title><path d="M424.53,207a1.42,1.42,0,0,0-.11.33,12.57,12.57,0,0,1-3,7.14,22.21,22.21,0,0,1-7,5.62,39.27,39.27,0,0,1-5.81,2.5c-.57.2-.58.2-.58.75a20.56,20.56,0,0,1-6.92,15.57,35.57,35.57,0,0,1-10.84,6.72,63.17,63.17,0,0,1-13.09,3.74,1.27,1.27,0,0,0-1.1.85,32.12,32.12,0,0,1-16.88,17.43,1.42,1.42,0,0,1-.62.21,1.16,1.16,0,0,1-.05-.52v-24c0-.11,0-.23,0-.34s.12-.33.34-.32h18.49c.94,0,.82.09.82-.81q0-6.16,0-12.34c0-.14,0-.28,0-.42s-.11-.38-.37-.36-.37,0-.56,0H359c-.52,0-.53,0-.53-.55,0-3,0-6.09,0-9.13,0-.8.06-.65.71-.65h23.93c1,0,1,0,1-1V205.29c0-.73,0-.68.68-.68H423.4a1.23,1.23,0,0,1,1.13.4Z" transform="translate(-75.47 -203.12)"/><path d="M124.74,296.88a2.27,2.27,0,0,0-.85-.26,7.69,7.69,0,0,1-6-6.6c0-.51-.1-1-.11-1.52,0-2,0-4,0-6a11.55,11.55,0,0,1,.31-2.35,7.68,7.68,0,0,1,6.27-5.71,8.38,8.38,0,0,1,6.75,1.71,7.24,7.24,0,0,1,2.73,5,20.28,20.28,0,0,1,.14,2.58c0,2.06.07,4.13-.13,6.19a7.7,7.7,0,0,1-5.93,6.69,3.1,3.1,0,0,0-.93.27Zm4.86-11.22c0-.82,0-1.63,0-2.44a12.34,12.34,0,0,0-.26-2.35,3.35,3.35,0,0,0-2.71-2.6,3.46,3.46,0,0,0-3.56,1,4.36,4.36,0,0,0-1,2.69,46.55,46.55,0,0,0-.1,5.15,24.54,24.54,0,0,0,.21,2.7,3.67,3.67,0,0,0,4.53,2.92,3.57,3.57,0,0,0,2.76-3.28A30.47,30.47,0,0,0,129.6,285.66Z" transform="translate(-75.47 -203.12)"/><path d="M185.45,296.88a16.17,16.17,0,0,1-4.08-.83,8.43,8.43,0,0,1-3.1-2l2.76-2.76a7,7,0,0,0,2.81,1.5,9.09,9.09,0,0,0,4.15,0,2.74,2.74,0,0,0,.46-.15,2.42,2.42,0,0,0,1.65-2.81,2.47,2.47,0,0,0-2.3-2.15c-1.29-.16-2.58-.35-3.86-.54a6.27,6.27,0,0,1-1.84-.63,5.43,5.43,0,0,1-3.15-5.25,6.25,6.25,0,0,1,5-6.41,11,11,0,0,1,6.78.28,8.65,8.65,0,0,1,3,1.92l-2.48,2.48c-.22.23-.36.06-.52-.06a5.77,5.77,0,0,0-2.64-1.19,6.67,6.67,0,0,0-3,.08,2.53,2.53,0,0,0-1.82,3.25,2.62,2.62,0,0,0,2.27,1.7c.85.15,1.71.23,2.56.34a9,9,0,0,1,3,.79,5.58,5.58,0,0,1,3.19,4.38c.57,3.72-1.5,6.67-5.3,7.64a11.06,11.06,0,0,0-1.81.42Z" transform="translate(-75.47 -203.12)"/><path d="M205.13,296.88a17.72,17.72,0,0,1-3.68-.7,8.39,8.39,0,0,1-3.52-2.23l2.77-2.74c.12,0,.25.21.41.33a6.83,6.83,0,0,0,4.2,1.45,8.68,8.68,0,0,0,2.22-.16,2.62,2.62,0,0,0,2.24-1.92,2.54,2.54,0,0,0-2.35-3.24c-1.27-.13-2.53-.35-3.79-.53a6.12,6.12,0,0,1-4.95-5.9,6.31,6.31,0,0,1,4.7-6.32,9.14,9.14,0,0,1,1.15-.27,11.34,11.34,0,0,1,6,.49,7.71,7.71,0,0,1,3,1.94c-.82.81-1.64,1.63-2.45,2.46-.23.22-.37,0-.53-.08a5.58,5.58,0,0,0-2.85-1.2,6.47,6.47,0,0,0-2.9.23,2.52,2.52,0,0,0-1.73,3,2.68,2.68,0,0,0,2.28,1.87c1.27.17,2.54.31,3.79.54a5.86,5.86,0,0,1,5,4.79,6.27,6.27,0,0,1-2.8,6.69,9,9,0,0,1-3,1.19c-.57.12-1.14.2-1.71.3Z" transform="translate(-75.47 -203.12)"/><path d="M75.47,204.59h0v.05a2.57,2.57,0,0,1,0,.83v61.44a3,3,0,0,0,0,.9l-.16.07Z" transform="translate(-75.47 -203.12)"/><path d="M171,236.1V205.22c0-.67,0-.68.68-.68h21.77a23.53,23.53,0,0,1,15.36,5.4,21.77,21.77,0,0,1,7.89,13.3A19.48,19.48,0,0,1,217,227q0,9.2,0,18.4a21.09,21.09,0,0,1-6.19,15.12,23.15,23.15,0,0,1-13.08,6.84,26.32,26.32,0,0,1-4.51.38h-21.7c-.52,0-.53,0-.54-.54V236.1Zm16-.14v17.28c0,.56,0,.57.55.57,2.07,0,4.14,0,6.21,0a6.33,6.33,0,0,0,6.38-6.36q0-11.31,0-22.64a6.62,6.62,0,0,0-6.54-6.58h-6.06c-.53,0-.53,0-.54.52V236Z" transform="translate(-75.47 -203.12)"/><path d="M137.59,226.2c0,6.9,0,13.8,0,20.7a6.56,6.56,0,0,0,3.79,6.19,6.77,6.77,0,0,0,9.76-5.43c0-.44,0-.88,0-1.33q0-20.42,0-40.84c0-1.06-.12-.88.87-.89h14.79c.17,0,.33,0,.49,0s.4.07.37.35c0,.12,0,.23,0,.35v40.42a23.35,23.35,0,0,1-19.12,23.09,23.25,23.25,0,0,1-27-18.06,23.8,23.8,0,0,1-.52-4.91q0-20.28,0-40.56c0-.12,0-.23,0-.35s.08-.35.33-.33.27,0,.41,0H137c.58,0,.58,0,.58.62v21Z" transform="translate(-75.47 -203.12)"/><path d="M236.55,236.07V246.6a7.12,7.12,0,0,0,5.83,7.14,7.46,7.46,0,0,0,5.38-.86,6.21,6.21,0,0,0,3.12-5.28c.09-1.51,0-3,0-4.53,0-.38-.17-.4-.46-.4-1.87,0-3.73,0-5.59,0a4.26,4.26,0,0,0-.62,0c-.38,0-.46-.13-.46-.48q0-4.22,0-8.43c0-.46,0-.46.52-.46h21.28c.25,0,.41.05.37.34a2.62,2.62,0,0,0,0,.28c0,4.07,0,8.13,0,12.2a23.29,23.29,0,0,1-5,14.47,21.56,21.56,0,0,1-13.37,8.13,23.38,23.38,0,0,1-26.94-17.87,23.11,23.11,0,0,1-.58-5.18q0-9.56,0-19.1a23.37,23.37,0,0,1,18.37-22.9A22.23,22.23,0,0,1,265,219.3a22.71,22.71,0,0,1,1,6c0,.51,0,.52-.52.52h-14.1c-.53,0-.54,0-.55-.53a7.06,7.06,0,0,0-.38-2.54,6.54,6.54,0,0,0-5.51-4.41,7.12,7.12,0,0,0-7.16,3,6.65,6.65,0,0,0-1.22,3.93Z" transform="translate(-75.47 -203.12)"/><path d="M269.29,236.17v-30.8c0-1-.13-.83.79-.83h40.61c.91,0,.77-.06.77.79,0,4.08,0,8.17,0,12.26,0,.14,0,.28,0,.42s-.11.38-.37.36H286.75a4,4,0,0,1-.49,0c-.38-.05-.46.12-.46.47q0,4.68,0,9.34c0,.37.11.49.47.48.82,0,1.63,0,2.45,0h16.11c.92,0,.78-.08.78.78v12.41c0,.11,0,.23,0,.35,0,.31-.06.49-.42.45a4,4,0,0,0-.49,0H286.57c-.88,0-.76-.08-.76.73v9.82c0,.68-.09.63.64.63h24.14c.88,0,.78-.13.78.77v12.61c0,.78,0,.68-.68.68h-41c-.32,0-.4-.13-.38-.41s0-.32,0-.49Z" transform="translate(-75.47 -203.12)"/><path d="M75.63,267.82a3,3,0,0,1,0-.9V205.48a2.57,2.57,0,0,0,0-.83,1.28,1.28,0,0,1,.75-.11h41a1.47,1.47,0,0,0,.21,0c.31,0,.5.06.45.42a2.61,2.61,0,0,0,0,.28v12.4a2.61,2.61,0,0,0,0,.28c0,.32-.07.49-.42.45H93.05a2.94,2.94,0,0,1-.42,0c-.38-.06-.46.12-.46.47q0,4.66,0,9.34c0,.36.1.52.47.47a4,4,0,0,1,.49,0H111.2c1,0,.83-.09.83.8,0,4.13,0,8.27,0,12.4,0,.14,0,.28,0,.42s-.1.38-.37.36H93a4,4,0,0,1-.49,0c-.32,0-.4.13-.37.41s0,.32,0,.48V267c0,1,.07.86-.86.86H76.46A2.88,2.88,0,0,1,75.63,267.82Z" transform="translate(-75.47 -203.12)"/><path d="M341.91,204.61v63c-10-2.48-22.08-12.45-23.57-28.32A32.72,32.72,0,0,1,341.91,204.61Z" transform="translate(-75.47 -203.12)"/><path d="M256.39,283.31v12.25c0,.16,0,.32,0,.48,0,.32-.06.47-.42.46h-3.42c-.28,0-.44-.07-.41-.39,0-.14,0-.28,0-.42V275.35c0-.88-.1-.77.78-.78s1.54.05,2.3,0a1.13,1.13,0,0,1,1.16.65c2.59,4,5.21,8,7.82,12,.13.21.28.4.52.74V275.43c0-.17,0-.33,0-.49s.09-.37.36-.37h3.56c.26,0,.39.08.37.36s0,.33,0,.49v20.35c0,.93.09.82-.81.82s-1.63,0-2.44,0a.89.89,0,0,1-.9-.48c-2.22-3.46-4.46-6.91-6.69-10.36-.54-.83-1.08-1.67-1.63-2.5Z" transform="translate(-75.47 -203.12)"/><path d="M113.13,296.59h-1.85c-.82,0-1.63,0-2.44,0a.68.68,0,0,1-.73-.48c-1.23-2.55-2.5-5.08-3.71-7.65a1,1,0,0,0-1.1-.67,16.83,16.83,0,0,1-1.88,0c-.35,0-.43.12-.43.44,0,1.51,0,3,0,4.53v3.28c0,.51,0,.52-.49.52-1.14,0-2.28,0-3.41,0-.33,0-.48-.1-.45-.43,0-.12,0-.24,0-.35V275.33c0-.85-.08-.76.74-.76h8a7.31,7.31,0,0,1,2.92.57,6.25,6.25,0,0,1,4,5.5,5.93,5.93,0,0,1-2.47,5.65,5.23,5.23,0,0,1-1,.58c-.49.22-.49.23-.26.69l2,3.76c.79,1.53,1.59,3.05,2.37,4.58C113,296.1,113.21,296.27,113.13,296.59ZM100.9,281.27v2.44c0,.49,0,.5.5.51h4a2.53,2.53,0,0,0,1.82-.76,2.87,2.87,0,0,0,.72-3.2,2.91,2.91,0,0,0-2.76-1.89c-1.27,0-2.55,0-3.83,0-.47,0-.48,0-.49.52Z" transform="translate(-75.47 -203.12)"/><path d="M246.14,285.44c0,1.25,0,2.5-.09,3.76a7.58,7.58,0,0,1-6.78,7.45,8.36,8.36,0,0,1-6.7-1.84,6.88,6.88,0,0,1-2.59-5.13,54,54,0,0,1,0-8.14,7.27,7.27,0,0,1,5.45-6.73,8.3,8.3,0,0,1,8.52,2,7.09,7.09,0,0,1,2.08,4.52A33,33,0,0,1,246.14,285.44Zm-12,.29c0,.94.08,2.12.14,3.3a7,7,0,0,0,.11.76,3.67,3.67,0,0,0,4.55,3,3.44,3.44,0,0,0,2.69-3.17,38.76,38.76,0,0,0,0-8.13c-.28-2.64-2.46-3.57-4.55-3.23a3.45,3.45,0,0,0-2.67,2.88A33.22,33.22,0,0,0,234.18,285.73Z" transform="translate(-75.47 -203.12)"/><path d="M159.77,285.54V275.43c0-.16,0-.33,0-.49s.08-.39.35-.37h13.74c.33,0,.46.09.45.43,0,1,0,1.95,0,2.92,0,.4-.16.46-.5.46h-9.14c-.55,0-.56,0-.56.52V283c0,.52,0,.53.55.53h7.19a3.84,3.84,0,0,0,.48,0c.39,0,.48.14.47.49,0,1,0,1.91,0,2.86,0,.48,0,.49-.52.49H165c-1,0-.83-.1-.84.86,0,1.28,0,2.55,0,3.83,0,.61,0,.61.6.61h8.72a4,4,0,0,0,.49,0c.32,0,.39.13.39.42,0,1,0,2,0,3,0,.29-.1.42-.4.42-.51,0-1,0-1.53,0l-12,0c-.6,0-.61,0-.61-.6Z" transform="translate(-75.47 -203.12)"/><path d="M273.39,296.59a1.29,1.29,0,0,1,.15-.75l7.53-20.66c.22-.61.22-.61.88-.61H284c.62,0,.62,0,.83.57l2.7,7.32q2.44,6.62,4.87,13.25a1.6,1.6,0,0,1,.21.81,1,1,0,0,1-.59.07c-1.09,0-2.19,0-3.28,0a.59.59,0,0,1-.68-.51c-.3-1-.66-2-1-3a.51.51,0,0,0-.58-.43c-2.33,0-4.65,0-7,0a.56.56,0,0,0-.63.47c-.31,1-.67,1.93-1,2.9-.12.38-.28.56-.72.55C276,296.57,274.69,296.59,273.39,296.59Zm12.38-7.53c-.88-2.65-1.74-5.23-2.69-7.95l-2.75,7.95Z" transform="translate(-75.47 -203.12)"/><path d="M75.6,285.59V275.42c0-.17,0-.33,0-.49s.13-.37.38-.36h8.58a7.18,7.18,0,0,1,2.85.6,6.59,6.59,0,0,1,4,6.75,6.77,6.77,0,0,1-5.54,6.25,6.48,6.48,0,0,1-1.46.09h-4c-.55,0-.56,0-.56.59v6.9c0,.16,0,.33,0,.49s-.12.36-.37.36c-1.19,0-2.38,0-3.56,0-.31,0-.42-.14-.4-.42s0-.33,0-.49Zm6.6-1.13c.55,0,1.11,0,1.67,0a3,3,0,0,0,3.08-3,3,3,0,0,0-3-3.05c-1.21-.05-2.42,0-3.63,0-.34,0-.44.13-.43.45,0,1.74,0,3.48,0,5.23,0,.35.15.43.46.42C81,284.45,81.59,284.46,82.2,284.46Z" transform="translate(-75.47 -203.12)"/><path d="M140,285.41V274.82c0-.23.09-.34.32-.34h13.6c.61,0,.61,0,.61.62,0,.88,0,1.76,0,2.65,0,.57,0,.57-.57.58l-7.39,0c-.61,0-1.21,0-1.82,0-.37,0-.47.14-.47.49,0,1.47,0,2.93,0,4.39,0,.53,0,.54.53.54h7.11c1,0,1,0,1,1,0,.77,0,1.53,0,2.3,0,.48,0,.49-.52.49H145.1c-.94,0-.84-.11-.84.87V296c0,.5,0,.51-.5.52h-3.42c-.25,0-.39-.08-.37-.36s0-.32,0-.49Z" transform="translate(-75.47 -203.12)"/><path d="M297,285.56V275.25c0-.76,0-.68.68-.68h3.06c.52,0,.53,0,.53.55V291.9c0,.16,0,.33,0,.49s.12.37.38.36H311c.24,0,.33.1.33.34v3.2c0,.2-.09.3-.29.29H297.39c-.28,0-.37-.13-.36-.38V285.56Z" transform="translate(-75.47 -203.12)"/><path d="M224,285.52v10.73c0,.22-.06.35-.31.34h-3.7c-.23,0-.34-.1-.33-.33s0-.33,0-.49q0-10.2,0-20.41c0-.91-.1-.79.76-.8h3c.57,0,.58,0,.58.57v10.38Z" transform="translate(-75.47 -203.12)"/></svg>