<svg id="Слой_1" data-name="Слой 1" xmlns="http://www.w3.org/2000/svg" viewBox="0 0 694.92 293.05"><title>fudgeurban</title><path d="M536,175.87v92.39c0,3.65,0,3.65-3.72,3.65-11.33,0-22.66,0-34,0-5.27,0-5,.81-5-4.9V110.79c0-5.17.11-10.34-.05-15.5-.08-2.52.71-3.26,3.25-3.23q18.38.19,36.74,0a4.05,4.05,0,0,1,4.07,2.5q21.63,39.41,43.36,78.77c.7,1.27,1.36,2.57,2.35,4.45,0-3.52,0-6.31,0-9.09q-.09-36.87-.22-73.73c0-2,.49-2.92,2.8-2.9q18.49.18,37,0c2.18,0,2.83.58,2.83,2.8q-.09,87.1,0,174.21c0,2.16-.6,2.9-2.82,2.88-10.67-.1-21.33-.08-32,0a3.49,3.49,0,0,1-3.54-2.07q-23.34-42.76-46.75-85.47C538.84,181.72,537.56,178.93,536,175.87Z" transform="translate(69.5 16.87)"/><path d="M318,177.2c2.89,2.52,6.42,5.09,9.33,8.24,6.75,7.31,10,16.27,10.72,26.07.69,9.59.46,19.17-3.16,28.31-6.49,16.4-18.16,26.9-35.66,30.12a117.68,117.68,0,0,1-20.1,1.85c-21.08.24-42.16.11-63.24.12-3.27,0-3.28,0-3.28-3.34q0-86.59-.05-173.21c0-2.39.46-3.32,3.13-3.3,22.33.14,44.66-.07,67,.27a91.66,91.66,0,0,1,20,2.6c15.31,3.72,25,13.83,29.51,28.69s3.49,29.24-4.71,42.6C325,170.3,321.17,173.6,318,177.2ZM257.5,237C264.81,236.72,272,237,279,236c7.22-1,11.8-5.93,12.73-13.2a50.53,50.53,0,0,0-.21-14.11c-1.14-7.17-5.3-10.71-12.57-11.29-6.3-.52-12.64-.5-19-.88-2.3-.14-2.77.75-2.75,2.86.09,11.58,0,23.16.05,34.74C257.33,234.87,257.42,235.68,257.5,237Zm-.18-93c0,5.16.1,10.32-.05,15.48-.06,2.21.81,2.76,2.79,2.57s4.17-.1,6.23-.34c5-.57,10.1-1,15-2a8.9,8.9,0,0,0,7.25-8,63.32,63.32,0,0,0,.58-10.92c-.36-9.42-5-13.94-14.4-14.27-5-.18-10,0-15-.16-2.08-.07-2.53.75-2.49,2.63C257.39,134.08,257.32,139.07,257.32,144.07Z" transform="translate(69.5 16.87)"/><path d="M167.24,193.92l38.16,77.84c-1.54.07-2.42.15-3.3.15-14.58,0-29.16,0-43.74,0a3.66,3.66,0,0,1-4-2.49c-9.93-21.65-20-43.24-30-64.84-1.28-2.76-3.47-3.77-6.42-2.79a2.17,2.17,0,0,0-1.08,1.37,8.8,8.8,0,0,0-.06,2.24q0,31.5,0,63c0,3.46,0,3.47-3.4,3.47-12.91,0-25.83-.05-38.74,0-2.39,0-3.14-.68-3.14-3.1q.09-86.87,0-173.74c0-2.45.78-3.06,3.14-3.05,21.74.11,43.49,0,65.24.15,11.34.07,22.39,1.8,32.75,6.75,14,6.68,21.67,18,24.44,33a71.36,71.36,0,0,1-.35,28.78c-3.35,14.95-12.18,25.44-26.12,31.68ZM117,166.23c4.53,0,8.77.07,13,0a56.81,56.81,0,0,0,7.71-.59c8.08-1.27,12.55-5.34,13.57-13.06a50.41,50.41,0,0,0,0-12.93c-1-7.34-4.11-10.76-11.43-11.8-6.55-.93-13.26-.73-19.9-1.14-2.35-.15-3.17.56-3.15,3,.13,11.23,0,22.47.06,33.7C116.86,164.24,116.93,165.05,117,166.23Z" transform="translate(69.5 16.87)"/><path d="M15.75,157V95.76c0-3.64,0-3.64,3.73-3.64,13.5,0,27,.06,40.5-.06,2.46,0,3.08.79,3.08,3.14Q63,151.82,63,208.44c0,18.78-6.22,35.15-19.59,48.46C31.9,268.36,18,274.92,1.66,276c-22.34,1.48-40.84-6.42-55.42-23.22a61.48,61.48,0,0,1-15.61-40.92c-.19-39-.06-78-.13-117,0-2.23.67-2.81,2.83-2.8,13.42.09,26.84.05,40.25.05,4,0,4,0,4,3.88V199c0,6.08-.1,12.17,0,18.25.22,9.89,6.07,17.29,15,19.28,11.66,2.59,23-6.06,23.07-18,.17-20.49.05-41,.05-61.49Z" transform="translate(69.5 16.87)"/><path d="M331.93,271.6c1.38-5,2.66-9.57,4-14.19Q347,218.26,358,179.1q11.44-40.6,22.88-81.2c1.65-5.8,1.72-5.78,7.71-5.78q21.61,0,43.24,0c1.59,0,2.52.29,3,2.09q14.72,51.23,29.57,102.4Q475,233,485.39,269.52c.18.61.27,1.24.48,2.18-1.12.09-2,.21-2.87.21-13.08,0-26.16-.05-39.24.06-2.21,0-3.07-.8-3.56-2.81-2.32-9.54-4.81-19-7.12-28.58-.48-2-1.18-2.88-3.43-2.86-13.75.11-27.5.08-41.24,0-1.87,0-2.79.48-3.27,2.47-2.4,9.77-5,19.5-7.5,29.25-.38,1.5-.87,2.49-2.77,2.48-13.58-.07-27.16,0-40.74-.05A20,20,0,0,1,331.93,271.6Zm76.8-129-.39,0c-4.6,19.1-9.2,38.2-13.86,57.52h28.3C418,180.73,413.39,161.64,408.73,142.56Z" transform="translate(69.5 16.87)"/><path d="M75.63,33.64c0-15.07.05-30.15-.06-45.22,0-2.57.77-3.25,3.27-3.22,10.58.13,21.16,0,31.73.07,17.72.14,32.18,12.11,35.23,29.13a26.52,26.52,0,0,1,.36,4.72c0,9.74.06,19.49,0,29.23-.09,18.34-15.41,32.67-32,33.53-12,.62-24,.23-36,.38-2.23,0-2.57-1-2.56-2.9C75.65,64.12,75.63,48.88,75.63,33.64Zm25.07-.14c0,8.15,0,16.31,0,24.47,0,1.86.56,2.52,2.42,2.42,2.57-.14,5.16,0,7.74-.08,5.49-.27,9.22-4,9.25-9.45q.12-17.11,0-34.22c0-5.76-4-9.61-9.8-9.81-2.33-.08-4.67.1-7-.06-2.15-.15-2.65.75-2.62,2.75C100.75,17.51,100.7,25.5,100.7,33.5Z" transform="translate(69.5 16.87)"/><path d="M25.56,19.53c0,10.25-.08,20.49,0,30.74.08,7.2,6.57,11.66,13.38,9.38,4.05-1.36,6.53-5.12,6.56-10.2,0-8.66,0-17.32,0-26,0-11.74,0-23.49,0-35.23,0-2.23.59-3.08,3-3,6.74.14,13.49.1,20.24,0,1.92,0,2.64.56,2.63,2.56-.06,20.65.13,41.31-.11,62-.19,16.16-11.8,29.88-28,33.77-15.11,3.63-31.65-4-39.18-17.88A37.55,37.55,0,0,1-.3,47.41c0-19.66,0-39.32-.06-59,0-2.51.74-3.3,3.28-3.23,6.32.17,12.66.05,19,.06,3.62,0,3.63,0,3.63,3.53q0,15.38,0,30.74Z" transform="translate(69.5 16.87)"/><path d="M176.29,33.61c0,5.25,0,10.5,0,15.75.1,8.48,8.12,13.5,15.83,9.93a9.13,9.13,0,0,0,5.28-7.68c.91-7.64.83-7.65-6.8-7.66-4,0-4,0-4-3.93,0-2.83,0-5.66,0-8.49,0-1.66.49-2.39,2.29-2.38,9.91.06,19.83,0,29.74,0,1.12,0,2.26-.08,2.22,1.58-.21,8.31.42,16.75-.75,24.93C216.68,79.45,189,92,168.49,79.55c-12-7.29-17.85-18-18-31.94-.08-9.41-.05-18.83,0-28.24.08-18,12.2-32.77,29.91-35.71C202.69-20,219.27-3.68,220.8,15.45c.17,2.12-.36,3-2.67,3-6.08-.13-12.16-.08-18.24,0-1.64,0-2.32-.49-2.47-2.26-.48-5.68-4.9-9.42-10.7-9.3a10.31,10.31,0,0,0-10.38,10.05c-.16,5.57,0,11.16,0,16.74Z" transform="translate(69.5 16.87)"/><path d="M225.42,33.86c0-15.16,0-30.32,0-45.48,0-2.32.58-3.19,3.06-3.17q29.35.13,58.72,0c2.44,0,3.15.77,3.09,3.14-.15,5.25-.14,10.5,0,15.74.06,2.21-.71,2.89-2.88,2.87-11.08-.08-22.15,0-33.23-.08-2.21,0-3.14.51-3,2.9a75.13,75.13,0,0,1,0,9.49c-.16,2.42.82,2.92,3,2.89,8.08-.1,16.16,0,24.24-.09,2.35,0,3,.75,2.91,3-.14,5.41-.12,10.83,0,16.24.05,2-.65,2.61-2.58,2.59-8.25-.07-16.5,0-24.74-.08-2.17,0-2.94.57-2.83,2.81.17,3.74.15,7.5,0,11.24-.09,2,.69,2.51,2.59,2.5,11.07-.07,22.15,0,33.23-.09,2.57,0,3.3.82,3.23,3.31-.16,5.32-.11,10.66,0,16,0,2-.51,2.86-2.67,2.85q-29.73-.08-59.47,0c-2.15,0-2.65-.86-2.64-2.83C225.44,64.35,225.42,49.1,225.42,33.86Z" transform="translate(69.5 16.87)"/><path d="M361.35,82.24c-.1-1.4-.22-2.28-.22-3.17,0-10.91.05-21.83-.05-32.74,0-2.42.75-3.13,3.14-3.09,8.16.12,16.33,0,24.49,0,1.88,0,2.45-.61,2.42-2.44-.09-5.25-.1-10.5,0-15.74.05-2-.54-2.61-2.54-2.58-8.33.1-16.66,0-25,.08-2,0-2.65-.62-2.6-2.57.11-3.74.11-7.5,0-11.24-.06-2,.78-2.55,2.67-2.54,11,.06,22,0,33,0h3.24c.07-1.39.18-2.6.19-3.81,0-4.83.06-9.67,0-14.5,0-1.84.46-2.7,2.52-2.69q28.36.06,56.73,0c2.23,0,3.16.73,3,3.06A20.92,20.92,0,0,1,453.31,4.8C449,7.91,444,10.11,439.2,12.62c-1.17.62-2,1.05-2.07,2.66-.38,11.26-5.89,19.7-14.78,26.18-9.23,6.71-19.84,10-30.84,12.28a4.65,4.65,0,0,0-3.75,3,48.65,48.65,0,0,1-23.64,24.43A28.92,28.92,0,0,1,361.35,82.24Z" transform="translate(69.5 16.87)"/><path d="M-43.76,21.91c1.21.08,2.19.2,3.16.2,8.17,0,16.33.06,24.5,0,1.93,0,2.67.57,2.64,2.54q-.12,8.37,0,16.75c0,2-.82,2.55-2.7,2.54-8.08-.07-16.16,0-24.24,0h-3.37V47c0,10.75-.06,21.5,0,32.25,0,2.31-.54,3.25-3,3.19-6.66-.15-13.33-.11-20,0-2,0-2.74-.6-2.74-2.7q.09-45.87,0-91.73c0-2,.52-2.78,2.65-2.77q29.75.09,59.49,0c2.05,0,2.8.66,2.76,2.73-.1,5.33-.12,10.67,0,16,.06,2.3-.72,3-3,3-11.08-.1-22.16,0-33.24-.09-2.19,0-3.12.46-3,2.88C-43.61,13.73-43.76,17.72-43.76,21.91Z" transform="translate(69.5 16.87)"/><path d="M336.43,82.16A45.39,45.39,0,0,1,316.13,71,49,49,0,0,1,299.8,35.67c-1-28.07,20.16-47,36.63-50Z" transform="translate(69.5 16.87)"/></svg>