<svg id="Слой_1" data-name="Слой 1" xmlns="http://www.w3.org/2000/svg" viewBox="0 0 385.89 243.36"><title>hairwell</title><path d="M468.29,117.32c-.48-.62-.27-1.35-.27-2a23.08,23.08,0,0,0-2.44-10.05,38.59,38.59,0,0,0-10.51-12.85,77.24,77.24,0,0,0-14.8-9.51,128,128,0,0,0-28.6-10.23,298.24,298.24,0,0,0-36.09-6.38c-5.23-.57-10.5-1-15.76-1.18a228.88,228.88,0,0,0-25.39.44Q327,66.15,319.6,67c-5.92.72-11.8,1.74-17.66,2.85-7,1.32-13.91,2.9-20.81,4.61S267.36,78,260.5,79.91Q243.43,84.55,226.6,90c-12.31,4-24.49,8.36-36.59,12.94q-17.55,6.63-34.44,14.76c-9.07,4.36-17.87,9.25-26.81,13.86a38,38,0,0,0-5.09,3.13,5.26,5.26,0,0,0-1.76,1.83c1.68-.25,3.15-.43,4.61-.7,9-1.68,17.93-3.59,26.87-5.52,5.73-1.23,11.45-2.51,17.2-3.69,7-1.42,13.94-2.76,20.92-4.11,4.44-.85,8.89-1.64,13.34-2.45,5.33-1,10.66-1.88,16-2.86s10.93-2.09,16.4-3.14c7.32-1.39,14.65-2.74,22-4,5.49-.92,11-1.8,16.49-2.56,4.38-.6,8.77-1.13,13.17-1.62,4.74-.54,9.5-.95,14.25-1.36,3.52-.3,7.05-.53,10.58-.58,5.82-.08,11.65-.21,17.48.14,4.37.27,8.73.62,13.06,1.26a71.05,71.05,0,0,1,15.87,4,34.4,34.4,0,0,1,12.95,8.35,21.19,21.19,0,0,1,5.74,13.14,44.4,44.4,0,0,1-2.21,16.61,95.23,95.23,0,0,1-12.12,24.71,69.71,69.71,0,0,1-13.24,15.32c-.88.72-1.75,1.47-2.61,2.23a4.37,4.37,0,0,0-1.54,3.43c0,.7,0,1.39,0,2.09-.05,7.67.11,15.33-.16,23-.29,8.56-.06,17.13-.29,25.69-.21,8.21-.06,16.44-.07,24.66,0,.29,0,.59,0,.89,0,.55.34.73.79.55a14.06,14.06,0,0,0,1.74-.86,116.2,116.2,0,0,0,12.36-8.62c5-3.78,9.77-7.71,14.55-11.7,3.59-3,7.13-6.06,10.69-9.09,4.06-3.45,8.14-6.88,12-10.58,8-7.76,15.7-15.86,23.11-24.21,4.86-5.47,9.62-11,14.2-16.73a273.67,273.67,0,0,0,19-26.38,101.24,101.24,0,0,0,8.12-15.11,59.44,59.44,0,0,0,4.92-22.14,2.93,2.93,0,0,1,.23-1.6Z" transform="translate(-82.4 -31.48)"/><path d="M83.25,120.79c.09,5.33,0,10.66.06,16a3.45,3.45,0,0,0,.16,1.64,1.44,1.44,0,0,0,1-.29c9-4.57,18.17-8.87,27.29-13.24,7.91-3.78,15.67-7.87,23.59-11.62,5.09-2.41,10.21-4.74,15.41-6.87q14.5-5.94,29-11.84c9.78-4,19.63-7.74,29.6-11.2,8.7-3,17.56-5.5,26.42-8,13-3.72,26.12-7.36,39.33-10.53,6-1.43,12-2.78,18-4q11.78-2.33,23.66-4,7.9-1.11,15.83-2c4.59-.5,9.2-.86,13.82-1.19,3.67-.27,7.35-.44,11-.6,3.29-.14,6.57-.14,9.86-.27,8.12-.32,16.24.23,24.36.28h.15c3.23.51,6.46-.16,9.69-.1a.87.87,0,0,0,.81-.39,10.84,10.84,0,0,0-2.21-1.3,78.67,78.67,0,0,0-8.58-3c-8.58-2.54-17.28-4.66-26-6.62-8.19-1.84-16.4-3.6-24.66-5.17-4.15-.78-8.29-1.6-12.47-2.22-3.88-.58-7.79-.95-11.7-1.35q-6.68-.67-13.38-1c-4.72-.26-9.45-.44-14.18-.42-9.72.05-19.43-.05-29.13.56-5.06.32-10.12.7-15.19,1-1.23.08-2.48.19-3.71.32-3.31.33-6.62.72-9.93,1.1-3.7.42-7.41.79-11.1,1.3-5.07.7-10.12,1.53-15.18,2.29-6,.9-12,2-17.91,3.12q-12.6,2.4-25.08,5.37c-11.51,2.75-23,5.65-34.3,9.12-9.84,3-19.78,5.72-29.71,8.43a117.56,117.56,0,0,0-13.57,4.57c-1.4.58-1.4.59-1.4,2.06,0,.3,0,.59,0,.89C83,88,83,104.41,83.25,120.79Z" transform="translate(-82.4 -31.48)"/><path d="M221.9,220.66a7.88,7.88,0,0,0-6.18,4.64,27.56,27.56,0,0,0-1.71,4.92c-1.24,4.4-2.17,8.89-3.59,13.25a18.57,18.57,0,0,1-2.1,4.76c-.18.26-.3.66-.79.55-2.55-5.93-5-11.92-6.93-18.09a18.11,18.11,0,0,0-2.51-5.38,5.55,5.55,0,0,0-8.48-1,12.48,12.48,0,0,0-2.85,3.61,40.44,40.44,0,0,0-2.68,6.15c-1.1,3-2,6.15-3.22,9.14a14.74,14.74,0,0,1-1.81,3.42c-.19.25-.34.66-.83.46-.13-.52-.26-1.05-.4-1.58q-2.4-9.69-4.82-19.4a7.19,7.19,0,0,0-4.11-5,5.76,5.76,0,0,0-8.11,3.45,10.3,10.3,0,0,0-.48,4.71,33,33,0,0,0,.91,4.53c2.2,8.27,4.83,16.41,7.52,24.53,1.47,4.43,3,8.86,4.67,13.22.55,1.39.32,1.28,1.8,1.22,1.24-.06,2.48-.16,3.72-.31a7.11,7.11,0,0,0,6.14-4.57c.28-.69.59-1.36.87-2.06,1.66-4.1,2.86-8.37,4.47-12.5a23.69,23.69,0,0,1,2.62-5.36,8.83,8.83,0,0,1,1.29,2.34c2.89,6.33,5.5,12.79,8.17,19.22.46,1.11.47,2.69,1.63,3.18s2.46,0,3.68-.24a10.08,10.08,0,0,0,7.6-5.44,25,25,0,0,0,1.44-3.27c3.37-9.47,6.82-18.9,9.71-28.52a35.53,35.53,0,0,0,1.42-6.1,10.74,10.74,0,0,0-.51-5.15A4.89,4.89,0,0,0,221.9,220.66Z" transform="translate(-82.4 -31.48)"/><path d="M128.75,176.88c-2.07-7.43-6.65-12.56-14-15.15a15.81,15.81,0,0,0-8.1-.57,35.11,35.11,0,0,0-7.07,2.34,6,6,0,0,1-2.29.73,12.46,12.46,0,0,1-.11-3.28,109.31,109.31,0,0,0-.14-12.54,21.12,21.12,0,0,0-1.22-5.82,5.12,5.12,0,0,0-5.09-3.44c-4.12-.09-7.13,2.55-7.87,6.84l-.49,0v6.88h.46c0,.7.1,1.39.14,2.09.31,5.47.33,11,.25,16.43-.14,9.66-.4,19.32-.22,29,.06,3.24.25,6.47.52,9.7,0,.66.26,1,.94,1.06a29.87,29.87,0,0,0,5.51.31c4.13-.25,6.51-2.23,7.46-6.26a23.73,23.73,0,0,0,.38-7.28c-.18-2.43-.17-4.87-.2-7.31-.09-6.06,2.8-10.64,7.16-14.49a6.78,6.78,0,0,1,1.49-1,5.68,5.68,0,0,1,7.11,1.07,10,10,0,0,1,2.21,3.51,17.05,17.05,0,0,1,1.16,6.12c.07,5.09-.4,10.15-.72,15.22-.21,3.28-.42,6.56-.41,9.85,0,.56,0,.95.78.92a60.93,60.93,0,0,0,7.76-.38c3.22-.49,4.83-2,5.6-5.16a16.45,16.45,0,0,0,.47-3.7c0-5.08.17-10.16,0-15.23A44.09,44.09,0,0,0,128.75,176.88Z" transform="translate(-82.4 -31.48)"/><path d="M279.88,258.41a6.58,6.58,0,0,0-7.15-3.18,20,20,0,0,0-4.53,1.47c-1.51.66-3,1.34-4.54,1.89a23.1,23.1,0,0,1-9.8,1.61,7.69,7.69,0,0,1-6-3.19,4.82,4.82,0,0,1,1.92-1c2.19-.82,4.46-1.39,6.7-2a59.08,59.08,0,0,0,12.5-4.82,19.52,19.52,0,0,0,5.59-4.43,11.42,11.42,0,0,0,2.8-7.53,15.73,15.73,0,0,0-14.65-15.82c-7.52-.61-14.23,1.69-20.46,5.72a19.15,19.15,0,0,0-7.06,8.29c-2.79,6.07-3.07,12.39-1.92,18.85.95,5.32,3.82,9.54,7.65,13.2a19,19,0,0,0,14.67,5.46,39.73,39.73,0,0,0,10.37-2c4.45-1.44,8.86-3,13.29-4.45.76-.26,1.52-.47,2.29-.66.49-.12.65-.35.54-.85A19.63,19.63,0,0,0,279.88,258.41Zm-30.7-20.7a22.68,22.68,0,0,1,11.1-3.55,5.08,5.08,0,0,1,2.46.47,2.72,2.72,0,0,1,.84,4.65,11.83,11.83,0,0,1-3.74,2.41,52.9,52.9,0,0,1-10,3.26,47.78,47.78,0,0,1-5,1C245.07,242.39,246.18,239.53,249.18,237.71Z" transform="translate(-82.4 -31.48)"/><path d="M171,208.71a5.63,5.63,0,0,1,1.94-.92c.32.93.66,1.86,1,2.81a.79.79,0,0,0,.85.65,27.35,27.35,0,0,0,7.86-.72c2.92-.88,4.07-2.85,3.45-5.83a18.54,18.54,0,0,0-1.53-4.2,39.66,39.66,0,0,1-2-4.82c-2-6-2.27-12.2-1.93-18.45a78.13,78.13,0,0,0,.15-10.15c-.34-4.45-2.44-6.91-6.74-8a15.33,15.33,0,0,0-4-.52,31.75,31.75,0,0,0-19,6.52,29.07,29.07,0,0,0-8.91,11.79c-2.57,5.66-4.08,11.53-3.25,17.81a17.7,17.7,0,0,0,10.27,14.41,23.6,23.6,0,0,0,8.47,2.24C162.35,211.72,166.9,211.26,171,208.71Zm-14.82-10.64c-2.75-1.1-4.07-3.38-4.42-6.24a12.61,12.61,0,0,1,.35-4.89,22.83,22.83,0,0,1,7.75-12.1,10.65,10.65,0,0,1,4.91-2.38,14.71,14.71,0,0,1,1.49-.11c.63,0,.86.26.9.88.11,2,0,4.08,0,6.55a52.67,52.67,0,0,0,.62,8.78c.17,1.28.3,2.57.4,3.86a4.65,4.65,0,0,1-2.06,4.38A10,10,0,0,1,156.22,198.07Z" transform="translate(-82.4 -31.48)"/><path d="M335.43,262.88c-1.08-.5-2.2-.93-3.3-1.39S331,261,331,259.78c.09-5.28.18-10.56.12-15.84q-.21-17.85-.4-35.71a11.86,11.86,0,0,0-.09-1.79c-.35-2.4-1.37-4.38-3.76-5.33a7.07,7.07,0,0,0-9.4,4.59,20.39,20.39,0,0,0-.61,5.92c0,6.58,0,13.15-.12,19.73-.14,12.25-.41,24.5.12,36.75a2.5,2.5,0,0,0,1.3,2.27,27.34,27.34,0,0,0,10.46,4.16c0,.1,0,.21-.05.31h3.29l-.06-.32h0a10.82,10.82,0,0,0,4.53-1.83C339.92,269.92,339.49,264.73,335.43,262.88Z" transform="translate(-82.4 -31.48)"/><path d="M305.65,262.51a32.05,32.05,0,0,0-3.59-1.45c-1-.37-1.59-.94-1.37-2.09a1.48,1.48,0,0,0,0-.3q.07-24.41.14-48.83c0-.9,0-1.79-.08-2.69a7.4,7.4,0,0,0-6-6.41A6.19,6.19,0,0,0,288,205.1a18.46,18.46,0,0,0-.7,6.65c.28,9,.06,17.92.08,26.88v22.7c0,2.49,0,5,0,7.46a1.34,1.34,0,0,0,.67,1.35,27.63,27.63,0,0,0,8.05,3.46,13.29,13.29,0,0,0,9.18-.77,6,6,0,0,0,3.32-4.35A5.25,5.25,0,0,0,305.65,262.51Z" transform="translate(-82.4 -31.48)"/><path d="M234.78,206.44a18.43,18.43,0,0,0,.46-4c0-3.49,0-7,0-11.76.05-2.28-.2-5.86-.24-9.45a7,7,0,0,1,1.62-5,23.27,23.27,0,0,1,5.66-4.6,5,5,0,0,1,6.09.44,17.33,17.33,0,0,0,2.68,1.9,6.11,6.11,0,0,0,9.06-4.37,7.42,7.42,0,0,0-1.6-6.3,14.53,14.53,0,0,0-10-5.36A19.81,19.81,0,0,0,236,160.83c-.78.44-1.57.88-2.33,1.35a2.77,2.77,0,0,1-3.45-.12,9.88,9.88,0,0,0-3.67-1.6,6.37,6.37,0,0,0-7.16,2.74,6.22,6.22,0,0,0,.91,7.8c.23.26.47.51.72.76a4.33,4.33,0,0,1,1.22,2.8c.16,2.19.12,4.38.08,6.57-.15,7.72-.51,15.43-.41,23.15,0,2.09.16,4.18.32,6.26.09,1.11.18,1.12,1.29,1.16a38.43,38.43,0,0,0,5.67-.24C232.46,211.08,234,209.67,234.78,206.44Z" transform="translate(-82.4 -31.48)"/><path d="M194.51,210c0,1.2,0,1.23,1.19,1.39a23.31,23.31,0,0,0,3.12.26c4.69,0,7.32-2.12,8.37-6.67a28.24,28.24,0,0,0,.54-7.72c-.31-6.62-.16-13.24-.11-19.86,0-2.88-.08-5.77-.24-8.65a27.47,27.47,0,0,0-1.14-7.2,5.42,5.42,0,0,0-5.53-3.93,6.18,6.18,0,0,0-6.11,5,27,27,0,0,0-.5,7.87c.36,5.91.54,11.83.49,17.75q0,3.28,0,6.57Q194.55,202.39,194.51,210Z" transform="translate(-82.4 -31.48)"/><path d="M206.81,139.94a6.21,6.21,0,0,0-4.86-3.29,7.37,7.37,0,0,0-8.35,8,11.69,11.69,0,0,0,.11,1.19,6.78,6.78,0,0,0,4.65,5.85,7.31,7.31,0,0,0,9.69-7.19A8.74,8.74,0,0,0,206.81,139.94Z" transform="translate(-82.4 -31.48)"/></svg>