<?xml version="1.0" encoding="utf-8"?>
<!-- Generator: Adobe Illustrator 24.0.1, SVG Export Plug-In . SVG Version: 6.00 Build 0)  -->
<svg version="1.1" id="Слой_1" xmlns="http://www.w3.org/2000/svg" xmlns:xlink="http://www.w3.org/1999/xlink" x="0px" y="0px"
	 viewBox="0 0 466.4 268.9" style="enable-background:new 0 0 466.4 268.9;" xml:space="preserve">
<style type="text/css">
	.st0{fill:#1D1D1B;}
</style>
<title>beautyimage</title>
<g>
	<path class="st0" d="M133.3,132c-11.8-14.2-22.2-25.3-28.9-42.8c-5.9-15.5-6.9-32.9,0.1-53c0,0-18.5,14.1-17.7,34.3
		c0.9,20.3,2.9,26.3,2.5,28.3c0,0-6.2,0.2-9.3-3.5c0,0,2.1,4.1,6.3,5.3c0,0-5.9,0.9-7.4-0.9c0,0,1.2,2.9,10,3.6
		c0,0,0.8,9.9-4.2,15.4c-4.9,5.4-11.4,9.6-6.9,12.4c4.5,2.7,9.6,5.1,9.8,8.6c0.2,3.4-3.7,7.2-2.4,9.1c1.3,1.9,5.1,3.5,4.6,5
		s-3.3,2.7-0.6,5.1c2.8,2.4,4.5,2,4.9,7.7c0.4,5.6-2,15.8,7.8,17.1c9.8,1.3,17-2.3,25.4-6c33.1-14.6,26.7,42.9-5.9,52.9
		c-24.1,7.3-64-0.4-73.9-26.9c12.1,40,66.9,57.2,100.9,26.4c17.8-16.2,18.1-38.2,15.5-52.8C161,160.7,146.5,148.1,133.3,132z"/>
	<path class="st0" d="M119.9,27.2c-39,51.2,26.9,93.7,48.7,132.3c8.9,15.8,8.4,43.7,2.9,60.8C225.8,123.8,100.7,113.5,119.9,27.2z"
		/>
	<path class="st0" d="M136.9,17.5c-37,47.7,30.9,87.9,51.6,128.5c8.3,16.1,8.7,46.7,3.1,63.8C243.6,113.8,117.7,103.8,136.9,17.5z"
		/>
	<polygon class="st0" points="216.5,104.5 216.5,57 209.5,57 209.5,74.5 188.1,74.5 188.1,57 181.1,57 181.1,104.5 188.1,104.5 
		188.1,77.6 209.5,77.6 209.5,104.5 	"/>
	<rect x="271.2" y="57" class="st0" width="7" height="47.5"/>
	<path class="st0" d="M297.2,86.3h5.2l13.4,18.1h8.6l-13.7-18.6c2.6-0.5,4.7-1.3,6.4-2.3c1.7-1.1,3-2.3,4-3.7s1.6-2.8,2-4.2
		s0.6-2.8,0.6-3.9c0-0.9-0.1-1.9-0.2-3c-0.2-1.1-0.5-2.2-0.9-3.2c-0.5-1.1-1.1-2.1-1.9-3.2c-0.8-1-2-1.9-3.3-2.7
		c-1.4-0.8-3-1.4-5-1.9s-4.3-0.7-7-0.7h-14.9v47.5h7V86.3H297.2z M297.2,60.1h4.1c1.9,0,3.7,0.2,5.5,0.4c1.8,0.3,3.4,0.9,4.8,1.7
		s2.5,2,3.4,3.5s1.3,3.4,1.3,5.8c0,2.1-0.3,3.9-1.1,5.4c-0.7,1.5-1.7,2.7-3,3.6s-2.9,1.6-4.7,2c-1.8,0.4-3.9,0.6-6.2,0.6h-4
		L297.2,60.1L297.2,60.1z"/>
	<path class="st0" d="M226.7,104.5l2.6-6.2h26l2.6,6.2h7.4L245.2,57h-7.5l2.6,6.1l-17.5,41.4H226.7z M242.1,67.6l11.8,27.6h-23.4
		L242.1,67.6z"/>
	<polygon class="st0" points="248.5,165.4 262.2,144.5 275.9,165.4 284.5,165.4 266.9,138.7 280.7,117.9 276.7,117.9 264.9,135.7 
		253.1,117.9 244.9,117.9 260.3,141.4 244.5,165.4 	"/>
	<polygon class="st0" points="211.2,165.4 240.3,165.4 240.3,162.2 218.2,162.2 218.2,138.6 239.6,138.6 239.6,135.4 218.2,135.4 
		218.2,121 240.3,121 240.3,117.9 211.2,117.9 	"/>
	<polygon class="st0" points="360.6,162.2 338.6,162.2 338.6,138.6 360,138.6 360,135.4 338.6,135.4 338.6,121 360.6,121 
		360.6,117.9 331.6,117.9 331.6,165.4 360.6,165.4 	"/>
	<path class="st0" d="M397.1,144.4c1.7-1.1,3-2.3,4-3.7c1-1.4,1.6-2.8,2-4.2c0.4-1.4,0.6-2.8,0.6-3.9c0-0.9-0.1-1.9-0.2-3
		c-0.2-1.1-0.5-2.2-0.9-3.2c-0.5-1.1-1.1-2.1-1.9-3.2c-0.8-1-2-1.9-3.3-2.7c-1.4-0.8-3-1.4-5-1.9s-4.3-0.7-7-0.7h-14.9v47.5h7v-18.1
		h5.2l13.4,18.1h8.6l-14-18.6C393.3,146.3,395.4,145.5,397.1,144.4z M381.2,144.1h-4V121h4.1c1.9,0,3.7,0.2,5.5,0.4
		c1.8,0.3,3.4,0.9,4.8,1.7c1.4,0.8,2.5,2,3.4,3.5s1.3,3.4,1.3,5.8c0,2.1-0.3,3.9-1.1,5.4c-0.7,1.5-1.7,2.7-3,3.6
		c-1.3,0.9-2.9,1.6-4.7,2C385.6,143.9,383.5,144.1,381.2,144.1z"/>
	<path class="st0" d="M322.3,143.1c0.5-1.3,0.9-2.6,1.1-3.9s0.3-2.5,0.3-3.6c0-1.1-0.1-2.4-0.2-3.7c-0.2-1.3-0.5-2.6-1-3.9
		c-0.5-1.3-1.3-2.6-2.2-3.8c-1-1.2-2.3-2.3-3.9-3.2s-3.6-1.7-6-2.2c-2.4-0.6-5.2-0.9-8.6-0.9h-11.9v47.5h7v-12.5h4.9
		c3.2,0,6.1-0.3,8.4-0.8c2.4-0.5,4.3-1.3,6-2.2c1.6-0.9,2.9-2,3.9-3.2C321,145.6,321.8,144.3,322.3,143.1z M315.2,141.9
		c-0.7,1.8-1.8,3.3-3.1,4.5c-1.4,1.2-3,2-4.9,2.6c-1.9,0.5-4.1,0.8-6.4,0.8h-3.9V121h4c1.4,0,2.7,0.1,4,0.2c1.3,0.2,2.5,0.4,3.7,0.8
		c1.1,0.4,2.2,0.9,3.1,1.6c1,0.7,1.8,1.5,2.4,2.6c0.7,1.1,1.2,2.3,1.6,3.8s0.6,3.2,0.6,5.2C316.3,137.9,315.9,140.1,315.2,141.9z"/>
	<polygon class="st0" points="407.6,117.9 407.6,121 419.2,121 419.2,165.4 426.2,165.4 426.2,121 437.7,121 437.7,117.9 	"/>
	<path class="st0" d="M382.1,175.8l0.8,2l-5.7,13.6h1.3l0.8-2h8.5l0.9,2h2.4l-6.5-15.6H382.1z M379.8,188.3l3.8-9l3.9,9H379.8z"/>
	<polygon class="st0" points="374.2,188.4 365.3,175.8 362.5,175.8 363.8,177.8 363.8,191.4 364.9,191.4 364.9,179.3 373.5,191.4 
		375.3,191.4 375.3,175.8 374.2,175.8 	"/>
	<path class="st0" d="M289.1,179.4c-0.4-0.6-0.8-1.1-1.3-1.6s-1.1-0.9-1.7-1.3c-0.6-0.4-1.3-0.6-2-0.8c-0.7-0.2-1.4-0.3-2.2-0.3
		c-0.8,0-1.5,0.1-2.2,0.3c-0.7,0.2-1.4,0.5-2,0.8s-1.2,0.8-1.7,1.3s-0.9,1-1.3,1.6c-0.4,0.6-0.6,1.2-0.8,1.9
		c-0.2,0.7-0.3,1.4-0.3,2.1c0,0.8,0.1,1.5,0.3,2.2c0.2,0.7,0.5,1.3,0.8,1.9c0.4,0.6,0.8,1.2,1.3,1.6c0.5,0.5,1.1,0.9,1.7,1.3
		c0.6,0.4,1.3,0.6,2,0.8c0.7,0.2,1.4,0.3,2.2,0.3c0.8,0,1.5-0.1,2.2-0.3c0.7-0.2,1.4-0.5,2-0.8c0.6-0.4,1.2-0.8,1.7-1.3
		s0.9-1,1.3-1.6c0.4-0.6,0.6-1.2,0.8-1.9c0.2-0.7,0.3-1.4,0.3-2.2c0-0.7-0.1-1.5-0.3-2.1C289.7,180.7,289.4,180,289.1,179.4z
		 M287.4,186.3c-0.3,0.9-0.6,1.6-1.1,2.3c-0.5,0.6-1.1,1.1-1.8,1.5c-0.7,0.4-1.6,0.6-2.5,0.6c-1,0-1.8-0.2-2.5-0.6
		c-0.7-0.4-1.3-0.9-1.8-1.5c-0.5-0.6-0.9-1.4-1.1-2.3c-0.3-0.9-0.4-1.8-0.4-2.8s0.1-1.9,0.4-2.8c0.2-0.9,0.6-1.6,1.1-2.3
		c0.5-0.6,1.1-1.1,1.8-1.5c0.7-0.4,1.6-0.5,2.5-0.5c1,0,1.8,0.2,2.5,0.5c0.7,0.4,1.3,0.9,1.8,1.5c0.5,0.6,0.9,1.4,1.1,2.3
		c0.2,0.9,0.4,1.8,0.4,2.8C287.8,184.5,287.7,185.4,287.4,186.3z"/>
	<path class="st0" d="M257.8,179.1c-0.2-0.4-0.4-0.8-0.7-1.2c-0.3-0.4-0.7-0.8-1.3-1.1c-0.5-0.3-1.2-0.6-2-0.7
		c-0.8-0.2-1.7-0.3-2.8-0.3h-3.9v15.6h2.3v-4.1h1.6c1.1,0,2-0.1,2.8-0.3s1.4-0.4,2-0.7c0.5-0.3,1-0.6,1.3-1c0.3-0.4,0.6-0.8,0.8-1.2
		c0.2-0.4,0.3-0.8,0.4-1.3c0.1-0.4,0.1-0.8,0.1-1.2c0-0.4,0-0.8-0.1-1.2C258.1,180,258,179.5,257.8,179.1z M255.4,183.7
		c-0.2,0.6-0.6,1.1-1,1.5c-0.4,0.4-1,0.7-1.6,0.8c-0.6,0.2-1.3,0.3-2.1,0.3h-1.3v-9.5h1.3c0.5,0,0.9,0,1.3,0.1
		c0.4,0,0.8,0.1,1.2,0.3c0.4,0.1,0.7,0.3,1,0.5s0.6,0.5,0.8,0.9c0.2,0.3,0.4,0.8,0.5,1.2c0.1,0.5,0.2,1.1,0.2,1.7
		C255.8,182.3,255.7,183.1,255.4,183.7z"/>
	<polygon class="st0" points="395.4,175.8 393.1,175.8 393.1,191.4 401.8,191.4 401.8,190.3 395.4,190.3 	"/>
	<rect x="339.4" y="175.8" class="st0" width="2.3" height="15.6"/>
	<path class="st0" d="M359.9,179.4c-0.4-0.6-0.8-1.1-1.3-1.6s-1.1-0.9-1.7-1.3c-0.6-0.4-1.3-0.6-2-0.8c-0.7-0.2-1.4-0.3-2.2-0.3
		c-0.8,0-1.5,0.1-2.2,0.3s-1.4,0.5-2,0.8s-1.2,0.8-1.7,1.3s-0.9,1-1.3,1.6c-0.4,0.6-0.6,1.2-0.8,1.9c-0.2,0.7-0.3,1.4-0.3,2.1
		c0,0.8,0.1,1.5,0.3,2.2c0.2,0.7,0.5,1.3,0.8,1.9c0.4,0.6,0.8,1.2,1.3,1.6c0.5,0.5,1.1,0.9,1.7,1.3c0.6,0.4,1.3,0.6,2,0.8
		c0.7,0.2,1.4,0.3,2.2,0.3c0.8,0,1.5-0.1,2.2-0.3s1.4-0.5,2-0.8c0.6-0.4,1.2-0.8,1.7-1.3s0.9-1,1.3-1.6c0.4-0.6,0.6-1.2,0.8-1.9
		c0.2-0.7,0.3-1.4,0.3-2.2c0-0.7-0.1-1.5-0.3-2.1C360.5,180.7,360.3,180,359.9,179.4z M358.2,186.3c-0.3,0.9-0.6,1.6-1.1,2.3
		c-0.5,0.6-1.1,1.1-1.8,1.5c-0.7,0.4-1.6,0.6-2.5,0.6c-1,0-1.8-0.2-2.5-0.6c-0.7-0.4-1.3-0.9-1.8-1.5c-0.5-0.6-0.9-1.4-1.1-2.3
		c-0.3-0.9-0.4-1.8-0.4-2.8s0.1-1.9,0.4-2.8c0.3-0.9,0.6-1.6,1.1-2.3c0.5-0.6,1.1-1.1,1.8-1.5c0.7-0.4,1.6-0.5,2.5-0.5
		c1,0,1.8,0.2,2.5,0.5c0.7,0.4,1.3,0.9,1.8,1.5c0.5,0.6,0.9,1.4,1.1,2.3c0.3,0.9,0.4,1.8,0.4,2.8S358.5,185.4,358.2,186.3z"/>
	<polygon class="st0" points="305.5,191.4 315,191.4 315,190.3 307.8,190.3 307.8,182.6 314.8,182.6 314.8,181.5 307.8,181.5 
		307.8,176.8 315,176.8 315,175.8 305.5,175.8 	"/>
	<polygon class="st0" points="293,191.4 295.3,191.4 295.3,182.6 302.3,182.6 302.3,181.5 295.3,181.5 295.3,176.8 302.5,176.8 
		302.5,175.8 293,175.8 	"/>
	<path class="st0" d="M269.6,184.5c0.5-0.4,1-0.8,1.3-1.2c0.3-0.4,0.5-0.9,0.7-1.4c0.1-0.5,0.2-0.9,0.2-1.3c0-0.3,0-0.6-0.1-1
		c-0.1-0.3-0.2-0.7-0.3-1.1c-0.1-0.4-0.4-0.7-0.6-1c-0.3-0.3-0.6-0.6-1.1-0.9c-0.4-0.3-1-0.5-1.6-0.6c-0.6-0.2-1.4-0.2-2.3-0.2h-4.9
		v15.6h2.3v-5.9h1.7l4.4,5.9h2.8l-4.5-6.1C268.3,185.1,269,184.9,269.6,184.5z M264.4,184.4h-1.3v-7.6h1.3c0.6,0,1.2,0.1,1.8,0.1
		c0.6,0.1,1.1,0.3,1.6,0.6c0.5,0.3,0.8,0.7,1.1,1.1c0.3,0.5,0.4,1.1,0.4,1.9c0,0.7-0.1,1.3-0.3,1.8c-0.2,0.5-0.6,0.9-1,1.2
		c-0.4,0.3-0.9,0.5-1.5,0.7C265.8,184.3,265.2,184.4,264.4,184.4z"/>
	<path class="st0" d="M325,185.4c-0.3-0.4-0.6-0.8-1-1.2c-0.4-0.4-0.8-0.8-1.2-1.2l-1.8-2c-0.6-0.6-1-1.1-1.2-1.5
		c-0.2-0.4-0.4-0.7-0.4-1.1c0-0.3,0.1-0.6,0.2-0.8c0.1-0.2,0.3-0.4,0.5-0.5c0.2-0.1,0.4-0.2,0.7-0.3c0.2-0.1,0.4-0.1,0.6-0.1
		c0.4,0,0.7,0,1.1,0.1c0.3,0,0.6,0.1,0.9,0.1c0.3,0.1,0.6,0.1,0.9,0.2c0.3,0.1,0.5,0.2,0.8,0.3v-1.1c-0.4-0.1-0.7-0.2-1-0.3
		c-0.3-0.1-0.6-0.2-0.9-0.3c-0.3-0.1-0.6-0.1-1-0.2c-0.3,0-0.7-0.1-1.2-0.1s-1,0-1.5,0.1c-0.5,0.1-0.9,0.3-1.3,0.5s-0.7,0.5-0.9,0.9
		c-0.2,0.4-0.3,0.8-0.3,1.4c0,0.3,0,0.6,0.1,0.8c0.1,0.3,0.2,0.6,0.4,0.9c0.2,0.3,0.4,0.7,0.8,1.1c0.3,0.4,0.7,0.9,1.2,1.5l1.9,2
		c0.3,0.3,0.6,0.6,0.8,0.9c0.3,0.3,0.5,0.6,0.7,0.8c0.2,0.3,0.3,0.5,0.4,0.8s0.2,0.5,0.2,0.7c0,0.8-0.3,1.4-0.8,1.8
		c-0.5,0.4-1.3,0.6-2.3,0.6c-0.3,0-0.6,0-0.9-0.1c-0.3-0.1-0.6-0.1-0.9-0.2c-0.3-0.1-0.6-0.2-0.9-0.3s-0.6-0.3-0.8-0.4l-0.1,1.1
		c0.3,0.2,0.7,0.4,1,0.5c0.3,0.1,0.7,0.3,1.1,0.4c0.4,0.1,0.8,0.2,1.2,0.2c0.4,0.1,0.9,0.1,1.3,0.1c0.5,0,1.1-0.1,1.6-0.2
		c0.5-0.1,1-0.4,1.5-0.7c0.4-0.3,0.8-0.7,1-1.2c0.3-0.5,0.4-1.1,0.4-1.9c0-0.4-0.1-0.8-0.2-1.1C325.5,186.2,325.3,185.8,325,185.4z"
		/>
	<path class="st0" d="M335.7,185.4c-0.3-0.4-0.6-0.8-1-1.2c-0.4-0.4-0.8-0.8-1.2-1.2l-1.8-2c-0.6-0.6-1-1.1-1.2-1.5
		c-0.2-0.4-0.4-0.7-0.4-1.1c0-0.3,0.1-0.6,0.2-0.8c0.1-0.2,0.3-0.4,0.5-0.5c0.2-0.1,0.4-0.2,0.7-0.3c0.2-0.1,0.4-0.1,0.6-0.1
		c0.4,0,0.7,0,1.1,0.1c0.3,0,0.6,0.1,0.9,0.1c0.3,0.1,0.6,0.1,0.9,0.2c0.3,0.1,0.5,0.2,0.8,0.3v-1.1c-0.4-0.1-0.7-0.2-1-0.3
		c-0.3-0.1-0.6-0.2-0.9-0.3c-0.3-0.1-0.6-0.1-1-0.2c-0.3,0-0.8-0.1-1.2-0.1c-0.5,0-1,0-1.5,0.1c-0.5,0.1-0.9,0.3-1.3,0.5
		s-0.7,0.5-0.9,0.9c-0.2,0.4-0.3,0.8-0.3,1.4c0,0.3,0,0.6,0.1,0.8c0.1,0.3,0.2,0.6,0.4,0.9c0.2,0.3,0.4,0.7,0.8,1.1
		c0.3,0.4,0.7,0.9,1.2,1.5l1.9,2c0.3,0.3,0.6,0.6,0.8,0.9c0.3,0.3,0.5,0.6,0.7,0.8c0.2,0.3,0.3,0.5,0.4,0.8s0.2,0.5,0.2,0.7
		c0,0.8-0.3,1.4-0.8,1.8c-0.5,0.4-1.3,0.6-2.3,0.6c-0.3,0-0.6,0-0.9-0.1c-0.3-0.1-0.6-0.1-0.9-0.2c-0.3-0.1-0.6-0.2-0.9-0.3
		s-0.6-0.3-0.8-0.4l-0.1,1.1c0.3,0.2,0.7,0.4,1,0.5c0.3,0.1,0.7,0.3,1.1,0.4c0.4,0.1,0.8,0.2,1.2,0.2c0.4,0.1,0.9,0.1,1.3,0.1
		c0.5,0,1.1-0.1,1.6-0.2c0.5-0.1,1-0.4,1.5-0.7c0.4-0.3,0.8-0.7,1-1.2c0.3-0.5,0.4-1.1,0.4-1.9c0-0.4-0.1-0.8-0.2-1.1
		C336.2,186.2,336,185.8,335.7,185.4z"/>
</g>
</svg>
