<svg id="Слой_1" data-name="Слой 1" xmlns="http://www.w3.org/2000/svg" viewBox="0 0 272.04 257.08"><title>ilu</title><path d="M114,378.26q0-127.89,0-255.76c0-.85.19-1,1-1q135.38,0,270.75,0V376.54c0,1.86.2,1.67-1.72,1.69H115.81ZM249.89,132.14H126.36c-1.89,0-1.7-.19-1.7,1.7V365.68c0,1.91-.18,1.71,1.69,1.71H373.41c1.88,0,1.7.2,1.7-1.7V133.85c0-1.89.19-1.71-1.69-1.71Z" transform="translate(-113.98 -121.46)"/><path d="M114,378.26l1.81,0H384.05c1.92,0,1.72.17,1.72-1.69V121.48c.07,0,.24-.11.23.11s0,.61,0,.91q0,127.45,0,254.91c0,.92-.19,1.1-1.1,1.1q-135,0-269.9,0C114.69,378.47,114.25,378.73,114,378.26Z" transform="translate(-113.98 -121.46)"/><path d="M266,255c0,10.68-.09,21.36,0,32a21.24,21.24,0,0,0,6.64,15.82,22.88,22.88,0,0,0,12.24,5.92,24.39,24.39,0,0,0,19.89-5.3,20.23,20.23,0,0,0,7.38-12.73,38.54,38.54,0,0,0,.45-6.53q0-30.4,0-60.8c0-2-.22-1.78,1.85-1.78,5.88,0,11.77,0,17.66,0,1,0,1.37.17,1.37,1.29,0,20.57.12,41.13-.11,61.7a43.73,43.73,0,0,1-8.73,26.62,37.48,37.48,0,0,1-17.5,12.71,49.43,49.43,0,0,1-13.78,2.78c-9.9.64-19.42-.66-28.23-5.47a35.46,35.46,0,0,1-15.53-16.81,50.37,50.37,0,0,1-4.29-17.22c-.14-1.78-.17-3.54-.18-5.31V223.1c0-1.51,0-1.51,1.55-1.51h17.78c1.5,0,1.5,0,1.5,1.56V255Z" transform="translate(-113.98 -121.46)"/><path d="M226.57,249.88v74.25c0,1.61,0,1.61-1.57,1.61-6,0-11.92,0-17.89,0-1.05,0-1.41-.22-1.41-1.35q0-74.66,0-149.31c0-1,.23-1.35,1.31-1.34q9.11.08,18.22,0c1.12,0,1.37.34,1.37,1.4Q226.56,212.52,226.57,249.88Z" transform="translate(-113.98 -121.46)"/><path d="M166.32,273.53q0-25.24,0-50.49c0-1.1.21-1.49,1.42-1.48,6,.07,12.07.06,18.11,0,1.12,0,1.37.34,1.37,1.41q0,50.72,0,101.43c0,1-.23,1.36-1.31,1.36-6.11-.06-12.23,0-18.34,0-1,0-1.25-.32-1.24-1.29Q166.33,299,166.32,273.53Z" transform="translate(-113.98 -121.46)"/><path d="M289.33,177.62c11.36,0,22.72.09,34.08,0a9.77,9.77,0,0,1,.86,19.52c-1.47,0-2.94,0-4.41,0H255.22a9.75,9.75,0,0,1-.75-19.48C266.09,177.59,277.71,177.62,289.33,177.62Z" transform="translate(-113.98 -121.46)"/><path d="M176.81,173.79a13.48,13.48,0,0,1,13.51,13.59,13.58,13.58,0,1,1-13.51-13.59Z" transform="translate(-113.98 -121.46)"/><path d="M346.92,173.8a13.18,13.18,0,0,1-13.62-13.54c.06-7.74,5.66-13.6,13.67-13.57a13.56,13.56,0,1,1-.05,27.11Zm0-24.72c-5.51-.17-11.06,3.93-11.12,11.19a10.85,10.85,0,0,0,10.94,11.27c6.47,0,11.07-4.71,11.21-11.21A10.94,10.94,0,0,0,346.94,149.08Z" transform="translate(-113.98 -121.46)"/><path d="M341.85,160.16q0-3.22,0-6.45c0-.52,0-1,.74-1,2.25.09,4.52-.2,6.77.2,2.1.38,3.32,1.48,3.56,3.25.34,2.44-.46,4.25-2.43,5.09-.91.39-.87.7-.37,1.4,1,1.4,1.95,2.86,2.94,4.29.35.51.27.67-.37.73-1.45.14-2.58-.09-3.32-1.6-.64-1.31-1.65-2.43-2.41-3.69-.52-.89-1.3-.67-2-.57s-.4.79-.41,1.22c0,1.21-.08,2.42,0,3.62s-.56,1-1.28,1-1.47.25-1.43-1C341.89,164.53,341.85,162.34,341.85,160.16Zm4.83-.85a8,8,0,0,0,2.34-.23,1.85,1.85,0,0,0-.13-3.62,8.75,8.75,0,0,0-2.45-.23c-2.17,0-1.92-.24-1.91,1.94C344.54,159.62,344.15,159.27,346.68,159.31Z" transform="translate(-113.98 -121.46)"/></svg>