<svg id="Слой_1" data-name="Слой 1" xmlns="http://www.w3.org/2000/svg" viewBox="0 0 337.38 250.16"><title>kallos</title><path d="M343.55,340.42l-1.27.63c.85,2.41,2.1,3.36,4.36,3.36a4.31,4.31,0,0,0,4.46-4.51,4.6,4.6,0,0,0-1.33-3.28,9.75,9.75,0,0,0-2.79-1.84c-2-1-2.7-1.88-2.7-3.33a2.49,2.49,0,0,1,2.6-2.57c1.28,0,2.11.66,2.77,2.2l1.27-.66a4.19,4.19,0,0,0-8.15,1.13,4.3,4.3,0,0,0,1.39,3.21,11.42,11.42,0,0,0,2.6,1.61c2.11,1.11,2.82,2,2.82,3.66a2.91,2.91,0,0,1-3,3.08,2.74,2.74,0,0,1-2.42-1.35,8.15,8.15,0,0,1-.64-1.34M315.94,336a8.6,8.6,0,0,0,1.79,5.17,8.23,8.23,0,0,0,6.76,3.21,8.85,8.85,0,0,0,4.07-.91v-1.64a7.09,7.09,0,1,1-4.07-13,7.28,7.28,0,0,1,4.07,1.22v-1.61a9,9,0,0,0-4-.91,8.44,8.44,0,0,0-8.58,8.45m-14.62-8.2h-1.47v16.34h1.47Zm-19.41,16.34v-15H286v-1.3h-9.62v1.3h4.09v15Zm-18.5-43.29h32.18v-7.74h-24V266.78h-8.22ZM276,371.42a2.24,2.24,0,1,1,4.45,0,2.3,2.3,0,0,1-2.28,2.55,2.26,2.26,0,0,1-2.17-2.55m2.24-3.49c-1.1,0-1.85-.94-1.85-2.33s.77-2.31,1.8-2.31,1.89,1,1.89,2.36-.75,2.28-1.84,2.28m-3.38,3.47a3.46,3.46,0,0,0,.89,2.54,3.65,3.65,0,0,0,2.49,1,3.3,3.3,0,0,0,3.35-3.59,3.13,3.13,0,0,0-1.75-3,3,3,0,0,0,1.38-2.7,3.52,3.52,0,0,0-.73-2.32,3.16,3.16,0,0,0-2.23-1,3.21,3.21,0,0,0-2.11.9,3.39,3.39,0,0,0-.9,2.39,3.19,3.19,0,0,0,1.34,2.76,3.07,3.07,0,0,0-1.73,3m-2.48-7.92-5.73,11.29h1.23l6.27-12.26H266.8v1Zm-10.16,5.11a2.35,2.35,0,0,1-2.4-2.59,2.53,2.53,0,0,1,2.42-2.71A2.56,2.56,0,0,1,264.8,366a3.1,3.1,0,0,1-.46,1.63,2.28,2.28,0,0,1-2.08,1m-.09,1a2.93,2.93,0,0,0,1.21-.24l-3.78,5.08.89.68,3.83-5.17a6.49,6.49,0,0,0,1.62-4,3.5,3.5,0,0,0-3.64-3.62,3.46,3.46,0,0,0-3.59,3.64,3.37,3.37,0,0,0,3.46,3.6m-5.59-26.69V336H263v-1.3h-6.44v-5.6H263v-1.3h-7.91v16.34H263v-1.3Zm-3.18,19.64-.48,1h1.71v11.29h1.11V362.51ZM240,370.15a2.44,2.44,0,0,1,2.41-2.24,2.26,2.26,0,0,1,2.35,2.24Zm-1,.76c0,2.38,1.41,4,3.51,4a3.43,3.43,0,0,0,3.12-1.93l-.83-.45a2.53,2.53,0,0,1-2.28,1.45C241,374,240,372.85,240,371h5.85a5.65,5.65,0,0,0-.24-1.87A3.2,3.2,0,0,0,242.5,367c-2.09,0-3.54,1.6-3.54,3.94m-7.35,0a3.87,3.87,0,0,0,3.93,3.95,3.79,3.79,0,0,0,2.36-.73v-1.31a2.79,2.79,0,0,1-2.3,1.11,2.89,2.89,0,0,1-2.94-3,3,3,0,0,1,3-3,3,3,0,0,1,2.26,1v-1.29a4,4,0,0,0-6.29,3.29m-6.42-3.84h-1v7.67h1v-4a4.9,4.9,0,0,1,.13-1.27,2,2,0,0,1,2.06-1.56,1.51,1.51,0,0,1,1.58,1,3.76,3.76,0,0,1,.15,1.28v4.6h1v-4.66a4.23,4.23,0,0,0-.19-1.65,2.43,2.43,0,0,0-2.46-1.49,2.68,2.68,0,0,0-2.3,1.12Zm1.11-39.76-2.77,16.83h1.52l1.6-10a11.51,11.51,0,0,0,.17-1.32l.05-.51,0-.27a13.41,13.41,0,0,0,.59,1.59l4.7,11,4.66-11c.29-.73.41-1.1.56-1.56l0,.27c.08.76.15,1.27.22,1.88l1.6,9.93h1.49L238,327.34l-5,11.71c-.25.61-.52,1.34-.81,2.18-.25-.64-.52-1.33-.91-2.26Zm-19.47-26.46H239v-7.74H215V266.78h-8.21Zm15.56,66.22h-1v7.67h1Zm-1.25-3.35a.73.73,0,1,0,1.45,0,.71.71,0,0,0-.72-.71.72.72,0,0,0-.73.71M214.3,372l-1,.48c.64,1.8,1.58,2.52,3.27,2.52a3.24,3.24,0,0,0,3.35-3.38,3.46,3.46,0,0,0-1-2.47,7.31,7.31,0,0,0-2.09-1.38c-1.49-.75-2-1.41-2-2.5a1.87,1.87,0,0,1,1.94-1.93c1,0,1.59.5,2.08,1.66l1-.5a3,3,0,0,0-3-2.13,2.92,2.92,0,0,0-3.14,3,3.22,3.22,0,0,0,1,2.41,9.6,9.6,0,0,0,2,1.21c1.58.83,2.12,1.51,2.12,2.74A2.17,2.17,0,0,1,216.6,374a2.06,2.06,0,0,1-1.82-1,5.72,5.72,0,0,1-.48-1m-11.77-31.53-1.28.63c.86,2.41,2.11,3.36,4.36,3.36a4.31,4.31,0,0,0,4.46-4.51,4.64,4.64,0,0,0-1.32-3.28,9.84,9.84,0,0,0-2.8-1.84c-2-1-2.69-1.88-2.69-3.33a2.49,2.49,0,0,1,2.6-2.57c1.27,0,2.1.66,2.76,2.2l1.28-.66a4.2,4.2,0,0,0-8.16,1.13,4.31,4.31,0,0,0,1.4,3.21,11.52,11.52,0,0,0,2.59,1.61c2.11,1.11,2.82,2,2.82,3.66a2.9,2.9,0,0,1-3,3.08,2.76,2.76,0,0,1-2.43-1.35,7.52,7.52,0,0,1-.63-1.34M172.13,336a7,7,0,0,1,12-5,7.67,7.67,0,0,1,2,5.1,7.06,7.06,0,0,1-7,7,6.92,6.92,0,0,1-6.93-7.13m1-6.05a8.78,8.78,0,0,0-2.55,6.13,8.52,8.52,0,0,0,2.36,5.8,8.25,8.25,0,0,0,6.12,2.55,8.4,8.4,0,0,0,8.67-8.33,8.67,8.67,0,0,0-14.6-6.15M143.89,336a8.59,8.59,0,0,0,1.78,5.17,8.23,8.23,0,0,0,6.76,3.21,8.85,8.85,0,0,0,4.07-.91v-1.64a7.09,7.09,0,1,1-4.07-13,7.26,7.26,0,0,1,4.07,1.22v-1.61a8.93,8.93,0,0,0-4-.91,8.43,8.43,0,0,0-8.57,8.45m-21.57-35.15-18.77-20.6,18.23-13.5H109.22l-19.7,14.57V266.78H81.31v34.1h8.21V290.69l7.61-5.63,14.45,15.82Zm44.5-14.68H156.07L161.46,276Zm16.82,14.68-18-34.1h-8.32l-18,34.1h9.08l3.61-6.94h19l3.6,6.94Zm27.78-96V172.26h-3.85v32.53c-4.39-.17-6.5-.81-9-2.58-4.62-3.14-7.11-8.53-7.11-15.27,0-7.56,3.2-13.46,8.65-16.09,3.27-1.54,6.16-2,12.31-2h2.31v36Zm0,3.4h7.13V165.46h-6.16c-7.18,0-10.32.51-14.1,2.25-6.67,3.14-11,10.64-11,19,0,8.79,4.61,16.48,11.92,19.75a23.52,23.52,0,0,0,8.39,1.67v3.47H189.73V215h21.69Zm24.66-65.57a.83.83,0,0,1-.83.83.83.83,0,1,1,.83-.83m2.22,0a3,3,0,1,0-3,3,3,3,0,0,0,3-3m1.6,8.71,2.06-2.07-2.06-2.07-2.07,2.07Zm8-5.48-2.72,2.73,2.72,2.73,2.73-2.73Zm1.2-6a1.28,1.28,0,1,1-1.28-1.28,1.28,1.28,0,0,1,1.28,1.28m2.22.08a3.53,3.53,0,1,0-3.53,3.53,3.53,3.53,0,0,0,3.53-3.53m6.64,9.31-2.07-2.07-2.07,2.07,2.07,2.07Zm3.21-6.68a.83.83,0,1,1-.83-.82.83.83,0,0,1,.83.82m2.15,0a3,3,0,1,0-3,3,3,3,0,0,0,3-3m-.77,4.89a21.77,21.77,0,0,0-3.65,5.63H236.72A22.8,22.8,0,0,0,233,147.6c-5.09-5.89-1-9.93,2.11-9.66a6.41,6.41,0,0,1,2,.56c2,1,3.54,2.8,5.11,4.26.15-5.24.56-7.32,5.56-8.16,5.07.84,5.22,2.47,5.53,8a30.25,30.25,0,0,1,5.12-4.07,6.4,6.4,0,0,1,2.06-.57c3-.27,7.16,3.75,2.05,9.66M248.87,129l-1.09,3.13L246.63,129l1-.79Zm15.91,20.7c6.15-7.06,2.37-15.36-4.53-14.74a9.86,9.86,0,0,0-3.09.83,13.23,13.23,0,0,0-1.73,1.06,7.82,7.82,0,0,0-4.31-4.18L253,128.3l-5.23-3.38-5.23,3.38,1.89,4.32a7.8,7.8,0,0,0-4.3,4.16,12.54,12.54,0,0,0-1.74-1,9.52,9.52,0,0,0-3.06-.84c-6.93-.6-10.72,7.68-4.57,14.74a18.62,18.62,0,0,1,2.65,3.85c.7,1.28,1.36,2.77,1.36,2.77h26.07a23.48,23.48,0,0,1,3.93-6.62m38.92,37.29c0,6.74-2.5,12.13-7.12,15.27-2.53,1.77-4.64,2.41-9,2.58V172.26H283.7v32.58h-3.28v-36h2.31c6.16,0,9,.45,12.31,2,5.45,2.63,8.66,8.53,8.66,16.09m4.17-.19c0-8.4-4.36-15.9-11-19-3.79-1.74-6.93-2.25-14.11-2.25h-6.16v42.78h7.13V215h21.7v-3.4H287.55v-3.47a23.43,23.43,0,0,0,8.39-1.67c7.31-3.27,11.93-11,11.93-19.75m-77.16,2.44-3.18,16.27h2.36l1.63-9.15,4.35,9.85,4.48-9.84,1.46,9.14h2.35l-2.87-16.27L235.91,201Zm30.09-11a10.58,10.58,0,0,0,.24-2.62v-9.8h-2.29v9.8a6.29,6.29,0,0,1-.41,2.7,1.44,1.44,0,0,1-1.41.78,2.76,2.76,0,0,1-1.56-.56l-1.12,2a5.09,5.09,0,0,0,2.68.75,3.82,3.82,0,0,0,3-1.34,4,4,0,0,0,.83-1.66m-30-12.42h2.28v6.05l5.9-6.05h3l-6.85,6.86L242,180.9h-3l-5.45-6.74-.48.48v6.26h-2.28Zm-5.08,20.07h21.88V161.76H225.7Zm39.56,20.55-11-11.52v10.6h-2.29V189.29l11,11.55V190.32h2.29Zm4.24-1.77V185.83H247.58V212.1c3.06-2.09,7.21-2.16,12.57-2,7.66.24,9.35-.94,9.35-5.46m-60,26.29a2.63,2.63,0,0,0,.29-2.08,2.26,2.26,0,0,0-.82-1.32,3.78,3.78,0,0,0-1.73-.63l-.91-.13q-1-.15-1.14-.75a.94.94,0,0,1,.16-.81,1.34,1.34,0,0,1,.79-.52,1.54,1.54,0,0,1,.74,0,2,2,0,0,1,.7.51l.86-.85a2.56,2.56,0,0,0-2.58-.84,2.68,2.68,0,0,0-1.62,1.08,2,2,0,0,0-.32,1.74A2.36,2.36,0,0,0,206.1,228l.88.14a2.59,2.59,0,0,1,.61.15,1.65,1.65,0,0,1,.44.22,1,1,0,0,1,.3.32,1.33,1.33,0,0,1,.18.42,1.41,1.41,0,0,1-.14,1.09,1.48,1.48,0,0,1-2.13.38,2.47,2.47,0,0,1-.55-.94l-1.19.6a2.93,2.93,0,0,0,1.31,1.57,2.57,2.57,0,0,0,1.94.2,2.73,2.73,0,0,0,1.71-1.22m4.65-.36,1.26-.24-1.63-8.37-1.26.24Zm6.06-7,7,5.68-1.11-9-1.27.15.72,5.88-7-5.69,1.12,9,1.27-.15Zm15.25,4.72a4.7,4.7,0,0,0,2.29-.74l-.08-1.55a5.63,5.63,0,0,1-.58.48,2.85,2.85,0,0,1-.53.33,2.73,2.73,0,0,1-1.14.28,3,3,0,0,1-2.27-.81,3.13,3.13,0,0,1-1-2.21,3.16,3.16,0,0,1,.78-2.34,2.93,2.93,0,0,1,2.17-1.06,3.59,3.59,0,0,1,2.35.81l-.08-1.52a4.43,4.43,0,0,0-5.59,1.23,4.45,4.45,0,0,0-.93,3,4.38,4.38,0,0,0,4.63,4.14m6.19-.42,4.71-.08,0-1.21-3.42.06,0-2.84,3.32-.06,0-1.21-3.32.06,0-2.05,3.41-.06,0-1.21-4.7.08Zm17.73.4.6-8.51-2.05-.14-.79,1.15,1.47.1-.51,7.31Zm9.66-5.12a1.55,1.55,0,0,1-.59,1.08,1.6,1.6,0,0,1-2.26-.24,1.55,1.55,0,0,1-.35-1.2,1.53,1.53,0,0,1,.59-1.07,1.61,1.61,0,0,1,2.61,1.43m1.25.12a2.61,2.61,0,0,0-.65-2,2.87,2.87,0,0,0-1.93-1,2.87,2.87,0,0,0-3.13,2.54,2.66,2.66,0,0,0,.56,2,2.37,2.37,0,0,0,1.69,1h.47l-2.32,2.55.87.8,3.38-3.71a3.73,3.73,0,0,0,1.06-2m3.44,6.65,6.55-8-6.3-.89-.16,1.19,4.16.59-5.18,6.31Zm13.6-4.21a1.19,1.19,0,0,1-.55.81,1.25,1.25,0,0,1-1,.18,1.26,1.26,0,0,1-.81-.56,1.21,1.21,0,0,1-.17-1,1.23,1.23,0,0,1,.55-.79,1.27,1.27,0,0,1,1.76.37,1.18,1.18,0,0,1,.18,1m-1.75,2a1.4,1.4,0,0,1,1.08,1.68,1.41,1.41,0,0,1-2.57.48,1.42,1.42,0,0,1-.19-1.08,1.32,1.32,0,0,1,.61-.88,1.39,1.39,0,0,1,1.07-.2m2.94-1.79a2.37,2.37,0,0,0-.33-1.85,2.44,2.44,0,0,0-1.59-1.05,2.49,2.49,0,0,0-1.88.31,2.35,2.35,0,0,0-1.06,1.55,2.08,2.08,0,0,0,.54,2,2,2,0,0,0-1.54,1.73,2.35,2.35,0,0,0,.37,1.95,2.7,2.7,0,0,0,1.75,1.12,2.61,2.61,0,0,0,2-.31,2.52,2.52,0,0,0,1.11-1.66,2.43,2.43,0,0,0-.05-1.23,2,2,0,0,0-.62-1,2.12,2.12,0,0,0,1.29-1.56m16.43,13.43,3.11,6.29c-6.27,1.22-13.81-.61-17-3.26-.14-.12-.35-.38-.23-.36,3.77.58,9.14,1.05,9.61-.84l1.66-7.64a18.59,18.59,0,0,0,7.53.08Zm-13.43-2.27c.79.21,6.54,1.5,6.63,2.84s-4.77.73-7.19.23Zm10.19-9.46-2.27,11.87c.19-1.15-.9-2.27-2.83-2.87-4.75-1.46-24.08-6.54-49-6.54s-44.25,5.08-49,6.54c-2,.62-2.73,1.61-2.92,2.51l-2.19-11.51c-.31-1.43.33-2.52,2.95-3.54,7-2.75,28.14-7.54,51.15-7.54a179,179,0,0,1,51.15,7.54c2.69.84,3.26,2.11,2.95,3.54m-39.38-15.92c-5.33,0-11.29-.69-14.71,2.3-3.42-3-9.21-2.3-14.55-2.3-6.72,0-8.64-2.16-8.64-7.65V160.16h46.4V204c.14,5.49-1.78,7.65-8.5,7.65M197,239.9c.09-.63.73-1.07,1.82-1.44s4-1.19,4.82-1.4l.55,3.07c-1.83.14-6.73,1.08-7.19-.23m-3.9-6.38,1.64,7.57c.67,1.86,7.34,1.09,9.61.91a.61.61,0,0,1-.22.36c-3.22,2.65-10.09,4.86-17.39,3.45l3.41-6.25-4.58-6a18.59,18.59,0,0,0,7.53-.08m115.09,6,7.92-10.07A26.44,26.44,0,0,1,303.42,231l.56-2.67a5.85,5.85,0,0,0-.36-3.67,6.22,6.22,0,0,0-4.11-3.17c-.23-.09-7.32-2.28-13.05-3.43a158.48,158.48,0,0,0-20.74-3.43c5-.78,7.36-4.11,7.68-8.43v-48.8H221.7v47.76c0,4.82,2.36,8.63,7.72,9.47-12.3,1.65-24.69,4-31.76,6.34-4.05,1.34-5.66,2.61-6.19,3.47-.77,1.23-.67,2.32-.33,3.89l.56,2.66c-4.43.58-8.74-.44-12.89-1.84l7.93,10.53-4.32,8c6.76,2.14,17.2,2.05,23.13-3,2.06-1.76,1-5.13.59-7.26,9.67-2.44,24.17-4.5,41.41-4.5s31.74,2.06,41.41,4.5c-.38,2.18-1.52,5.48.6,7.27,5.63,4.75,16.63,4.54,22.86,3Zm42.34,44.25a8.9,8.9,0,0,1-3.43,7.3c-2.29,1.89-5.42,2.91-9.57,2.91s-7.36-1-9.67-2.87a9,9,0,0,1-3.42-7.34,8.83,8.83,0,0,1,3.51-7.22c2.38-2,5.53-3,9.58-3a14.75,14.75,0,0,1,9,2.62,9,9,0,0,1,4,7.6m8.42,0a16.29,16.29,0,0,0-6.91-13.48,23.16,23.16,0,0,0-14.51-4.52A23.55,23.55,0,0,0,323,270.3a16.66,16.66,0,0,0-.09,27c4,3,8.9,4.47,14.65,4.47a23.66,23.66,0,0,0,14.55-4.42A16.3,16.3,0,0,0,359,283.79m53.52-6.29,5.09-5.66A30.87,30.87,0,0,0,398.47,266c-5.12,0-9.3.86-12.38,2.76a9.3,9.3,0,0,0-4.8,8.2c0,8.59,9.51,9.21,15.79,9.63a80.82,80.82,0,0,1,10.35,1c2.12.55,2.62,1.44,2.62,2.46s-.45,1.82-2,2.62a18,18,0,0,1-7.76,1.33c-6.23,0-10.82-1.74-16.07-5l-4.58,6c6.37,5,12.53,6.49,20.61,6.49,7.59,0,18.46-2,18.46-11.87,0-7.4-6.63-9.54-12.74-10.34-1.38-.18-4.25-.41-8.59-.7a23.75,23.75,0,0,1-5.88-.86c-1.49-.52-1.68-1.1-1.68-1.56,0-2.51,7.09-2.67,8.29-2.67,5.35,0,9.68,1.48,14.41,3.89" transform="translate(-81.31 -124.92)"/></svg>