<svg id="Слой_1" data-name="Слой 1" xmlns="http://www.w3.org/2000/svg" viewBox="0 0 616.63 98.08"><defs><style>.cls-1{fill:#1d1d1b;}</style></defs><title>kashoki</title><rect class="cls-1" x="567.32" y="29.61" width="13.32" height="64.92"/><path class="cls-1" d="M527.7,163c0-21.16-14.33-35.38-35.67-35.38s-35.28,14.16-35.28,36.06c0,21.16,14.3,35.38,35.57,35.38C513.82,199,527.7,184.87,527.7,163ZM492,140.51c13.29,0,21.87,9.23,21.87,23.52,0,13.67-8.3,22.16-21.67,22.16s-21.67-9-21.67-23.52C470.56,149,478.79,140.51,492,140.51Z" transform="translate(-85.97 -100.94)"/><rect class="cls-1" x="385.67" width="41.16" height="13.32"/><polygon class="cls-1" points="343.8 31.11 343.8 29.61 342.3 29.61 331.98 29.61 330.48 29.61 330.48 31.11 330.48 55.41 294.49 55.41 294.49 31.11 294.49 29.61 292.99 29.61 282.67 29.61 281.17 29.61 281.17 31.11 281.17 93.03 281.17 94.53 282.67 94.53 292.99 94.53 294.49 94.53 294.49 93.03 294.49 68.73 330.48 68.73 330.48 93.03 330.48 94.53 331.98 94.53 342.3 94.53 343.8 94.53 343.8 93.03 343.8 31.11"/><path class="cls-1" d="M156.1,188.42l.62-1.33-1.31-.65-2-1-1-.51-.58-.33-.59-.34-.38-.21c-.77-.43-1.57-.88-2.39-1.43l-.8-.5-.81-.51-.38-.27-1.25-.87c-.81-.54-1.58-1.15-2.4-1.8l-1.05-.81c-.34-.28-.7-.59-1.06-.91l-.64-.55-.63-.54-.23-.2-.83-.79-.65-.62c-.36-.34-.71-.67-1-1l-.72-.74-1-1c-.34-.34-.65-.7-1-1.08s-.4-.47-.61-.7l-.76-.86-.72-.92-.56-.7c-.31-.38-.6-.75-.87-1.12l-1.35-1.87c-.27-.37-.51-.74-.76-1.13l-.45-.7-.34-.52c-.27-.41-.52-.8-.73-1.18l-.37-.63c-.56-1-1.1-1.88-1.52-2.74l-.26-.5,0-.08,28.45-23.55,3.21-2.65H135.46l-.42.34L99.29,160.47V130.55H86v64.92H99.29V177.75l15-12.4c.32.57.65,1.15,1,1.75l.19.32c.29.53.63,1.07,1,1.58.13.19.25.38.37.58s.33.5.48.75c.31.49.63,1,1,1.5l.66.93.87,1.22c.38.52.77,1,1.15,1.5l.57.72.86,1.1,0,0,0,0,.91,1.06.64.73c.4.47.82,1,1.27,1.43l1.27,1.32.68.7c.46.47.93.91,1.38,1.33l.67.64.58.54.44.41,0,0,0,0,.93.8.11.09.69.6c.45.38.91.78,1.39,1.16l1,.8c1.06.82,2.06,1.6,3.11,2.3l1.91,1.32,0,0,0,0,1.85,1.16c1,.68,2.08,1.25,3,1.76l.38.21.09.05,1.31.73h0l0,0,.88.44.33.16,2.31,1.14,1.37.68.65-1.39Z" transform="translate(-85.97 -100.94)"/><path class="cls-1" d="M624.81,188.42l.61-1.33-1.3-.65-2-1-1-.51-1.17-.67-.37-.2c-.77-.44-1.57-.89-2.4-1.44l-1.61-1-.77-.54-.86-.6c-.81-.54-1.58-1.15-2.4-1.8l-1-.81c-.34-.28-.7-.59-1.06-.91l-.64-.55-.61-.53-.25-.21-.83-.79-.65-.62c-.37-.35-.72-.68-1-1l-.78-.81-.88-.94c-.34-.34-.65-.7-1-1.08s-.4-.47-.61-.7l-.76-.86-.72-.92-.55-.69c-.31-.38-.61-.75-.88-1.13l-.74-1-.61-.84c-.27-.37-.51-.73-.75-1.12s-.3-.48-.46-.71l-.33-.51c-.27-.41-.53-.81-.74-1.19l-.37-.63c-.57-1-1.1-1.88-1.52-2.74l-.31-.58,28.45-23.55,3.21-2.65H604.17l-.42.34L568,160.47V130.55H554.68v64.92H568V177.75l15-12.4c.31.55.63,1.11,1,1.69l.22.38c.29.53.63,1.06,1,1.58.12.19.25.38.37.58s.34.51.49.76c.31.49.62,1,1,1.49l1.24,1.74.3.41c.37.53.77,1,1.15,1.51l.56.71.86,1.1,0,0,0,0,.91,1.06.64.73c.4.47.82,1,1.27,1.43l1.82,1.89.13.13c.46.47.93.91,1.38,1.33l.67.64.48.45.54.5,0,0,0,0,1,.89.67.58c.46.39.93.79,1.41,1.18s.71.54,1,.81c1.06.82,2.06,1.59,3.11,2.29l1.9,1.32,0,0,0,0,.84.53,1,.63c1.05.68,2.07,1.25,3,1.75l.39.22.24.13,1.16.65h0l0,0,.88.44.33.16,2.3,1.14,1.38.68.65-1.39Z" transform="translate(-85.97 -100.94)"/><path class="cls-1" d="M252.58,193.82l1.35-.66-.66-1.34-8-16.5-5-10.32L223.8,131.39l-.41-.84H208.15l-.41.84L191.35,165l-5,10.32-8,16.49-.66,1.35,1.35.66,9.28,4.53,1.35.65.66-1.34,9.84-20.18h31.37l9.84,20.18L242,199l1.35-.65Zm-46-29.66,9.19-18.84L225,164.16Z" transform="translate(-85.97 -100.94)"/><path class="cls-1" d="M340.28,178.82c1.09-8.26-2.51-15.1-9.86-18.78-5.29-2.65-12.61-3.46-14.73-3.65-2.74-.25-5.72-.42-8.61-.58-3.69-.22-11.36-.66-13.8-1.52-5.56-2-5.56-4.66-5.56-5.66,0-3.12,6.22-7.65,17.46-7.65,9.53,0,16,3.16,18.64,5.87a13.94,13.94,0,0,1,1.84,2.27l.72,1.15,1.22-.59,8.81-4.32,1.21-.6-.46-1.28c-2.42-6.68-9.46-11.93-19.29-14.4a52.41,52.41,0,0,0-12.69-1.5c-18.06,0-31.17,8.87-31.17,21.08,0,8.35,5.26,15,14.42,18.29,3.91,1.39,9.28,1.79,17,2.23l2.58.15c2.23.11,4.53.24,6.33.39,3.13.28,7.59,1.12,10,2.3s2.93,2.42,2.59,5c-.68,5.2-8.76,8.56-20.6,8.56-9.54,0-16.78-3-19.73-6a10.85,10.85,0,0,1-1.7-2.21l-.69-1.26-1.29.63L274,181.2l-1.22.6.48,1.29c2.42,6.52,9.44,11.71,19.26,14.25A55.32,55.32,0,0,0,306.31,199C325.05,199,338.7,190.9,340.28,178.82Z" transform="translate(-85.97 -100.94)"/><path class="cls-1" d="M699.35,176.07a11.27,11.27,0,0,0-3.6-2.41,12,12,0,0,0-9,0,11.05,11.05,0,0,0-3.6,2.41,11.5,11.5,0,0,0,0,16.13,11,11,0,0,0,3.6,2.4,12,12,0,0,0,9,0,11,11,0,0,0,3.6-2.4,11.56,11.56,0,0,0,0-16.13Zm.92,12a9.7,9.7,0,0,1-2,3.14,9.67,9.67,0,0,1-7,2.89,9.54,9.54,0,0,1-9-6,10.7,10.7,0,0,1,0-7.77,9.6,9.6,0,0,1,9-6,9.67,9.67,0,0,1,7,2.89,9.7,9.7,0,0,1,2,3.14,10.44,10.44,0,0,1,0,7.77Z" transform="translate(-85.97 -100.94)"/><path class="cls-1" d="M694.49,184.8a3.74,3.74,0,0,0,1.1-.74,3.13,3.13,0,0,0,.76-1.14,4.25,4.25,0,0,0,.27-1.58,3.7,3.7,0,0,0-1.07-2.85,5.25,5.25,0,0,0-3.43-1H687v13.24h1.7v-5.54h2.46l3.69,5.54h2l-3.71-5.54A6,6,0,0,0,694.49,184.8Zm-3.72-1.23h-2v-4.42h2.92a7.86,7.86,0,0,1,1.22.09,3.16,3.16,0,0,1,1,.34,2.08,2.08,0,0,1,.74.67,2,2,0,0,1,.27,1.09,1.84,1.84,0,0,1-1.29,1.93,4.7,4.7,0,0,1-1.33.25C691.8,183.55,691.29,183.57,690.77,183.57Z" transform="translate(-85.97 -100.94)"/></svg>