<svg id="Слой_1" data-name="Слой 1" xmlns="http://www.w3.org/2000/svg" viewBox="0 0 593.3 99.21"><defs><style>.cls-1{fill-rule:evenodd;}</style></defs><title>kieppe</title><path d="M88.67,17.94v-.15a.36.36,0,0,0,0-.14v0a6.87,6.87,0,0,0-.41-1.78,7,7,0,0,0-1.41-2.17c-.15-.15-.31-.29-.49-.44s-.35-.27-.54-.4a7.42,7.42,0,0,0-1.18-.63,7.65,7.65,0,0,0-1.32-.38,7,7,0,0,0-1.37-.1,6.09,6.09,0,0,0-2.48.58l-.3.15a6.7,6.7,0,0,0-1.57,1.14c-.13.12-.24.25-.35.37A6.41,6.41,0,0,0,76,16.21a6.17,6.17,0,0,0,0,4.07,6.75,6.75,0,0,0,1,1.95,7,7,0,0,0,.51.58,6.66,6.66,0,0,0,2.21,1.5,6,6,0,0,0,5.19-.13,6.16,6.16,0,0,0,2.68-2.27.57.57,0,0,1,.08-.13,1.09,1.09,0,0,0,.08-.15l.12-.2a8.69,8.69,0,0,0,.4-.81c.08-.24.16-.48.22-.73a6.07,6.07,0,0,0,.21-1.65c0-.1,0-.2,0-.3m-1.27.81h0c0,.15,0,.3-.06.47A4.18,4.18,0,0,1,87,20.36a5,5,0,0,1-1,1.54,5.36,5.36,0,0,1-2,1.33,5.27,5.27,0,0,1-2,.28h-.26a4.85,4.85,0,0,1-3-1.3c-.07-.06-.12-.12-.18-.18h0l-.19-.19c0-.07-.11-.12-.17-.19a4.89,4.89,0,0,1-1.23-3.4,4.71,4.71,0,0,1,1.57-3.73,4.91,4.91,0,0,1,1.61-1.1A4.72,4.72,0,0,1,81.83,13,.23.23,0,0,1,82,13h.3a5.36,5.36,0,0,1,2.29.55,7,7,0,0,1,.88.58c.14.12.26.25.4.36A5,5,0,0,1,87,16.13,4.59,4.59,0,0,1,87.41,18a2.18,2.18,0,0,1,0,.25c0,.17,0,.33,0,.51M-22.94,13.21h2.81v8.35h1.55V13.21h2.83V11.73h-7.19Zm17.45,8.35H-4V11.73H-6.35l-2.56,7.16-2.56-7.16H-13.8v9.83h1.46V13.67l1.6,4.44,1.22,3.45h1.21l2.82-7.89Zm89.27-2.3c-.19-.38-.49-.45-.83-.57a.33.33,0,0,1,.14,0c.82-.26,1.46-.48,1.66-1.47a.9.9,0,0,0,0-.28,2.53,2.53,0,0,0,0-.28,1.81,1.81,0,0,0-.3-1,1.68,1.68,0,0,0-.44-.4,0,0,0,0,0,0,0L83.8,15a4.26,4.26,0,0,0-1.73-.26H79.2v7h1.72V19a.83.83,0,0,1,.8.27c.09.09.16.19.23.27.22.32.39.66.58,1,.09.13.15.27.22.39.14.28.29.54.42.82h2c-.21-.43-.43-.85-.67-1.26a6.44,6.44,0,0,0-.77-1.22m-.85-2,0,0a.38.38,0,0,1-.11.14c-.6.63-1.23.28-1.87.28V16h.63a5.53,5.53,0,0,1,.71,0h0a.93.93,0,0,1,.23,0,.58.58,0,0,1,.34.24.88.88,0,0,1,.09.9h0a.11.11,0,0,1,0,.06ZM77.12,61.87l-4.65,1.64-.75-3.15,4.13-1.47c1.56-.56,3.11-1.11,4.68-1.65l.59-.22c-.28-1.2-.56-2.41-.86-3.62q-4.7,1.68-9.4,3.33c-.23-.91-.45-1.82-.66-2.76l10.14-3.59c-.31-1.31-.63-2.62-.94-3.93L66.77,50.94c-.55.21-1.13.4-1.66.6.48,2.06,1,4.13,1.46,6.19q1.26,5.16,2.48,10.34l3.67-1.32,1.91-.68,9.1-3.23c-.25-1-.5-2-.74-3.05l-5.87,2.08M88.29,39.28l-1.17.58c-.84.42-1.69.82-2.54,1.21a6.54,6.54,0,0,1-.6.28l-.46.21c-.63.29-1.28.59-1.93.87L79.11,43.5l-.76.29c-.26.12-.55.22-.81.33l-1.64.65-.6.24c-1.74.66-3.49,1.28-5.26,1.88-.23.07-.45.13-.69.22l-.16,0c-1.92.63-3.86,1.21-5.79,1.74l-.26.07c-.2.05-.4.12-.62.16l-.25.08-.6.15Q57,50.59,52.28,51.43l-.7.12s0,0,0,0l-.65.1-.27,0-.92.16-.21,0-.7.11-.7.1q-3.84.55-7.69.86l-.7.05-1.4.1c-.21,0-.42,0-.63,0h0l-.72,0-.18,0-1.85.07h-.95c-.93,0-1.87.05-2.8.05H29.55c-2.72,0-5.45-.18-8.16-.42a4.75,4.75,0,0,0-.51,0l-.23,0-.71-.07h0c-2.67-.26-5.32-.62-8-1.09C10,51.36,8.15,51,6.28,50.55c-3.56-.82-7-1.79-10.52-2.94a1.7,1.7,0,0,0-.24-.09c-.2-.07-.39-.12-.59-.2q-2.7-.93-5.34-2c-1.79-.72-3.56-1.48-5.3-2.3l-.66-.3a.38.38,0,0,0-.13-.06c-1.94-.93-3.86-1.9-5.75-2.93-.13-.08-.25-.13-.37-.22v25c.12.06.26.11.39.16,1.48.59,2.94,1.16,4.42,1.72l1.62.58.41.15c1,.36,2.09.73,3.14,1.07.19.08.38.13.59.2l1.24.41c.14,0,.29.08.42.12l.85.27q4.89,1.52,9.89,2.71c1.27.29,2.56.59,3.86.86l.44.09.89.18a3.26,3.26,0,0,1,.45.09.11.11,0,0,1,.07,0l.82.14.13,0c.25,0,.51.1.75.13,4.46.83,8.91,1.41,13.42,1.81h.06l.69,0,1.48.11.53,0a.9.9,0,0,0,.22,0c1.45.09,2.88.17,4.33.2h.15c2.07.07,4.1.09,6.15.06q6.33-.1,12.62-.75a.9.9,0,0,1,.16,0c4.76-.52,9.47-1.24,14.17-2.23l.1,0,.8-.17c1.47-.32,2.94-.67,4.42-1h0l.83-.2c2.86-.73,5.71-1.53,8.52-2.42l.84-.26c.21-.07.43-.13.64-.21l.18-.06.81-.27c.28-.09.57-.17.83-.27l.74-.25.09,0c.38-.14.78-.27,1.17-.4a4,4,0,0,1,.49-.17,3,3,0,0,1,.39-.14l.4-.15q2.85-1,5.66-2.15c0-8.46,0-16.94,0-25.39-.12.06-.26.12-.38.19M82.72,65.43l-.48.18-.31.12c-.19,0-.38.13-.57.18a1.7,1.7,0,0,1-.24.09l-.8.29c-.27.07-.53.17-.81.26a2.33,2.33,0,0,0-.31.11l-.48.15c-.42.14-.82.3-1.23.41l-.41.13-.82.26-.81.26a.42.42,0,0,0-.12,0l-.7.21-.57.18c-3,.89-6,1.7-9,2.39-1.86.45-3.72.84-5.6,1.21a139.44,139.44,0,0,1-24.62,2.57c-2.07,0-4.16,0-6.23,0l-.16,0c-.48,0-1,0-1.45,0A130.21,130.21,0,0,1,13.6,73.12h-.16C13,73,12.5,73,12,72.9a145.58,145.58,0,0,1-18.14-4l-.83-.25-.83-.24c-1.09-.33-2.19-.67-3.28-1l-.8-.26-.78-.26c-.55-.2-1.09-.38-1.66-.57l-.6-.21a.7.7,0,0,1-.2-.08c-.24-.07-.48-.15-.73-.25,0,0,0,0-.07,0l-.79-.29c-.27-.1-.53-.18-.78-.3a.78.78,0,0,1-.18,0c-.21-.07-.41-.16-.61-.22s-.21-.1-.33-.14l-.46-.19a4.19,4.19,0,0,1-.46-.16,2.68,2.68,0,0,0-.34-.13L-21,63.81a3.89,3.89,0,0,1-.38-.16V41.58q3.75,2,7.64,3.67l.09.06c.31.12.6.24.9.39l.08,0,.91.38a.08.08,0,0,0,.07,0c2.16.89,4.34,1.7,6.55,2.47s4.58,1.47,6.9,2.09l1,.27.06,0c2.51.65,5,1.22,7.61,1.7l2.2.38c2.64.43,5.27.77,7.92,1l1.13.1q4,.33,8,.39h0A118.68,118.68,0,0,0,49,53.21h0l1.1-.16h0l1.09-.17a0,0,0,0,1,0,0l1.06-.17h0l1.08-.19,0,0,1.07-.21h0l1-.2.09,0,1-.2a.18.18,0,0,1,.1,0,131.52,131.52,0,0,0,17.93-5.26l.08,0,.94-.35.06,0,1-.37,0,0,1-.38h0l2.48-1,1-.42.5-.22c.27-.12.54-.22.82-.35l0,0,.76-.33a.32.32,0,0,1,.09,0l.7-.34.15-.06.65-.3a1.54,1.54,0,0,1,.19-.08l.83-.41,1.37-.64s0,0,.06,0V63.65c-1.57.62-3.14,1.22-4.74,1.78m-21-9.36a5.64,5.64,0,0,0-.81-.81h0a.78.78,0,0,0-.15-.1,5.41,5.41,0,0,0-2.52-1,12,12,0,0,0-2-.1c-.37,0-.74,0-1.11,0s-.83,0-1.24.09l-1,.09-1,.12-2,.22-1.65.22-2.4.3c.41,5.55.84,11.07,1.24,16.61l4.77-.21c-.06-1.55-.13-3.08-.19-4.61.34,0,.67-.06,1-.09a34,34,0,0,0,3.76-.53l.78-.16,1-.29a6.85,6.85,0,0,0,2.15-1.14,9.45,9.45,0,0,0,1-.91,6.19,6.19,0,0,0,.78-1,5.25,5.25,0,0,0,.69-1.7.86.86,0,0,1,0-.17,1,1,0,0,1,0-.18v0c0-.1,0-.17,0-.24v-.24a6.22,6.22,0,0,0-.4-2.89,5,5,0,0,0-.7-1.26m-3.57,5c-.07.14-.13.27-.21.4-.62,1-1.52,1.09-2.51,1.26-.66.12-1.3.21-2,.29l-1.17.1c-.39.06-.75.1-1.14.13l-.36-4.77a39,39,0,0,1,4.31-.42h.44a3.75,3.75,0,0,1,1.61.3.14.14,0,0,1,.1.05,2.33,2.33,0,0,1,.89,2.66M27.42,66.3l10.45.06v-3.7L27.42,62.6V59.76l11.26.08v-4L22.8,55.74V72.68l16.29,0V69.61l-11.67-.06ZM79,71.19c-.1.46-.21.92-.33,1.37a38.41,38.41,0,0,1-6.33,4.81c-.5.32-1,.64-1.55.93.34-2,.56-4.06.71-6.11l-2.3.6c-.18,2.3-.46,4.57-.86,6.82-.63.33-1.27.64-1.91.94s-1.43.64-2.15,1c-1.39.59-2.79,1.12-4.21,1.63a83.32,83.32,0,0,1-9.05,2.57c.09-2,.12-3.91.11-5.85,0-.39,0-.77,0-1.15v0c0-.79,0-1.56-.06-2.34-.79.1-1.58.18-2.38.29,0,.41,0,.8,0,1.2.08,2.78.06,5.57,0,8.37a87.53,87.53,0,0,1-13.31,1.54c0-3.42-.08-6.83-.23-10.23H32.79c.08,3.43.13,6.86.14,10.27A85.11,85.11,0,0,1,18,86.66c-.09-1.24-.15-2.49-.19-3.73-.08-2.07-.1-4.15-.09-6.23-.79-.08-1.59-.19-2.39-.27,0,.4,0,.81,0,1.22v0c0,.4,0,.81,0,1.22,0,2.44.11,4.89.3,7.35a80.46,80.46,0,0,1-15-4.44,2.89,2.89,0,0,1,0-.5c0-.5-.08-1-.11-1.52-.07-1.33-.11-2.67-.11-4,0-.67,0-1.34,0-2l-2.24-.55a66.8,66.8,0,0,0,.19,7.62c-.25-.11-.51-.23-.77-.33-1.5-.71-3-1.44-4.49-2.24-2-1.07-4-2.24-5.87-3.48l-.68-.46a42,42,0,0,1-1.24-4.91c-.65-.25-1.33-.48-2-.71a2.21,2.21,0,0,0,.07.46,45.77,45.77,0,0,0,1.25,5.2c.33,1.12.7,2.23,1.12,3.33s.9,2.23,1.41,3.32a47.68,47.68,0,0,0,3.62,6.37,49.64,49.64,0,0,0,22.34,18.2,47.4,47.4,0,0,0,4.55,1.62c1.56.46,3.13.85,4.72,1.18a50.05,50.05,0,0,0,9.9,1,51,51,0,0,0,9.63-.92,47.74,47.74,0,0,0,9.34-2.75,48.47,48.47,0,0,0,13.62-8.24c.86-.71,1.66-1.45,2.45-2.24a46,46,0,0,0,3.79-4.1c.49-.6,1-1.19,1.41-1.81s.88-1.23,1.31-1.85c.88-1.3,1.69-2.65,2.45-4A48.6,48.6,0,0,0,80,74.81c.48-1.57.88-3.12,1.21-4.72,0-.15,0-.28.06-.42a.08.08,0,0,0,0,0c0-.18.07-.33.09-.48l-2,.66c-.11.47-.19.92-.32,1.37M.54,95.66c-.17-.15-.34-.29-.5-.45a45.36,45.36,0,0,1-5.51-5.83,46.21,46.21,0,0,1-6.5-11c.2.12.42.23.64.35,1.52.81,3,1.6,4.6,2.33,1.76.82,3.55,1.59,5.35,2.32,0,.34.08.68.14,1,0,.14,0,.33.06.49.18,1.31.42,2.6.68,3.9l.09.4v0A7.54,7.54,0,0,0-.23,90,35.44,35.44,0,0,0,.83,93.69c.18.52.38,1,.6,1.52.12.23.22.45.32.67l.33.57c-.5-.25-1-.52-1.54-.79M.89,84.24a89.27,89.27,0,0,0,9.23,2.84c1.88.47,3.77.89,5.67,1.23a66.11,66.11,0,0,0,2.46,13.28c-1.83-.33-3.6-.73-5.38-1.18a60.41,60.41,0,0,1-8.64-3A54.7,54.7,0,0,1,.89,84.24m6.46,16.39-.77-.48a77.64,77.64,0,0,0,10.62,2.72l1.54.28c.32.94.69,1.85,1.1,2.77a48,48,0,0,1-12.49-5.29m24.9,6.9h-.64a48.67,48.67,0,0,1-9.49-1.07,7.77,7.77,0,0,1-.34-.73c-.11-.25-.22-.51-.33-.74-.18-.5-.37-1-.54-1.52a80.3,80.3,0,0,0,11.59.76c-.07,1.1-.16,2.21-.25,3.3m.6-11.27c0,1.09-.06,2.17-.11,3.25v.14c-.05,1-.08,2.08-.16,3.11h-.76a79.28,79.28,0,0,1-11.4-.83,60.27,60.27,0,0,1-1.58-7.41c-.3-1.92-.53-3.86-.7-5.8a88.19,88.19,0,0,0,14.79,1c0,2.17,0,4.34-.08,6.51m12.56,9.5a47.76,47.76,0,0,1-10,1.68c-.49,0-1,0-1.45.06.11-.54.22-1.08.31-1.64s.2-1.11.26-1.67a75.21,75.21,0,0,0,11.9-1.29,26.69,26.69,0,0,1-1,2.86m-10-3.06h-.76l.15-1.33c0-.5.1-1,.13-1.5.09-1,.16-2.06.21-3.08.14-2.38.2-4.76.22-7.11l.83,0A88.9,88.9,0,0,0,48.6,88.09c0,.61-.07,1.23-.13,1.84s-.08,1.24-.15,1.85c-.1,1.17-.23,2.33-.39,3.49a56.41,56.41,0,0,1-1.16,6.2,84.73,84.73,0,0,1-11.34,1.23m12.24,2.37a26.64,26.64,0,0,0,.88-2.61l1.46-.32A69.41,69.41,0,0,0,59.94,99a47.31,47.31,0,0,1-12.27,6.08m15-8.64a43,43,0,0,1-7,2.86c-.17.06-.35.1-.51.17-1.47.44-2.95.83-4.44,1.18l-.77.19-.13,0L49,101c.12-.43.23-.88.33-1.31s.25-1.13.35-1.69c.23-1.12.42-2.24.59-3.36q.51-3.54.72-7.11c2-.45,4-1,6-1.6a88.67,88.67,0,0,0,11-4.24c-.07.31-.13.62-.2.92a54.93,54.93,0,0,1-5.11,13.78m9.26-9.34A46.41,46.41,0,0,1,65.6,94.4c.08-.13.18-.25.26-.39a.87.87,0,0,0,.1-.19A26.8,26.8,0,0,0,68.48,88c0-.13.09-.28.14-.43a61.32,61.32,0,0,0,1.79-7.06c2-1,3.86-2,5.72-3.15l1.3-.79a47.3,47.3,0,0,1-5.51,10.49M4.43,52.54.49,51.45l-3.4,1.47-5.65,2.42,1.16-5.92-4.41-1.71L-13.22,54l-2.36,10.38,3,1,1.81.59,1-4.93,1-.34L-6,65l1.69,2.63,3.91,1.07,2.34.64L-.53,65.31l-4.09-6.8L6.79,53.18ZM-2.43,36.05l1-.64c.54-.32,1.06-.62,1.6-.92s1.08-.59,1.62-.87c0,.2.09.42.14.61s.17.61.27.93.21.59.33.89c.06.13.11.25.17.37s.2.45.31.67.23.42.34.64q.41.68.87,1.32a19.52,19.52,0,0,0,2.14,2.49,64.36,64.36,0,0,0-3.89,6.2l2,.52c.22-.47.46-.94.7-1.41a0,0,0,0,0,0,0c.12-.24.25-.46.36-.68C6.21,45,6.9,43.81,7.65,42.68c.38.33.75.63,1.15.93s.8.57,1.21.84c.86.56,1.75,1.08,2.66,1.57a36.83,36.83,0,0,0,6.2,2.49c-.1.38-.22.75-.3,1.12s-.2.76-.27,1.13l2.3.26c.16-.64.31-1.27.47-1.91.42.12.87.21,1.3.3s1,.2,1.45.27c.89.17,1.79.3,2.71.41a45.31,45.31,0,0,0,5.59.3h1.49L35,50.31l1.32-.09c.85-.08,1.69-.17,2.55-.3a44.29,44.29,0,0,0,5-1c.22-.07.47-.13.71-.19.19.63.36,1.29.52,1.95.77-.1,1.55-.2,2.3-.32-.09-.38-.21-.76-.31-1.15s-.22-.79-.34-1.18c.5-.17,1-.36,1.51-.56s1-.4,1.46-.62c.92-.42,1.83-.88,2.72-1.38a28.22,28.22,0,0,0,2.45-1.56A24.37,24.37,0,0,0,57,42.15a51.64,51.64,0,0,1,3.72,5.55c.74-.18,1.45-.38,2.18-.57l-.73-1.26a48,48,0,0,0-3.67-5.21,16.3,16.3,0,0,0,2.84-4.3,2,2,0,0,1,.13-.31A12.45,12.45,0,0,0,62,34.84a13.57,13.57,0,0,0,.4-1.7c0-.32.09-.66.12-1l.44.21h0l.42.22h0a3.29,3.29,0,0,0,.42.21,55.34,55.34,0,0,1,5.43,3.26l1.39,1,.45.34c.59.45,1.18.9,1.76,1.38,1.18.94,2.3,1.92,3.39,3,.14.27.25.56.38.85l1.68-.68a44.9,44.9,0,0,0-3-5.82c-.13-.21-.24-.43-.38-.64a48,48,0,0,0-7.05-8.88c-.18-.18-.37-.37-.56-.54a48.38,48.38,0,0,0-10.16-7.6c-.47-.27-.94-.52-1.42-.77a50.2,50.2,0,0,0-10-3.92c-1.08-.29-2.17-.55-3.27-.77s-2.2-.42-3.33-.55A50.35,50.35,0,0,0,29,12c-1.11.07-2.23.19-3.33.34A50.67,50.67,0,0,0,12,16.19c-1.26.56-2.47,1.16-3.68,1.8A49.59,49.59,0,0,0-10.55,36.05a47.47,47.47,0,0,0-3,6l2.31,1a57.06,57.06,0,0,1,8.83-7m9.88,4c-.16-.15-.3-.31-.44-.46a6.42,6.42,0,0,1-.43-.48c-.13-.16-.28-.33-.41-.5a15.79,15.79,0,0,1-1-1.52l-.31-.53c-.09-.19-.19-.37-.26-.55a12.93,12.93,0,0,1-.65-1.59,4.57,4.57,0,0,1-.16-.61c0-.15-.08-.28-.11-.44s-.08-.42-.11-.63a51.74,51.74,0,0,1,9.61-3.39,5.57,5.57,0,0,0,.42,1.71,8.34,8.34,0,0,0,.85,1.51c-1,.8-1.85,1.66-2.73,2.55-.13.15-.28.29-.41.44h0c-.13.15-.28.3-.43.45l-.44.49c-1,1.14-2,2.31-2.93,3.55m12.06,6.13c-.05.18-.11.36-.16.56a34.18,34.18,0,0,1-5.92-2.37c-.88-.47-1.73-1-2.56-1.51-.38-.25-.75-.53-1.13-.81s-.73-.57-1.08-.86a39.62,39.62,0,0,1,4.4-5.18c.78-.77,1.59-1.49,2.44-2.18a14.24,14.24,0,0,0,2.6,2c.15.08.27.17.4.23a22.18,22.18,0,0,0,4.24,1.79,55.16,55.16,0,0,0-3.23,8.38M42.15,25.57A28.87,28.87,0,0,1,46.54,24l.6.45A8.34,8.34,0,0,1,48.69,26a52.81,52.81,0,0,0-6.54-.43m7.44,2.36a4.17,4.17,0,0,1-.43,3,4.09,4.09,0,0,1-.37.64c-.41-.3-.84-.56-1.27-.85s-.77-.46-1.17-.7c-.78-.44-1.58-.84-2.39-1.22a25,25,0,0,0-4.78-1.64,50.51,50.51,0,0,1,10.41.77M37.48,25.77a4.55,4.55,0,0,0-.78-.48l-.39-.2-.41-.17a41.39,41.39,0,0,1,3.54-3.85,23.91,23.91,0,0,1,5.3,1.83,54.78,54.78,0,0,0-7.26,2.87m.48,4a2.57,2.57,0,0,0,.69-1c.4.13.79.25,1.18.4A34.45,34.45,0,0,1,47.48,33a15.53,15.53,0,0,1-5.31,2.85L41.8,36l-.22-.4a24.87,24.87,0,0,0-4.18-5.4,4.29,4.29,0,0,0,.56-.46m1.42,6.3c.11.18.2.36.31.52a30.94,30.94,0,0,1-7,.81h-.41a32.4,32.4,0,0,1-6.6-.65l.37-.69a25.78,25.78,0,0,1,3.44-4.77,3.42,3.42,0,0,0,.65.15l.09,0,.26,0c.33.06.66.09,1,.12h1a10.49,10.49,0,0,0,2.68-.43,1.89,1.89,0,0,0,.36-.11,25.25,25.25,0,0,1,3.76,5m-15.71,0a1.51,1.51,0,0,0-.09.18l-.6-.18a15.74,15.74,0,0,1-5.62-2.85l-.17-.13-.3-.28a31.06,31.06,0,0,1,7.56-4.14c.4-.15.77-.29,1.17-.42a2.92,2.92,0,0,0,1.83,2.26c.06,0,.1.06.17.09a24.57,24.57,0,0,0-3.95,5.47m1.14-14.88a32,32,0,0,1,6.09-.81c0,1.34,0,2.68,0,4l-.32,0a9.61,9.61,0,0,0-2.34.62c-.25-.34-.53-.69-.8-1a13,13,0,0,0-.85-1c-.56-.64-1.16-1.26-1.77-1.87M26.15,25a51.25,51.25,0,0,0-6.59-1.95,21.82,21.82,0,0,1,3.36-1.39A36.3,36.3,0,0,1,26.15,25m-4.85.24c.4.14.79.29,1.17.44a3.29,3.29,0,0,1,.39.17c.39.15.77.33,1.17.51a54.27,54.27,0,0,0-8.82.9,1,1,0,0,0,.1-.21,6.92,6.92,0,0,1,2.34-2.79,26.91,26.91,0,0,1,3.65,1m-.23,2.8c-.11.07-.23.12-.35.19a32.63,32.63,0,0,0-4.94,3.25,5,5,0,0,1-.6-1.2A4.22,4.22,0,0,1,14.93,29a52.88,52.88,0,0,1,6.14-.93M38.54,48.13a49.56,49.56,0,0,1-5.69.45,51.73,51.73,0,0,1-5.71-.25c-1-.1-1.9-.24-2.83-.38s-1.86-.36-2.77-.58l.17-.57a54.2,54.2,0,0,1,3.16-8.4,32.68,32.68,0,0,0,7.44.81h.92a32,32,0,0,0,7.34-1A57.33,57.33,0,0,1,44.06,47a45.46,45.46,0,0,1-5.52,1.15M55,41.62l-1,.78c-.74.54-1.52,1-2.31,1.49a34,34,0,0,1-5.41,2.41,3.5,3.5,0,0,0-.17-.55,57.72,57.72,0,0,0-3.38-8.18c.45-.15.89-.32,1.32-.5a18.11,18.11,0,0,0,2.13-1,14.78,14.78,0,0,0,2.82-2c.53.39,1,.79,1.55,1.22.3.25.6.52.91.77l.3.28a41.46,41.46,0,0,1,4.25,4.44c-.32.3-.65.56-1,.85m5.5-8.16a12.31,12.31,0,0,1-.92,2.59,6.9,6.9,0,0,1-.45.85,5.51,5.51,0,0,1-.37.61c-.31.48-.65,1-1,1.4-.12.12-.23.25-.33.37-.86-1-1.75-1.93-2.68-2.84-.13-.13-.27-.26-.39-.39-.82-.77-1.66-1.51-2.51-2.23l-.5-.41h0c-.17-.14-.35-.26-.52-.41h0c-.19-.13-.36-.26-.53-.4.09-.15.21-.32.31-.48a5.81,5.81,0,0,0,.93-3.79l1.19.29a49.83,49.83,0,0,1,8,2.72,12.86,12.86,0,0,1-.24,2.14m.63-10.35A46.35,46.35,0,0,1,73.14,36.05l.44.68-.91-.68A54.4,54.4,0,0,0,62.44,30c0-.07,0-.16,0-.24a13.06,13.06,0,0,0-1.64-4.93c0-.05-.09-.14-.13-.22A17.19,17.19,0,0,0,59.6,23c.49,0,1,.08,1.48.15m-3.91-.31a12.85,12.85,0,0,1,3.28,6.11c0,.08,0,.13,0,.21a45.46,45.46,0,0,0-7.08-2.24c-.82-.19-1.64-.37-2.46-.52a8,8,0,0,0-1.44-2.11,7.81,7.81,0,0,0-.83-.8,35.7,35.7,0,0,1,8.5-.65m-11-6.8c.2.09.42.16.62.23h0l.56.21a.3.3,0,0,0,.11,0l.51.21.16.06a30.61,30.61,0,0,1,3.76,1.87c.58.33,1.16.7,1.71,1.09.27.18.53.38.78.56s.52.4.77.61c.07.05.15.13.22.19l-1.59.08-.52,0a34.44,34.44,0,0,0-6.21,1.05,21.44,21.44,0,0,0-6-2.62A41.88,41.88,0,0,1,46.15,16m-13.27.43c.1-.89.23-1.79.41-2.67a43.63,43.63,0,0,1,10.77,1.6c-1.61,1.25-3.18,2.53-4.71,3.86a35.36,35.36,0,0,0-6.66-.72c.06-.69.13-1.37.19-2.07m-.27,3.9c.21,0,.41,0,.63,0a30.3,30.3,0,0,1,4.45.41A35.94,35.94,0,0,0,34.63,24a6,6,0,0,1-.39.49,13.7,13.7,0,0,0-1.8-.17c.06-1.32.1-2.64.17-4m-.4,5.8a10.58,10.58,0,0,1,2.45.27,3.89,3.89,0,0,1,2,.85,1.13,1.13,0,0,1,.36.55s0,.06,0,.07v.18a2.66,2.66,0,0,1-2,1.39,10,10,0,0,1-5.59,0,3.53,3.53,0,0,1-.46-.15l-.37-.14a4,4,0,0,1-.36-.18l-.31-.2-.22-.21a1.77,1.77,0,0,1-.16-.22.85.85,0,0,1-.1-.47l0-.07a1,1,0,0,1,.37-.56,3.67,3.67,0,0,1,1.59-.76,10.59,10.59,0,0,1,2.8-.35m-12-10.83c.3-.09.63-.17,1-.24a2.49,2.49,0,0,1,.47-.12l.33-.08c.71-.15,1.41-.29,2.13-.42l1.2-.18c.4-.07.79-.11,1.18-.15l.05,0,.63-.07L29,13.86l.61,0h.2c.55,0,1.11-.05,1.67-.06A45.82,45.82,0,0,0,31,18.53a32.9,32.9,0,0,0-7.28,1.07,2.54,2.54,0,0,0-.45.13c-.2-.16-.39-.34-.58-.51s-.38-.33-.56-.47l0,0c-.2-.15-.37-.3-.56-.45,0,0,0,0-.05,0L21,17.79l-.08-.05c-.18-.16-.37-.31-.56-.45a.11.11,0,0,0-.05,0c-.19-.15-.37-.31-.57-.45l-.05,0-.59-.45h0l-.63-.46c.61-.2,1.2-.38,1.82-.55M7.59,22.08a23.68,23.68,0,0,1,6.2-4.33,2.8,2.8,0,0,1,.3-.15A20.51,20.51,0,0,1,16,16.75a35.7,35.7,0,0,1,5.37,3.6l-.56.22a18.45,18.45,0,0,0-3.28,1.68l-.23.16h0l-.24.17a35.12,35.12,0,0,0-9.66-.27l.21-.23M3.9,27.92a12.18,12.18,0,0,1,.89-2.15A3.59,3.59,0,0,0,5,25.39a1.85,1.85,0,0,0,.24-.4h0l.25-.38.27-.39a38.94,38.94,0,0,1,4.81-.46,31.25,31.25,0,0,1,4.84.17,7.7,7.7,0,0,0-2.06,3.27,2,2,0,0,0-.06.23h0c0,.1-.05.18-.07.27-.64.14-1.26.3-1.9.47A51,51,0,0,0,3.4,31a10.21,10.21,0,0,1,.5-3.1m-14.35,11.7h0l.26-.52c.55-1,1.14-2.06,1.78-3.05.06-.12.14-.24.22-.37A47.32,47.32,0,0,1,1,25.19l1.18-.29,1.16-.24a12.31,12.31,0,0,0-1.78,7.22l-.91.46c-1.51.8-3,1.64-4.41,2.57-.57.37-1.14.75-1.7,1.14a66.43,66.43,0,0,0-5.27,4.07c.08-.15.16-.33.25-.5M7.37,68.41l-.26,2.08,5.08.88,1.88-16.66-4.89-.77Z" transform="translate(22.94 -11.73)"/><path class="cls-1" d="M558,21.31h1.2a2.69,2.69,0,0,0,1.69-.39,1.19,1.19,0,0,0,.5-1,1.27,1.27,0,0,0-.48-1,2.52,2.52,0,0,0-1.59-.39H558Zm-2.79-4.73h5a4.55,4.55,0,0,1,3.06.85,3,3,0,0,1,1,2.31,2.79,2.79,0,0,1-.72,1.93,4.2,4.2,0,0,1-2.28,1.19,3.3,3.3,0,0,1,.94.52,5.41,5.41,0,0,1,.88,1.15s.62,1.1,1.81,3.21h-3.27a26.21,26.21,0,0,0-2.16-3.8,1.47,1.47,0,0,0-1.09-.63,3,3,0,0,0-.34,0v4.39h-2.79Zm13.17,5.59a8.47,8.47,0,0,0-8.43-8.44,8.42,8.42,0,0,0-8.42,8.44,8.38,8.38,0,0,0,8.42,8.41,8,8,0,0,0,6-2.46,8.06,8.06,0,0,0,2.48-5.95m2,0a10.42,10.42,0,0,1-15.66,9,10.52,10.52,0,0,1-5.22-9A10.09,10.09,0,0,1,550.9,17a10,10,0,0,1,3.8-3.82,10.45,10.45,0,0,1,10.45,0,10.41,10.41,0,0,1,5.21,9M160,72.66h41a2.93,2.93,0,0,0,2.56-2.3l1.6-6.49a1.72,1.72,0,0,0-1.52-2.31c-5.31-.34-7.83-.52-9.26-4.79l-6.27-18.93c-.88-2.65-.38-4.35,2-5.8l12.68-7.58c1.49-.91,4.77-1,5.88-.95l2.88.12c1.71.06,3.8-1.92,4.24-3.79l1.11-4.61c.45-1.86-.58-3.38-2.31-3.39l-38.36-.11a4.42,4.42,0,0,0-3.94,3.38l-1.12,4.63c-.43,1.87.61,3.38,2.31,3.38h2.47a2.69,2.69,0,0,1,2.13,1.73c.2.89-.34,2-1.82,3l-8.32,5-8.33,5c-3.22,1.63-3.11-.45-2.34-3.55L159,27.86c.8-2.88,2.65-4.13,3.93-4.06l1.25.07c1.61.08,3.42-1.52,3.88-3.39l1.25-5.25c.45-1.88-.4-3.38-2-3.39l-37-.11a4.48,4.48,0,0,0-3.86,3.38l-1.28,4.63c-.5,1.87.41,3.38,2,3.38h2.33c4,1,1.79,6.6,1.21,8.86l-6.1,23.57c-.94,3.66-1.78,5.23-4.78,5.23H116a3,3,0,0,0-2.55,2.31l-1.91,7.27c-.32,1.27.26,2.3,1.32,2.3H151.6a3,3,0,0,0,2.52-2.3L156,63.87c.34-1.26-.28-2.25-1.34-2.31-5-.34-4.23-2.36-3-6.71l.29-1,8.28-5.15c1.62-1,2.92-.5,3.07.64.92,2.88,1.85,5.75,2.77,8.62.6,1.84.4,2.56-.33,2.83h-2.94a3,3,0,0,0-2.58,2.31l-1.68,7.27c-.28,1.27.4,2.3,1.51,2.3m342.37-11.4A6.88,6.88,0,0,0,508.67,56l2.7-10.17A3.38,3.38,0,0,1,514.88,43h21c1.84,0,2.78,1,2.31,2.91l-5.95,23.42a4.53,4.53,0,0,1-4.1,3.39H451.86a1.67,1.67,0,0,1-1.57-2.3l1.87-7.27A3.16,3.16,0,0,1,455,60.78h5c3.39,0,4.27-1.57,5.19-5.23L471.69,32c.56-2.26,2.24-7.86-2.31-8.86h-2.64a2.48,2.48,0,0,1-2.4-3.38l1.24-4.63a4.74,4.74,0,0,1,4.25-3.38h73.79a2.49,2.49,0,0,1,2.4,3.38l-4.77,18.36a3.65,3.65,0,0,1-3.73,2.91l-21,0c-2,0-2.53-1.15-2-2.93l1.36-5.07c1-3.59-1.46-5.24-3.71-5.24h-7.38c-3,0-4.55.39-5.3,3.28-1.36,5.31-2.25,6.86.16,7.25,1.67.28,5.64,0,9.08,0,.95,0,1.47.83,1.14,1.86l-3,9.38a2.71,2.71,0,0,1-2.33,1.84l-8.2.08c-1-.47-2.32.48-2.62,2L492.14,55c-1.08,4.27-2.71,6.27,1.39,6.35Zm-181.65,0A6.9,6.9,0,0,0,327,56l2.68-10.17A3.41,3.41,0,0,1,333.24,43h21c1.82,0,2.76,1,2.29,2.91l-5.95,23.42a4.53,4.53,0,0,1-4.1,3.39H270.22a1.69,1.69,0,0,1-1.57-2.3l1.89-7.27a3.12,3.12,0,0,1,2.78-2.31h4.37c3.39,0,4.27-1.57,5.19-5.23l6-23.57c.58-2.26,2.25-7.86-2.33-8.86h-2.61a2.48,2.48,0,0,1-2.41-3.38l1.24-4.63A4.75,4.75,0,0,1,287,11.73h75a2.48,2.48,0,0,1,2.4,3.38l-4.75,18.36a3.69,3.69,0,0,1-3.75,2.91l-21,0c-2,0-2.53-1.15-2.05-2.93l1.37-5.07c1-3.59-1.47-5.24-3.72-5.24h-7.38c-3,0-4.54.39-5.29,3.28-1.38,5.31-2.26,6.86.17,7.25,1.66.28,5.61,0,9.06,0,1,0,1.48.83,1.16,1.86l-3,9.38a2.73,2.73,0,0,1-2.35,1.84l-8.17.08c-1-.47-2.33.48-2.65,2L310.51,55c-1.1,4.27-2.71,6.27,1.39,6.35Zm89.25-22.83h8.13c5.16,0,6.84-2.3,7.5-4.81l1.14-4.33c1.2-4.59-3.56-6.45-6.55-6.45h-6.24a2.3,2.3,0,0,0-2.18,1.54l-3.19,12.5a1.26,1.26,0,0,0,1.39,1.55M363.25,72.66l45.51-.12a3.14,3.14,0,0,0,2.78-2.32l1.93-6c.79-2.45-.47-2.65-2.41-2.65l-4.05,0c-4.26,0-4.52-1.27-3.43-5.62l1.21-4.08c.57-2.81,2.09-2.71,4.83-2.71h26.62c8,0,15.75-6.61,17.2-14.71l1.42-8C456,20.15,449.09,11.73,438,11.73H380a4.73,4.73,0,0,0-4.24,3.38l-1.25,4.63A2.48,2.48,0,0,0,377,23.12h4c4.57,1,3.41,4.05,2.83,6.33l-7.44,26.23c-1,3.63-2.23,5.1-5.61,5.1h-4.36a3.1,3.1,0,0,0-2.78,2.31l-1.89,7.27a1.68,1.68,0,0,0,1.58,2.3m-149.91,0H257a3.14,3.14,0,0,0,2.78-2.3l1.88-7.27a1.68,1.68,0,0,0-1.58-2.31h-3.22c-4.28,0-5.06-1.58-3.95-5.93l6.87-27a6.53,6.53,0,0,1,6.5-4.69h2.08a4.69,4.69,0,0,0,4.22-3.38l1.25-4.63a2.48,2.48,0,0,0-2.4-3.38H230.13a4.74,4.74,0,0,0-4.24,3.38l-1.25,4.63a2.49,2.49,0,0,0,2.41,3.38h2.62c4.58,1,2.91,6.6,2.34,8.86l-6,23.57c-.93,3.66-1.82,5.23-5.2,5.23h-4.37a3.11,3.11,0,0,0-2.77,2.31l-1.89,7.27a1.67,1.67,0,0,0,1.56,2.3" transform="translate(22.94 -11.73)"/><path d="M121.9,85.28h14a42.64,42.64,0,0,1,7.71.59,8.71,8.71,0,0,1,4.93,2.49,6.14,6.14,0,0,1,1.81,4.29,6.27,6.27,0,0,1-3.6,5.8c-2.4,1.33-5.89,2-10.42,2h-9.43v10.09h-5Zm5,12.17h9.47c3.18,0,5.44-.39,6.81-1.2a3.93,3.93,0,0,0,.89-6.19,5.1,5.1,0,0,0-2.84-1.5,32.09,32.09,0,0,0-4.95-.3h-9.38Z" transform="translate(22.94 -11.73)"/><path d="M188.8,110.51h-5.37l-3.51-6.73a7.07,7.07,0,0,0-3.15-2.94,10.84,10.84,0,0,0-5-1.11h-9.17v10.78h-5V85.28h16.59a36.89,36.89,0,0,1,7.09.57,8.4,8.4,0,0,1,4.5,2.4,5.81,5.81,0,0,1,1.74,4.11,5.28,5.28,0,0,1-2.26,4.35A12.32,12.32,0,0,1,179.09,99v.07a8.64,8.64,0,0,1,5.95,4.57ZM162.56,96.73h11a16.79,16.79,0,0,0,6.68-1,3.46,3.46,0,0,0,2.08-3.4q0-4.33-8-4.33h-11.8Z" transform="translate(22.94 -11.73)"/><path d="M212.36,84.85q7.86,0,12.87,3.58a11.48,11.48,0,0,1,0,18.94c-3.34,2.39-7.63,3.57-12.87,3.57s-9.56-1.18-12.91-3.58a11.42,11.42,0,0,1,0-18.93q5-3.59,12.91-3.58m-.05,23.22a15,15,0,0,0,9.19-2.66,9.68,9.68,0,0,0,0-15,14.64,14.64,0,0,0-9.09-2.68,15,15,0,0,0-9.24,2.68,9.63,9.63,0,0,0,0,15,15,15,0,0,0,9.14,2.67" transform="translate(22.94 -11.73)"/><polygon points="285.89 76.53 265.55 76.53 265.55 84.35 283.2 84.35 283.2 87.32 265.55 87.32 265.55 98.78 260.55 98.78 260.55 73.55 285.89 73.55 285.89 76.53"/><polygon points="321.24 98.78 293.3 98.78 293.3 73.55 320.33 73.55 320.33 76.53 298.27 76.53 298.27 84.24 318.95 84.24 318.95 87.21 298.27 87.21 298.27 95.8 321.24 95.8 321.24 98.78"/><path d="M320.17,110.94c-5.26,0-9.22-.79-11.84-2.38s-4-3.64-4.13-6.15H309a5.27,5.27,0,0,0,3.49,4.2A18.49,18.49,0,0,0,320,108a16.38,16.38,0,0,0,6.74-1.17c1.69-.76,2.54-1.82,2.54-3.16s-.87-2.39-2.62-3a54.11,54.11,0,0,0-9.06-1.86q-6.44-.93-9.22-2.56a4.91,4.91,0,0,1-2.79-4.36c0-2,1.21-3.71,3.64-5a20.57,20.57,0,0,1,9.66-2,22.51,22.51,0,0,1,10.21,2c2.59,1.33,4,3.19,4.12,5.62h-4.82q-.75-4.64-9.31-4.63a15.57,15.57,0,0,0-6.41,1.06c-1.51.69-2.27,1.63-2.27,2.79a2.56,2.56,0,0,0,1.83,2.39A31.52,31.52,0,0,0,319,95.59q5,.75,7.93,1.47a14.39,14.39,0,0,1,5,2.24,4.82,4.82,0,0,1,2.09,4.09q0,3.26-3.84,5.4a20.4,20.4,0,0,1-10,2.15" transform="translate(22.94 -11.73)"/><path d="M355.85,110.94q-7.91,0-11.84-2.38c-2.62-1.6-4-3.64-4.13-6.15h4.74a5.29,5.29,0,0,0,3.5,4.2,18.46,18.46,0,0,0,7.51,1.36,16.33,16.33,0,0,0,6.73-1.17c1.7-.76,2.54-1.82,2.54-3.16s-.87-2.39-2.63-3a53.25,53.25,0,0,0-9-1.86q-6.41-.93-9.21-2.56a4.89,4.89,0,0,1-2.8-4.36c0-2,1.21-3.71,3.64-5a20.63,20.63,0,0,1,9.66-2,22.59,22.59,0,0,1,10.22,2c2.59,1.33,4,3.19,4.11,5.62H364q-.74-4.64-9.3-4.63a15.56,15.56,0,0,0-6.42,1.06c-1.5.69-2.26,1.63-2.26,2.79a2.58,2.58,0,0,0,1.82,2.39,31.65,31.65,0,0,0,6.82,1.53q5,.75,7.93,1.47a14.17,14.17,0,0,1,5,2.24,4.81,4.81,0,0,1,2.1,4.09c0,2.17-1.29,4-3.84,5.4a20.43,20.43,0,0,1-10,2.15" transform="translate(22.94 -11.73)"/><rect x="400.98" y="73.55" width="4.98" height="25.23"/><path d="M408.91,84.85q7.86,0,12.88,3.58a11.49,11.49,0,0,1,0,18.94c-3.35,2.39-7.64,3.57-12.88,3.57s-9.55-1.18-12.9-3.58a11.42,11.42,0,0,1,0-18.93c3.35-2.39,7.66-3.58,12.9-3.58m0,23.22a15,15,0,0,0,9.19-2.66,9.68,9.68,0,0,0,0-15,14.67,14.67,0,0,0-9.1-2.68,15,15,0,0,0-9.24,2.68,9.63,9.63,0,0,0,0,15,15,15,0,0,0,9.15,2.67" transform="translate(22.94 -11.73)"/><polygon points="486.54 98.78 481.44 98.78 461.86 78.9 461.86 98.78 457.11 98.78 457.11 73.55 462.21 73.55 481.79 93.45 481.79 73.55 486.54 73.55 486.54 98.78"/><path d="M503.46,110.51h-5.6l-4.29-7.66H477.86l-4.08,7.66h-5.22l14.35-25.23h5.32ZM492.08,100.2,485.5,88.5l-6.24,11.7Z" transform="translate(22.94 -11.73)"/><polygon points="554.56 98.78 531.35 98.78 531.35 73.55 536.32 73.55 536.32 95.8 554.56 95.8 554.56 98.78"/></svg>