<svg id="Слой_1" data-name="Слой 1" xmlns="http://www.w3.org/2000/svg" viewBox="0 0 395.7 69.52"><title>lussoni</title><path d="M103.34,216.64h26.13l.79.72c-.76.82-1.38,2.13-2.29,2.38-5.92,1.61-7,2.81-7.07,8.87q-.09,17.94,0,35.86c0,7.29,3.72,12.28,10.86,13.68a31.85,31.85,0,0,0,11.72.05c6.4-1.21,9.69-6,11.08-12.06.44-1.91.42-3.93.87-5.84.16-.7,1.07-1.23,1.65-1.83.53.66,1.44,1.26,1.55,2,1.26,8.23-5.31,19.12-13.25,22.19a29,29,0,0,1-20.47.43c-8.32-2.84-13.12-9.22-13.18-18.05-.08-11,0-22,0-33.08,0-1.62,0-3.25-.18-4.86-.47-4.74-1.77-6-6.49-7.29-1-.27-1.77-1.47-2.64-2.23Z" transform="translate(-52.15 -215.24)"/><path d="M419.12,216.63H447l.78.76c-.75.78-1.39,2.05-2.28,2.26-6.84,1.6-7.92,2.71-7.94,9.54q-.07,20.55,0,41.1c0,7,1.2,8.21,8.16,9.77.83.18,1.42,1.44,2.12,2.2l-.65,1c-8.94,0-17.88.05-26.82-.1-.73,0-1.42-1.45-2.46-2.58,9.3-2,10.18-3.08,10.18-11.62q0-19.86,0-39.71c0-6.77-1-7.94-7.52-9.53-.9-.21-1.55-1.4-2.31-2.14Z" transform="translate(-52.15 -215.24)"/><path d="M80.91,217.49c-.78.77-1.43,2-2.34,2.22-6.38,1.61-7.46,2.84-7.48,9.6q0,25.09,0,50.18c0,1.13-.1,2.26-.17,3.76-5.81,0-11.37,0-16.93-.07-.62,0-1.22-.95-1.83-1.46.53-.58,1-1.52,1.61-1.69,7.36-1.93,8-2.69,8-10.22q0-20.21,0-40.42c0-7.06-.8-7.94-7.71-9.7-.75-.19-1.28-1.23-1.91-1.87.67-.43,1.33-1.23,2-1.24,8.61-.08,17.22-.06,25.83-.06Z" transform="translate(-52.15 -215.24)"/><path d="M216.81,266c0,8.07-5.41,15.37-12.79,17.09-.91.22-2-.45-3.06-.72.58-.83,1-2,1.77-2.46a12.29,12.29,0,0,0,1.47-20.46c-3.94-3.23-8.36-5.88-12.48-8.91a82.51,82.51,0,0,1-8.69-7c-4.47-4.32-5.78-9.7-4-15.66a17.11,17.11,0,0,1,12.63-12.26c.74-.2,1.74.59,2.62.91-.44.91-.66,2.09-1.37,2.68-1.4,1.17-3.35,1.75-4.57,3-4.32,4.56-3.83,10.78,1.56,15.3,4.44,3.72,9.44,6.77,14.1,10.23a79.15,79.15,0,0,1,8.08,6.61A14.84,14.84,0,0,1,216.81,266Z" transform="translate(-52.15 -215.24)"/><path d="M254.69,283.55c-.44-.32-1.51-.71-1.55-1.19a2.83,2.83,0,0,1,1-2.18c9.11-6.41,9.4-15.33.48-22.07-5.75-4.34-11.88-8.19-17.56-12.62-5-3.86-7.74-9-6.47-15.55,1.34-6.92,5.32-11.78,12.16-13.92,1-.32,2.38.37,3.58.6-.64,1-1.06,2.42-2,2.89-7.84,4-9.27,12-2.67,17.85,4.15,3.67,9,6.52,13.5,9.87,3.15,2.36,6.5,4.61,9.17,7.47,8.7,9.31,4.27,24.72-8,28.35Z" transform="translate(-52.15 -215.24)"/><path d="M279,249.74c.19-16.67,9.76-29.46,25.68-34.05a7.73,7.73,0,0,1,3.06-.41,2.3,2.3,0,0,1,1.54,1.52,2.17,2.17,0,0,1-1.22,1.68c-13.45,4.08-17.25,14.81-18.52,27-.84,8-.08,16,3.55,23.43,2.92,6,7.13,10.51,14.05,11.95.82.18,1.42,1.38,2.13,2.11-1.05.38-2.18,1.23-3.15,1.08-14-2.24-23.64-11.74-26.15-25.72C279.44,255.52,279.29,252.62,279,249.74Z" transform="translate(-52.15 -215.24)"/><path d="M345,248.09c-.16,13.8-3.61,24.09-13.62,30.79-4,2.68-9.15,3.73-13.85,5.29-.67.23-1.78-.87-2.69-1.35.58-.62,1.07-1.63,1.75-1.78,10.79-2.46,15-10.5,17.22-20.14s1.84-19.4-2.32-28.61c-3-6.56-7.3-11.84-14.78-13.71-.73-.18-1.22-1.28-1.81-2,1.16-.43,2.44-1.43,3.47-1.22a32.16,32.16,0,0,1,19.81,12.66C343,234.67,345.17,242.11,345,248.09Z" transform="translate(-52.15 -215.24)"/><path d="M350.92,216.52c3.61,0,7.21-.1,10.81.08a3.94,3.94,0,0,1,2.7,1.57q17.46,26.43,34.74,53a6,6,0,0,1,.82,2.57c.36,3.45.62,6.92.92,10.54-2.24,1.41-2.9-.49-3.8-1.89-10.42-16.2-20.77-32.44-31.3-48.56a93.87,93.87,0,0,0-8.58-10.92c-1.24-1.4-3.31-2-4.9-3.13a18.15,18.15,0,0,1-2.33-2.31Z" transform="translate(-52.15 -215.24)"/><path d="M365,259.06c0,4.17-.15,8.35,0,12.52.24,5.27,2.34,7.39,7.49,8.44.83.17,1.48,1.17,2.21,1.79-.75.48-1.5,1.36-2.26,1.38-6,.11-12.1.12-18.15,0-.8,0-1.58-1.05-2.37-1.61.7-.55,1.32-1.41,2.11-1.58,5.74-1.27,7.47-3.19,7.52-9,.07-8.24,0-16.48.1-24.71,0-1.06,1.07-2.11,1.64-3.16.51,1,1.42,2,1.46,3.1.17,4.28.07,8.58.07,12.87Z" transform="translate(-52.15 -215.24)"/><path d="M387.21,216.53c6.85,0,13.71,0,20.56.05.59,0,1.17.74,1.76,1.13-.47.66-.81,1.7-1.43,1.92-8.11,2.86-8.12,2.83-8.12,11.51,0,7.43.08,14.86-.08,22.29,0,1.06-1.13,2.1-1.74,3.15-.51-1-1.45-2.06-1.47-3.1-.13-7.89,0-15.79-.08-23.68,0-6.63-1.55-8.4-8-10.17-.84-.23-1.39-1.49-2.08-2.28Z" transform="translate(-52.15 -215.24)"/><path d="M146,216.68h21.9l.81.66c-.74.81-1.35,2.13-2.24,2.35-6.45,1.64-7.61,2.95-7.66,9.49,0,3.36.1,6.73-.08,10.09,0,.77-1,1.48-1.57,2.22-.57-.73-1.61-1.44-1.65-2.2-.18-3.59,0-7.2-.13-10.79-.17-5.42-2.16-7.57-7.49-8.81-.95-.22-1.7-1.37-2.54-2.09Z" transform="translate(-52.15 -215.24)"/><path d="M100.36,266.13c-1.1,5-2.19,9.93-3.32,14.88a19,19,0,0,1-.82,2.23c-5.53,0-11.1.08-16.67-.09-.85,0-1.66-1.2-2.49-1.85.79-.67,1.56-1.89,2.37-1.92,8.7-.32,14.31-4.67,17.48-12.61.32-.8,1.75-1.15,2.67-1.72Z" transform="translate(-52.15 -215.24)"/><path d="M231.63,262a14.75,14.75,0,0,1,2,2.52c1.84,3.8,3.27,7.85,5.47,11.43,1.11,1.81,3.64,2.69,5.35,4.2a13.85,13.85,0,0,1,2,3,18,18,0,0,1-3.58.88,10.14,10.14,0,0,1-3-.72c-8.8-2.55-9.49-3.48-9.49-12.58v-7.92Z" transform="translate(-52.15 -215.24)"/><path d="M179.51,262a11,11,0,0,1,2.13,2.49c1.22,2.86,1.68,6.19,3.43,8.62,2,2.79,5.12,4.77,7.66,7.2a13,13,0,0,1,1.71,2.6c-1,.42-2.24,1.41-3.06,1.15a98.43,98.43,0,0,1-11-4.19,3.91,3.91,0,0,1-1.89-2.82c-.19-4.73-.08-9.47-.08-14.2Z" transform="translate(-52.15 -215.24)"/><path d="M213.81,226.91a49.82,49.82,0,0,1-.07,5.19c-.07.71-.81,1.35-1.24,2-.6-.54-1.64-1-1.73-1.64-.9-5.77-3.07-10.6-8.8-13.17-.54-.24-.73-1.24-1.08-1.88.78-.35,1.69-1.15,2.3-1a99,99,0,0,1,9.42,3.42,3.06,3.06,0,0,1,1.15,2.19A45.94,45.94,0,0,1,213.81,226.91Z" transform="translate(-52.15 -215.24)"/><path d="M265.76,234.8c-1.38-1-2.64-1.4-2.76-2-1.15-5.92-3.24-11.09-9.34-13.63-.41-.18-.86-1.4-.66-1.67.41-.54,1.38-1.22,1.88-1.07,3.41,1.07,6.77,2.29,10.09,3.6.42.17.75,1.11.76,1.7C265.8,225.73,265.76,229.76,265.76,234.8Z" transform="translate(-52.15 -215.24)"/></svg>