<svg id="Слой_1" data-name="Слой 1" xmlns="http://www.w3.org/2000/svg" viewBox="0 0 434.41 121.52"><title>luxina</title><path d="M302.39,217.75a21.51,21.51,0,0,1-.22,2.36c-.69,3.55-2.94,5.39-6.85,5.53a27.17,27.17,0,0,1-4.51-.25,3,3,0,0,1-2.24-4.62,9.55,9.55,0,0,1,1.9-2.21,25.6,25.6,0,0,1,8.59-4.79c1.9-.63,2.74-.12,3.13,1.85A19.86,19.86,0,0,1,302.39,217.75Z" transform="translate(-32.79 -189.24)"/><path d="M93,310.76c-5.7-.84-8.53-4.95-10.68-9.62-1.84-4-3.29-8.16-5-12.22a24.27,24.27,0,0,0-1.92-3.81c-1.18-1.86-2.32-2.06-4.05-.67s-3.34,2.87-5,4.37c-4.4,4.05-8.93,7.91-14.53,10.27a21.67,21.67,0,0,1-12.2,1.65,8,8,0,0,1-6.59-10.22,21.22,21.22,0,0,1,5.73-9.41,50.45,50.45,0,0,1,23.11-13.92,26.41,26.41,0,0,1,6.55-.55,3.84,3.84,0,0,0,3.62-1.85,56.76,56.76,0,0,0,4.4-8.56c2.84-8,7-15.25,11.4-22.42a114.57,114.57,0,0,1,17.24-22c8.46-8.29,17.95-15,29.18-19.12a50.58,50.58,0,0,1,20-3.34c7.91.41,15.73,1.34,22.84,5.18a34,34,0,0,1,5.76,3.89c3.55,3,4.2,6.81,2.86,11.09s-4.21,7.22-7.78,9.62a47.61,47.61,0,0,1-18.89,7c-2.84.48-5.76.58-8.64.79a2.15,2.15,0,0,1-1.34-4.06c1.38-.86,2.8-1.68,4.22-2.47,4.42-2.45,8.92-4.77,13.25-7.38a18,18,0,0,0,4.28-4c1.38-1.65,2.46-3.69,1.45-5.85s-3.33-2.34-5.4-2.47a33.63,33.63,0,0,0-14.43,2.79C143.83,207,136.19,212.18,129,218A182.15,182.15,0,0,0,100,247.7c-5.23,6.65-10.56,13.21-15.82,19.83-1.06,1.32-1.11,1.62.31,2.5,2.63,1.62,3.93,4.05,5.06,6.79A52.66,52.66,0,0,0,98,291.27a13,13,0,0,0,8.64,4.81,6,6,0,0,0,2.86-.43c3.23-1.36,6.4-2.84,9.59-4.3.89-.41,1.73-.93,2.63-1.3s1.4-.06,1.53.93A3.84,3.84,0,0,1,122,294.3a45.81,45.81,0,0,1-4.59,4.22,100.19,100.19,0,0,1-17.3,10.61c-1.79.88-3.89,1.11-5.85,1.63ZM47.87,292.51a10,10,0,0,0,5.23-1.86c4.63-3,8-7.15,10.95-11.69.35-.54.62-1.68.34-2a3,3,0,0,0-2.23-.83A30.88,30.88,0,0,0,47,282.23a9.22,9.22,0,0,0-3.39,4.54A4.27,4.27,0,0,0,47.87,292.51Z" transform="translate(-32.79 -189.24)"/><path d="M467.21,240.93c-.22.86-.4,1.74-.66,2.59a10.75,10.75,0,0,1-10.34,7.87,10.88,10.88,0,0,1-10-8.33c-1.41-5.21.63-11,4.83-13.61,6-3.79,13.62-.54,15.62,6.67.2.7.37,1.41.56,2.11Zm-19.51-1.21A18.85,18.85,0,0,0,448,242c.89,3.37,2.81,5.87,6.29,6.86a7.81,7.81,0,0,0,8.06-2.24,10.34,10.34,0,0,0,.15-13.9,8.12,8.12,0,0,0-10.17-1.52C449.17,233.08,447.94,236.06,447.7,239.72Z" transform="translate(-32.79 -189.24)"/><path d="M426.45,243.32c-3.52-.31-6.92,1.1-10.27,2.64a46.27,46.27,0,0,0-14,9.48,14.58,14.58,0,0,0-3.95,6.24c-1.31,4.72,2.31,8.57,7.12,7.61,4.64-.93,8.47-3.44,11.92-6.48,4.32-3.8,8.4-7.87,12.62-11.78a31.25,31.25,0,0,1,3.68-3c1.91-1.29,3.91-.28,3.89,2a13,13,0,0,1-.87,4.39c-.91,2.39-2.19,4.65-3.12,7a33.41,33.41,0,0,0-1.38,5.15c-.27,1.29.55,2.05,1.66,2.54a6.48,6.48,0,0,0,4.55.15c1.64-.48,3.25-1.09,4.92-1.46a11.7,11.7,0,0,1,2.71,0,7.74,7.74,0,0,1-.91,2.5,41,41,0,0,1-14,10.71,50.91,50.91,0,0,1-7.8,2.77,4.82,4.82,0,0,1-5.74-3.06,10.33,10.33,0,0,1-.41-6.36,7.4,7.4,0,0,0,.18-1.82,1.56,1.56,0,0,0-2.57-1.32c-1.72,1.17-3.37,2.45-5.07,3.65a49.14,49.14,0,0,1-13.68,7.26,19.34,19.34,0,0,1-7.25.89c-4.14-.32-6.62-2.77-7.3-6.92-.58-3.55.2-6.88,1.1-10.24a5.7,5.7,0,0,0,.33-1.17c0-.55,0-1.44-.25-1.59a2.45,2.45,0,0,0-2-.15c-1.61.87-3.11,1.95-4.63,3-6.14,4.18-12.2,8.49-18.46,12.49A42.45,42.45,0,0,1,349,282.3c-2.34.84-3.65-.07-4.47-2.46-.95-2.78-.31-5.52.43-8.17.94-3.32,2.16-6.57,3.29-9.84a1.75,1.75,0,0,0-.31-2.13,1.61,1.61,0,0,0-2.22.11c-.3.22-.61.41-.9.63-2.92,2.18-5.82,4.37-8.74,6.53-6.3,4.67-12.57,9.4-19.54,13a30.18,30.18,0,0,1-5.32,2.14c-2.1.64-3.16-.26-3.27-2.46a11.28,11.28,0,0,1,1.57-6.08c1.46-2.69,3.14-5.25,4.65-7.91a49,49,0,0,0,3-5.86,2.22,2.22,0,0,0-1.89-3.16,4,4,0,0,0-2.13.72c-3.2,2-6.36,4.16-9.52,6.26-8.87,5.9-17.62,12-27.2,16.77a30.48,30.48,0,0,1-5.23,2c-2.49.72-4,0-5.36-2.21a12.16,12.16,0,0,1-1.41-9.54,41.25,41.25,0,0,1,5.88-13.35c4.51-6.82,9.07-13.59,14.6-19.64a24.43,24.43,0,0,1,2.44-2.22,2,2,0,0,1,2.69-.3,2.49,2.49,0,0,1,1.05,2.8,33.74,33.74,0,0,1-1.58,4.35c-2.32,5.31-4.75,10.56-7,15.89a11.67,11.67,0,0,0-.84,4.26,3.8,3.8,0,0,0,4.51,4A24.24,24.24,0,0,0,293.3,264c5.92-3.39,11.69-7,17.43-10.69s11.11-7.34,16.7-10.94a27.25,27.25,0,0,1,4.18-2,1.57,1.57,0,0,1,2.26,1,6.77,6.77,0,0,1,.39,4.54c-.92,3.55-1.85,7.09-2.82,10.63-.26.94-.35,1.95.44,2.45a3.13,3.13,0,0,0,2.47.34,27.43,27.43,0,0,0,5.33-2.68c7.37-4.93,14.66-10,22-15,1.25-.85,2.52-1.68,3.83-2.43,1.1-.64,1.57-.44,2.09.74a5.9,5.9,0,0,1,.32,4.39q-2.59,7.7-5.14,15.41c-.36,1.08-.72,2.17-1,3.27-.62,2.31.6,3.9,3,3.85a16.78,16.78,0,0,0,7.54-2.31c5.19-2.77,9.63-6.58,14.18-10.24,5.73-4.61,11.42-9.27,18-12.72,5.13-2.7,10.52-4.56,16.38-4.31a77.88,77.88,0,0,1,8.71,1.19,5.62,5.62,0,0,1,1.91.81c1.52.92,1.53,2.36-.05,3.22a7.36,7.36,0,0,1-2.42.71A18.51,18.51,0,0,1,426.45,243.32Z" transform="translate(-32.79 -189.24)"/><path d="M275.92,231c-1.19.92-2.34,1.87-3.56,2.74-8.78,6.25-17.59,12.47-26.37,18.74-2.09,1.49-4.08,3.13-6.14,4.68a1.55,1.55,0,0,0-.49,2.23,77.29,77.29,0,0,0,4.19,7.31c1.95,2.72,4.85,3.46,8.08,2.57,1.61-.44,3.17-1.08,4.79-1.48a7.87,7.87,0,0,1,2.21.08c-.09.82.11,1.84-.31,2.4a15.94,15.94,0,0,1-3.44,3.42,65.73,65.73,0,0,1-18.69,8.66,4.62,4.62,0,0,1-4.95-1.36,22.88,22.88,0,0,1-2.91-4.47,42.53,42.53,0,0,1-1.76-4.43,18.83,18.83,0,0,0-.83-1.9c-1.15-2.21-1.4-2.26-3.4-.88-7,4.83-14.06,9.68-21.12,14.48a3.89,3.89,0,0,1-2,.64c-4,.06-7.92,0-12.27,0,.59-.48.89-.77,1.24-1q12-8.16,24-16.31c3.25-2.2,6.52-4.35,9.75-6.59a2,2,0,0,0,.83-1.43c-.23-2.35-.56-4.69-1-7a6.87,6.87,0,0,0-1.15-2.41,3.32,3.32,0,0,0-4.67-1.33,45.84,45.84,0,0,0-6.3,3.74c-7.84,5.76-15.54,11.69-23.39,17.42-4.81,3.52-9.77,6.84-14.73,10.14a24.25,24.25,0,0,1-4.83,2.35c-3.86,1.44-6.83-1.05-6-5.12.6-3,1.6-5.88,2.4-8.83a23.57,23.57,0,0,0,.87-3.67c.23-2.11-.72-2.79-2.61-1.85a32.71,32.71,0,0,0-4.4,2.65c-5.79,4.12-11.49,8.37-17.34,12.41-2.37,1.64-5,2.87-7.55,4.28a3.72,3.72,0,0,1-.91.35c-1.54.38-3.08,1.36-4.62,0a5.52,5.52,0,0,1-1.94-5.61,35,35,0,0,1,2-6c1.76-4,3.72-7.89,5.57-11.84a17.26,17.26,0,0,0,1-2.51c.38-1.26-.17-2-1.49-2a11.62,11.62,0,0,0-3,.61c-1.55.52-3,1.25-4.57,1.75-.67.21-1.84.37-2.13,0-.63-.78,0-1.65.71-2.2a57.25,57.25,0,0,1,5-3.91,158,158,0,0,1,21.81-12.13c2.67-1.23,4.52,0,4.3,2.92a20.53,20.53,0,0,1-1.35,5.65c-1.22,3.24-2.67,6.4-4.07,9.56a2.32,2.32,0,0,0,3.25,3.19c3.08-1.77,6.18-3.51,9.12-5.48,6.21-4.17,12.3-8.5,18.48-12.7a38.7,38.7,0,0,1,4.89-2.78c1.89-.9,3,0,2.58,2a23.54,23.54,0,0,1-1.6,4.73c-1.89,4.24-3.9,8.43-5.83,12.66-.49,1.09-1.22,2.28-.15,3.41a3.07,3.07,0,0,0,3.76.49,97.94,97.94,0,0,0,9.7-4.91c8-4.94,15.92-10.12,23.91-15.13a65.2,65.2,0,0,1,6.79-3.65c2.4-1.12,3.85-.78,5.27,1.45s2.54,4.72,3.77,7.11c.48,1,.86,1.94,1.34,2.88.72,1.38,1.16,1.56,2.5.74,2.3-1.4,4.55-2.89,6.78-4.4,6.29-4.26,12.52-8.61,18.84-12.81,3-2,6.29-3.56,10-3.52a27.77,27.77,0,0,1,4.11.62Z" transform="translate(-32.79 -189.24)"/><path d="M458.26,240.35l3.1,5.24c-2.06.69-2.59.46-3.39-1.27a23.37,23.37,0,0,0-1.2-2.27,2.41,2.41,0,0,0-2.89-1.15c0,1.29,0,2.62,0,3.95,0,.83-.3,1.07-1.07,1.06s-1.16-.18-1.15-1c0-3.47,0-6.94,0-10.41,0-.66.28-1,.95-1,1.72,0,3.44,0,5.15.07a2.94,2.94,0,0,1,3,2.59,3.49,3.49,0,0,1-1.86,3.9A5.29,5.29,0,0,1,458.26,240.35Zm-4.32-1.43a13.5,13.5,0,0,0,3.14-.22,2.1,2.1,0,0,0,1.27-1.47,2,2,0,0,0-1-1.62,16.18,16.18,0,0,0-3.39-.27Z" transform="translate(-32.79 -189.24)"/></svg>