<svg id="Слой_1" data-name="Слой 1" xmlns="http://www.w3.org/2000/svg" viewBox="0 0 425.02 214.71"><title>maxus</title><path d="M271.18,140.14a14.15,14.15,0,0,1-2-2.9c-.62-1-1.2-1.92-1.79-2.89l-1.85-3-1.91-3.06c-.38.54-.67.91-.91,1.31-2,3.19-3.94,6.38-5.92,9.57-.22.34-.32.87-1.15.79.21-.53.37-1,.56-1.39,1.8-3.85,3.58-7.71,5.42-11.54a2,2,0,0,0-.09-2.23c-2.58-4.09-5.08-8.23-7.63-12.34-.29-.47-.45-1.23-1.22-1.06s-.58.93-.63,1.48c-.28,3.11-.53,6.22-.82,9.32-.05.55.13,1.33-.59,1.51s-.9-.62-1.16-1.1q-10.12-18.42-20.2-36.87c-1.39-2.54-2.66-5.14-4-7.7-.21-.42-.47-.82-.72-1.22l-.33,0a13.15,13.15,0,0,0-.34,1.34c-.29,1.88-.54,3.76-.82,5.64a4.24,4.24,0,0,1-.17.61c-.65.07-.69-.45-.85-.77-1-2.08-2-4.17-2.93-6.26L202.17,41a6,6,0,0,1-.45-1.12c0-.15.15-.4.31-.51s.38,0,.46.11a10.5,10.5,0,0,1,.76,1.12l15.3,24.83a5.14,5.14,0,0,0,1,1.26c.74-4.65.93-9.29,1.65-13.93a15,15,0,0,1,2.22,3.5c.69,1.22,1.35,2.46,2,3.69l2,3.7,2,3.7,2,3.7c.66,1.23,1.33,2.46,2,3.7l2,3.69,2,3.7,2,3.7c.66,1.23,1.34,2.46,2,3.69l2,3.7,2,3.7a40.42,40.42,0,0,0,2.17,3.63c.85-2.56.83-5.26,1.48-7.83.76.12.79.71,1,1.12q4.84,10.31,9.66,20.63,1.54,3.32,3.1,6.63c.18.4.4.79.64,1.25.64-.29.71-.88.92-1.33q5.85-12.46,11.67-24.93c.42-.9.84-1.8,1.28-2.7a8.81,8.81,0,0,1,.69-.94c.74,2.82.72,5.49,1.37,8.11.64-.17.75-.7,1-1.1Q286,89.27,291.5,79l13.43-24.81a2.61,2.61,0,0,1,1.22-1.48c.65,4.74.74,9.39,1.37,14l.32.08c.26-.4.54-.79.79-1.19l15.45-25.06a8.38,8.38,0,0,1,.68-1,.53.53,0,0,1,.49-.08c.12.06.28.29.25.41a5.71,5.71,0,0,1-.4,1.14q-4.87,10.46-9.76,20.89l-10,21.37c-.21.43-.44.85-.7,1.35-.61-.33-.56-.81-.62-1.23-.27-1.88-.53-3.76-.81-5.63a7.81,7.81,0,0,0-.36-1.14,12.3,12.3,0,0,0-.79,1.15Q290,100,277.89,122.33a7.06,7.06,0,0,1-.7,1.15.76.76,0,0,1-.69.21.86.86,0,0,1-.42-.61c-.12-.76-.18-1.53-.24-2.29-.22-2.57-.41-5.14-.65-7.71-.06-.62.16-1.53-.74-1.68s-.94.72-1.26,1.23c-2.48,4-4.9,8-7.42,12a2.34,2.34,0,0,0-.11,2.61c1.83,3.78,3.59,7.6,5.35,11.42C271.2,139.05,271.63,139.45,271.18,140.14Z" transform="translate(-50.13 -39.38)"/><path d="M104.9,197c-1.06,1.25-1.92,2.67-2.88,4s-1.86,2.67-2.79,4l-2.88,4.11-2.79,4-2.88,4.12-2.79,4L85,225.34c-.94,1.33-1.87,2.67-2.8,4l-3,4.21L74,226.07l-5.13-7.34-5-7.23-5.13-7.34c-1.69-2.42-3.36-4.86-5.28-7.17a45.38,45.38,0,0,0-.33,8c0,2.66,0,5.33,0,8v40H50.38c-.32-1.06-.35-60.7,0-62.12.7,0,1.46,0,2.2,0a1.48,1.48,0,0,1,.78.46,4.76,4.76,0,0,1,.55.76L78.3,227.13c.28.4.58.79,1,1.37.4-.48.72-.82,1-1.2Q86.63,218.17,93,209c3.81-5.5,7.69-11,11.39-16.53a3.14,3.14,0,0,1,3.85-1.58l.07.07s.08.06.09.1a1.8,1.8,0,0,1,.08.39q0,30.33,0,60.65c0,.22,0,.44-.06.71a7.51,7.51,0,0,1-3,.15V198.79c0-.57-.06-1.13-.09-1.7Z" transform="translate(-50.13 -39.38)"/><path d="M205.87,253c-1.09,0-1.94,0-2.78,0-.65,0-.72-.62-.92-1q-2.73-5.84-5.44-11.67c-.82-1.76-1.65-3.51-2.51-5.34H192.7c-11.81,0-23.62,0-35.43,0a2.08,2.08,0,0,0-2.22,1.43c-2.34,5.1-4.76,10.15-7.15,15.22-.21.45-.43.89-.66,1.37h-3c.21-.56.34-1,.53-1.36q14.15-30,28.32-60.09c.2-.41.54-1,.88-1.07a6.69,6.69,0,0,1,2.4.09c.27.06.47.62.64,1q3.57,7.53,7.11,15.08,10.53,22.32,21,44.64C205.38,251.72,205.56,252.26,205.87,253Zm-13.2-21.16c-.21-.5-.39-1-.62-1.46q-3.77-8-7.55-16.07-4.35-9.27-8.72-18.52c-.21-.45-.27-1.07-.88-1.23-.12.08-.23.11-.26.18q-8.44,18-16.87,35.95c-.15.32-.25.67-.37,1,0,0,0,.08,0,.12a.5.5,0,0,0,0,.13C158.86,232.26,191.55,232.2,192.67,231.85Z" transform="translate(-50.13 -39.38)"/><path d="M297.79,108.2c1.78,2,2.32,4.25,2.64,6.76l1.63-2.48c-2.44-2.57-3.53-5.46-2.54-9.13,2.8,1.4,3.64,3.79,3.91,6.53l.28,0,1.19-2c-3.93-3.4-4-8-3.87-12.79a5.7,5.7,0,0,1,1,.5,10.48,10.48,0,0,1,4.17,7.9c0,.45,0,.9,0,1.36,0,0,.06,0,.18.12.19-.34.4-.66.56-1,1.16-2.5,2.29-5,3.46-7.51a9.89,9.89,0,0,0,.74-6.47A14.58,14.58,0,0,1,313,79.79c.08-.16.18-.31.37-.63a18.31,18.31,0,0,1,1.19,1.54,10.47,10.47,0,0,1,1,8.39,40.7,40.7,0,0,1-1.91,4.9A22.32,22.32,0,0,1,312.55,96c1.47-.66,2.71-1.34,4-1.79a10,10,0,0,1,4.45-.44,10.89,10.89,0,0,1-.45,1.59,7,7,0,0,1-3.39,3.38,15.17,15.17,0,0,1-5.58,1.56,2.7,2.7,0,0,0-2.38,1.74,41.2,41.2,0,0,1-4.3,7.84,4.1,4.1,0,0,0-.19.71,14.21,14.21,0,0,1,6-3,18.48,18.48,0,0,1,6.68,0,20.86,20.86,0,0,1-1.18,1.82,10.58,10.58,0,0,1-7.32,3.7,34.12,34.12,0,0,1-3.92.06c-.58,0-1.17-.07-1.83-.11l-1.71,2.79a33.44,33.44,0,0,1,3.82-1,6.06,6.06,0,0,1,4,.59,11.93,11.93,0,0,1-1.08,1.4,5.91,5.91,0,0,1-3.87,1.75,25.73,25.73,0,0,1-3.92-.18,1.38,1.38,0,0,0-1.42.47c-.69.87-1.45,1.68-2.1,2.67a10.74,10.74,0,0,1,5.44-.74c.52.07,1,.24,1.79.43a13.48,13.48,0,0,1-.91,1.31,6.09,6.09,0,0,1-4.32,2,21.1,21.1,0,0,1-3.64-.19,2,2,0,0,0-1.73.46c-.69.62-1.45,1.17-2.13,1.87,3,.1,6-.4,8.78,1.15a4.5,4.5,0,0,1-3,2.14,13.34,13.34,0,0,1-5.52.14c-1-.14-1.95-.38-2.92-.6a3.54,3.54,0,0,0-2.63.29,22.22,22.22,0,0,0-3.19,1.95,17.55,17.55,0,0,1,2.3.2,10.45,10.45,0,0,1,2.31.77,19.18,19.18,0,0,1,2.06,1.32,3.38,3.38,0,0,1-2.4,1.36,7.7,7.7,0,0,1-6-1.21,2.76,2.76,0,0,0-3.36-.06c-1.33.84-2.76,1.53-4.16,2.28-.31.16-.64.28-1.2.52a5.65,5.65,0,0,1,.32-.87,7.37,7.37,0,0,1,2.9-2.58c3-1.6,6-3.23,8.95-4.84l1.38-.78c-.8-3.54-.43-6.79,2.5-9.47a4.66,4.66,0,0,1,1,4.16,33.33,33.33,0,0,1-1.29,4.08,16.29,16.29,0,0,0,4.25-3c0-.19,0-.31,0-.36a7.62,7.62,0,0,1-1.51-5.75,22.8,22.8,0,0,1,1.15-5.83c3.31,2.68,3.4,6,2.75,9.79l3.19-3.56C296.08,114.21,296,111.36,297.79,108.2Z" transform="translate(-50.13 -39.38)"/><path d="M229,108.18c1.78,3.33,1.67,6.28-.37,9.71l3.22,3.63.26-.06c-1-3.67-.79-7,2.45-9.79a21.6,21.6,0,0,1,1.2,6,7.34,7.34,0,0,1-1.69,5.77,13.62,13.62,0,0,0,4.44,3.09c-1-2-1.78-4.11-1.23-6.38a13.71,13.71,0,0,1,.79-1.87c3.05,2.77,3.4,6,2.64,9.6l2.07,1.14c2.78,1.51,5.57,3,8.35,4.52a6.15,6.15,0,0,1,3.09,3.27,5.67,5.67,0,0,1-.92-.28c-1.56-.82-3.14-1.61-4.65-2.51a2.39,2.39,0,0,0-2.87,0,8.11,8.11,0,0,1-6.07,1.38,4.56,4.56,0,0,1-2.53-1.23,8.39,8.39,0,0,1,6.63-2.38l.07-.28c-.39-.23-.78-.48-1.19-.68-3.37-1.64-2.67-1.84-6.39-1a13.65,13.65,0,0,1-6.72.07,4.35,4.35,0,0,1-3-2.11,8.12,8.12,0,0,1,4.28-1.12c1.44-.06,2.88,0,4.43,0a3.41,3.41,0,0,0-.42-.56c-.33-.3-.74-.53-1.05-.85a3,3,0,0,0-3-.84,8.49,8.49,0,0,1-5.07-.43,5.69,5.69,0,0,1-3-2.76,10.06,10.06,0,0,1,7.17.17,7.33,7.33,0,0,0-.54-.79c-.52-.62-1.1-1.21-1.6-1.84a1.29,1.29,0,0,0-1.31-.44,28.83,28.83,0,0,1-4,.18,5.87,5.87,0,0,1-3.86-1.78,14.53,14.53,0,0,1-1-1.32,5.68,5.68,0,0,1,3.91-.64,33.71,33.71,0,0,1,3.87,1.05c-.51-.85-1-1.61-1.41-2.38-.29-.49-.76-.37-1.21-.36-1.58,0-3.17.14-4.73,0a10.48,10.48,0,0,1-7-3.24,25.4,25.4,0,0,1-1.69-2.24c4.8-.84,8.94-.16,12.73,2.68a6.56,6.56,0,0,0-.35-.76,35.68,35.68,0,0,1-3.9-7.12,3.26,3.26,0,0,0-2.81-2.18A21.85,21.85,0,0,1,210,98.94a6.62,6.62,0,0,1-4.14-4.54,1.7,1.7,0,0,1,0-.39c1.69-.7,4-.1,8.53,2.22-.44-.79-.77-1.41-1.11-2A18.23,18.23,0,0,1,211,88.13a10.64,10.64,0,0,1,1.17-7.35c.29-.49.67-.93,1.1-1.51a5.19,5.19,0,0,1,.65.81,14.43,14.43,0,0,1,1.6,10.09,8.86,8.86,0,0,0,.55,5.7c1.31,2.93,2.66,5.83,4,8.75a5.57,5.57,0,0,0,.44.61c-.11-4.41,1.39-7.76,5.17-10.26a21.59,21.59,0,0,1-.37,7,9.38,9.38,0,0,1-3.46,5.77l1.27,2.17a36,36,0,0,1,1.23-3.83,4.71,4.71,0,0,1,2.92-2.68c1,3.56-.14,6.42-2.55,9l1.58,2.48h.26A10,10,0,0,1,229,108.18Z" transform="translate(-50.13 -39.38)"/><path d="M454.74,197.39l-1.78,2.2-1.4-1a30.13,30.13,0,0,0-18.95-5.87,18.46,18.46,0,0,0-11.35,3.87,11.74,11.74,0,0,0-4.45,12.29,9.44,9.44,0,0,0,3.66,5.7,19.6,19.6,0,0,0,6.63,3.32c3.51,1,7.07,1.87,10.63,2.72a49.06,49.06,0,0,1,10,3.25,27.37,27.37,0,0,1,3.63,2.1,12.37,12.37,0,0,1,5.49,10.37c.18,7.16-3.22,12.14-9.54,15.23a26.68,26.68,0,0,1-13,2.36,35,35,0,0,1-22.1-8.83c-.37-.32-.72-.66-1.22-1.13l2-2.2c.53.45.95.78,1.35,1.13A31.32,31.32,0,0,0,430,250.63a28.15,28.15,0,0,0,13.82-.67,15,15,0,0,0,7.42-5,12.43,12.43,0,0,0,1.85-12.07,9.76,9.76,0,0,0-4.56-5.2,28.8,28.8,0,0,0-8-3.24c-3.45-.88-6.95-1.61-10.41-2.47a37.9,37.9,0,0,1-8.16-2.89l-.85-.43c-10-5-9.5-17.44-2.73-23.37a20.48,20.48,0,0,1,10.94-5,32.52,32.52,0,0,1,24.37,6.05,7.13,7.13,0,0,1,.75.58A2.18,2.18,0,0,1,454.74,197.39Z" transform="translate(-50.13 -39.38)"/><path d="M324.2,190.86h2.87c0,.59.08,1.11.08,1.64,0,11.35,0,22.7,0,34.06a30.74,30.74,0,0,0,2.35,12.3c3.2,7.36,8.92,11.25,16.79,12.2a25.84,25.84,0,0,0,11.78-1.17c6.39-2.25,10.23-6.9,12.19-13.24a34.33,34.33,0,0,0,1.4-10.18V190.88h2.9a5.1,5.1,0,0,1,.14.81c0,12.34,0,24.69-.09,37a29,29,0,0,1-2.71,12,21.64,21.64,0,0,1-16.18,12.73,29.65,29.65,0,0,1-15.55-.8c-7.75-2.6-12.43-8.11-14.69-15.81a34.6,34.6,0,0,1-1.37-9.64q0-17.44,0-34.88C324.12,191.85,324.17,191.41,324.2,190.86Z" transform="translate(-50.13 -39.38)"/><path d="M288.89,191.21c-2.61,3.37-5.27,6.67-7.9,10l-7.92,10-8,10.12,24.71,31.28a3.09,3.09,0,0,1-4.06-.57l-21.25-27c-.38-.49-.78-1-1.3-1.6-.46.56-.83,1-1.18,1.44-7,8.84-14,17.65-20.87,26.57-1.27,1.66-2.62,1.75-4.56,1.41a11.57,11.57,0,0,1,.79-1.28q7.38-9.3,14.78-18.58,4.22-5.31,8.44-10.63c.22-.28.42-.57.75-1-7.94-10-15.94-20.05-23.9-30.13a3.08,3.08,0,0,1,4.07.6q10.31,13,20.59,26.11c.3.38.62.75,1.05,1.29.41-.46.74-.81,1-1.18l20.67-26.21A3.14,3.14,0,0,1,288.89,191.21Z" transform="translate(-50.13 -39.38)"/><path d="M263.67,83.34c-2-2.84-3.56-5.55-5.41-8.21-.5,1-.21,1.93-.26,2.83s0,1.87,0,2.85h-2.25V70.61c1.5-.48,1.72-.41,2.55.86q2.2,3.34,4.39,6.69c.25.37.52.71.92,1.26.39-.5.72-.84,1-1.22,1.49-2.27,3-4.54,4.47-6.81.78-1.18.9-1.22,2.53-.8V80.78h-2.3v-5.5L269,75.2Z" transform="translate(-50.13 -39.38)"/><path d="M271.05,60.29h-5.52c-.5,1.72-1,3.43-1.56,5.33-.89-.88-.87-1.87-1.16-2.71s-.5-1.72-.75-2.62h-5.52l-.11-.26c1.3-1.25,3-2,4.44-3.18-.44-1.78-1.38-3.4-1.6-5.27a45.57,45.57,0,0,1,4.45,3.17c1.65-.88,2.86-2.4,4.81-3.44-.44,2.13-1.39,3.75-1.82,5.61l4.45,3Z" transform="translate(-50.13 -39.38)"/><path d="M247,130.65c-3-1.65-4.48-6.76-2.66-9.37C247.41,122.4,248.54,128.69,247,130.65Z" transform="translate(-50.13 -39.38)"/><path d="M282.48,121.24c1.65,3,.21,7.8-2.72,9.42C278.06,128.12,279.71,122.28,282.48,121.24Z" transform="translate(-50.13 -39.38)"/><path d="M305.59,88.15c3.07.69,4.46,6,3.14,9.32C306.07,96.6,304.37,91.65,305.59,88.15Z" transform="translate(-50.13 -39.38)"/><path d="M218.06,97.56c-1.36-4,.3-8.8,3-9.39C222.8,91.19,220.5,96.47,218.06,97.56Z" transform="translate(-50.13 -39.38)"/><path d="M218.57,106.45c-3.35,1-8.24-1.78-8.46-4.86C213.36,100.85,217.73,103.37,218.57,106.45Z" transform="translate(-50.13 -39.38)"/><path d="M308.15,106.52c.64-2.52,4.79-5.77,8.46-5C316.76,104.41,312.07,107.21,308.15,106.52Z" transform="translate(-50.13 -39.38)"/><path d="M475.14,195.36a5.09,5.09,0,0,1-5.16,5.15,5.14,5.14,0,1,1,.13-10.27A5.05,5.05,0,0,1,475.14,195.36Zm-.55,0a4.51,4.51,0,0,0-4.55-4.57,4.59,4.59,0,1,0,4.55,4.57Z" transform="translate(-50.13 -39.38)"/><path d="M471.34,196l1.11,1.67c-.9.52-1.27-.05-1.66-.61s-.7-1.23-1.66-.83c-.07.48-.15,1-.23,1.56h-.83v-5.21c1,0,1.87,0,2.75,0a1.54,1.54,0,0,1,1.53,1.14,1.63,1.63,0,0,1-.63,1.92C471.62,195.74,471.53,195.84,471.34,196Zm-2.33-.92a7,7,0,0,0,1.62,0,1.1,1.1,0,0,0,.66-.69c.12-.46-.22-.77-.67-.83s-1,0-1.53,0C469.06,194.06,469,194.49,469,195.09Z" transform="translate(-50.13 -39.38)"/></svg>