<svg id="Слой_1" data-name="Слой 1" xmlns="http://www.w3.org/2000/svg" viewBox="0 0 383.58 161.21"><defs><style>.cls-1{fill:#1d1d1b;}.cls-2,.cls-3{fill:none;stroke:#1d1d1b;stroke-miterlimit:10;}.cls-2{stroke-width:3px;}</style></defs><title>niamh</title><path class="cls-1" d="M189.07,132.52a4,4,0,0,1-1.27.17,4.46,4.46,0,0,1-3.35-1.51L125.66,69.3c-1.06-1.12-1.91-1.67-2.54-1.67s-1,.61-.8,1.84v58.35c0,3.14-1.49,4.7-4.46,4.7s-4.62-1.56-4.62-4.7V54.71c0-3.13,1.48-4.69,4.46-4.69a4.64,4.64,0,0,1,3.5,1.5Q150,81.72,164.85,97.31T181,114.24a9.54,9.54,0,0,0,1.75,1.34c.64,0,.84-.44.64-1.34V54.71c0-3.13,1.48-4.69,4.46-4.69,3.18,0,4.78,1.56,4.78,4.69v73.11c0,2.58-1.17,4.14-3.51,4.7" transform="translate(-111.74 -6.93)"/><path class="cls-2" d="M189.07,132.52a4,4,0,0,1-1.27.17,4.46,4.46,0,0,1-3.35-1.51L125.66,69.3c-1.06-1.12-1.91-1.67-2.54-1.67s-1,.61-.8,1.84v58.35c0,3.14-1.49,4.7-4.46,4.7s-4.62-1.56-4.62-4.7V54.71c0-3.13,1.48-4.69,4.46-4.69a4.64,4.64,0,0,1,3.5,1.5Q150,81.72,164.85,97.31T181,114.24a9.54,9.54,0,0,0,1.75,1.34c.64,0,.84-.44.64-1.34V54.71c0-3.13,1.48-4.69,4.46-4.69,3.18,0,4.78,1.56,4.78,4.69v73.11C192.58,130.4,191.41,132,189.07,132.52Z" transform="translate(-111.74 -6.93)"/><path class="cls-1" d="M210.25,132.69c-2.86,0-4.3-1.56-4.3-4.7V54.88c0-3.13,1.44-4.7,4.3-4.7s4.31,1.57,4.31,4.7V128c0,3.14-1.44,4.7-4.31,4.7m.32-92.64q-4.62,0-4.62-5t4.62-5q4.78,0,4.78,5t-4.78,5" transform="translate(-111.74 -6.93)"/><path class="cls-2" d="M210.25,132.69c-2.86,0-4.3-1.56-4.3-4.7V54.88c0-3.13,1.44-4.7,4.3-4.7s4.31,1.57,4.31,4.7V128C214.56,131.13,213.12,132.69,210.25,132.69Zm.32-92.64q-4.62,0-4.62-5t4.62-5q4.78,0,4.78,5T210.57,40.05Z" transform="translate(-111.74 -6.93)"/><path class="cls-1" d="M301.86,132.69q-4.31,0-4.3-4.53v-4.53c0-2-.49-3-1.44-3a4.51,4.51,0,0,0-2.87,1.51Q281.79,132.7,267,132.69a37.19,37.19,0,0,1-24.53-8.89,42,42,0,0,1-13.71-23.48c-.63-3,.8-4.52,4.31-4.52q4,0,4.29,4.52a33,33,0,0,0,11.16,16.77A29.08,29.08,0,0,0,267,123.63a28.74,28.74,0,0,0,21.66-9.39,32.63,32.63,0,0,0,8.93-22.8,31.89,31.89,0,0,0-8.93-22.81,29.54,29.54,0,0,0-40.14-2.85,30.74,30.74,0,0,0-10.83,16.77c-.86,3-2.39,4.53-4.62,4.53-3.51,0-4.94-1.51-4.31-4.53a39.9,39.9,0,0,1,13.54-23.14A36.66,36.66,0,0,1,267,50.18q14.8,0,24.69,9.06l1.43,1.34a4.42,4.42,0,0,0,3,1.68c.95,0,1.44-1,1.44-3V54.71q0-4.53,4.3-4.53c2.86,0,4.3,1.51,4.3,4.53v73.45c0,3-1.44,4.53-4.3,4.53" transform="translate(-111.74 -6.93)"/><path class="cls-2" d="M301.86,132.69q-4.31,0-4.3-4.53v-4.53c0-2-.49-3-1.44-3a4.51,4.51,0,0,0-2.87,1.51Q281.79,132.7,267,132.69a37.19,37.19,0,0,1-24.53-8.89,42,42,0,0,1-13.71-23.48c-.63-3,.8-4.52,4.31-4.52q4,0,4.29,4.52a33,33,0,0,0,11.16,16.77A29.08,29.08,0,0,0,267,123.63a28.74,28.74,0,0,0,21.66-9.39,32.63,32.63,0,0,0,8.93-22.8,31.89,31.89,0,0,0-8.93-22.81,29.54,29.54,0,0,0-40.14-2.85,30.74,30.74,0,0,0-10.83,16.77c-.86,3-2.39,4.53-4.62,4.53-3.51,0-4.94-1.51-4.31-4.53a39.9,39.9,0,0,1,13.54-23.14A36.66,36.66,0,0,1,267,50.18q14.8,0,24.69,9.06l1.43,1.34a4.42,4.42,0,0,0,3,1.68c.95,0,1.44-1,1.44-3V54.71q0-4.53,4.3-4.53c2.86,0,4.3,1.51,4.3,4.53v73.45C306.16,131.18,304.72,132.69,301.86,132.69Z" transform="translate(-111.74 -6.93)"/><path class="cls-1" d="M394.25,132.69c-2.87,0-4.3-1.56-4.3-4.7V69.64c-.21-1-.59-1.52-1.12-1.52a3.9,3.9,0,0,0-2.4,1.52l-24.82,26c-1.28,1.34-2.14,2-2.56,2s-1.13-.67-2.41-2l-13-13.58q-6.24-6.55-12.17-12.58c-1.06-1.12-1.87-1.68-2.4-1.68s-1,.62-1,1.85V128c0,3.14-1.43,4.7-4.3,4.7s-4.31-1.56-4.31-4.7V54.88c0-3.13,1.49-4.7,4.45-4.7a4.86,4.86,0,0,1,2.54.51,3.82,3.82,0,0,0,.55.5,2.81,2.81,0,0,1,.4.33l29.2,30.86c1.16,1.23,1.95,1.85,2.38,1.85s1.16-.56,2.21-1.68l29.2-30.86a4.83,4.83,0,0,1,3.65-1.51q4.44,0,4.44,4.7V128c0,3.14-1.43,4.7-4.3,4.7" transform="translate(-111.74 -6.93)"/><path class="cls-2" d="M394.25,132.69c-2.87,0-4.3-1.56-4.3-4.7V69.64c-.21-1-.59-1.52-1.12-1.52a3.9,3.9,0,0,0-2.4,1.52l-24.82,26c-1.28,1.34-2.14,2-2.56,2s-1.13-.67-2.41-2l-13-13.58q-6.24-6.55-12.17-12.58c-1.06-1.12-1.87-1.68-2.4-1.68s-1,.62-1,1.85V128c0,3.14-1.43,4.7-4.3,4.7s-4.31-1.56-4.31-4.7V54.88c0-3.13,1.49-4.7,4.45-4.7a4.86,4.86,0,0,1,2.54.51,3.82,3.82,0,0,0,.55.5,2.81,2.81,0,0,1,.4.33l29.2,30.86c1.16,1.23,1.95,1.85,2.38,1.85s1.16-.56,2.21-1.68l29.2-30.86a4.83,4.83,0,0,1,3.65-1.51q4.44,0,4.44,4.7V128C398.55,131.13,397.12,132.69,394.25,132.69Z" transform="translate(-111.74 -6.93)"/><path class="cls-1" d="M492.63,131.6a4.44,4.44,0,0,1-3.11,1.09q-4.31,0-4.3-4.53V91.6a31.92,31.92,0,0,0-8.92-22.8q-9.09-9.55-21.67-9.56-12.75,0-22,9.56a32,32,0,0,0-9.07,22.8v36.56a4,4,0,0,1-4.31,4.53c-2.86,0-4.3-1.51-4.3-4.53v-115c0-3.13,1.44-4.69,4.3-4.69a4.29,4.29,0,0,1,3.11,1.16,4.73,4.73,0,0,1,1.2,3.52V61.92c.31.79.74,1.18,1.27,1.18a3.53,3.53,0,0,0,2.07-1.18,37,37,0,0,1,27.72-11.74q16.25,0,27.72,12.08A41.76,41.76,0,0,1,493.82,91.6v36.56a4.47,4.47,0,0,1-1.19,3.44" transform="translate(-111.74 -6.93)"/><path class="cls-2" d="M492.63,131.6a4.44,4.44,0,0,1-3.11,1.09q-4.31,0-4.3-4.53V91.6a31.92,31.92,0,0,0-8.92-22.8q-9.09-9.55-21.67-9.56-12.75,0-22,9.56a32,32,0,0,0-9.07,22.8v36.56a4,4,0,0,1-4.31,4.53c-2.86,0-4.3-1.51-4.3-4.53v-115c0-3.13,1.44-4.69,4.3-4.69a4.29,4.29,0,0,1,3.11,1.16,4.73,4.73,0,0,1,1.2,3.52V61.92c.31.79.74,1.18,1.27,1.18a3.53,3.53,0,0,0,2.07-1.18,37,37,0,0,1,27.72-11.74q16.25,0,27.72,12.08A41.76,41.76,0,0,1,493.82,91.6v36.56A4.47,4.47,0,0,1,492.63,131.6Z" transform="translate(-111.74 -6.93)"/><polygon class="cls-1" points="38.93 147.94 58.95 147.94 58.95 136.63 60.4 136.63 60.4 160.28 58.95 160.28 58.95 148.81 38.93 148.81 38.93 160.28 37.49 160.28 37.49 136.63 38.93 136.63 38.93 147.94"/><polygon class="cls-3" points="38.93 147.94 58.95 147.94 58.95 136.63 60.4 136.63 60.4 160.28 58.95 160.28 58.95 148.81 38.93 148.81 38.93 160.28 37.49 160.28 37.49 136.63 38.93 136.63 38.93 147.94"/><path class="cls-1" d="M183.74,158.1H201.2l-8.75-13.65Zm-6,9.11h-1.54l15.32-23.65h1.88l15.34,23.65H207.2L201.84,159H183.12Z" transform="translate(-111.74 -6.93)"/><path class="cls-3" d="M183.74,158.1H201.2l-8.75-13.65Zm-6,9.11h-1.54l15.32-23.65h1.88l15.34,23.65H207.2L201.84,159H183.12Z" transform="translate(-111.74 -6.93)"/><rect class="cls-1" x="101.07" y="136.63" width="1.45" height="23.65"/><rect class="cls-3" x="101.07" y="136.63" width="1.45" height="23.66"/><path class="cls-1" d="M229.44,143.56c5.57,0,7.79.32,9.53,1,2.9,1,5.16,3.55,5.16,6.3.21,2.93-2.74,7.38-10.53,7.42l-1.41,0,9.63,8.91H240l-10.5-9.78h2.24c3.38,0,5.55-.19,7.93-1.5,2.27-1.57,3-3.2,3-5.05,0-2-1.49-4.32-4.25-5.5-2.18-.93-4.79-1-9-1h-6.72v22.79h-1.45V143.56Z" transform="translate(-111.74 -6.93)"/><path class="cls-3" d="M229.44,143.56c5.57,0,7.79.32,9.53,1,2.9,1,5.16,3.55,5.16,6.3.21,2.93-2.74,7.38-10.53,7.42l-1.41,0,9.63,8.91H240l-10.5-9.78h2.24c3.38,0,5.55-.19,7.93-1.5,2.27-1.57,3-3.2,3-5.05,0-2-1.49-4.32-4.25-5.5-2.18-.93-4.79-1-9-1h-6.72v22.79h-1.45V143.56Z" transform="translate(-111.74 -6.93)"/><polygon class="cls-1" points="157.04 136.21 157.04 137.71 138.97 148.26 157.04 158.8 157.04 160.28 137.69 149.02 137.69 147.49 157.04 136.21"/><polygon class="cls-3" points="157.04 136.21 157.04 137.71 138.97 148.26 157.04 158.8 157.04 160.28 137.69 149.02 137.69 147.49 157.04 136.21"/><path class="cls-1" d="M291.26,166.77c9.48,0,17.11-4.83,17.11-11.38S300.74,144,291.26,144s-17.12,4.83-17.12,11.38,7.64,11.38,17.12,11.38m0-23.63c10.26,0,18.56,5.15,18.56,12.25s-8.3,12.25-18.56,12.25-18.57-5.15-18.57-12.25,8.33-12.25,18.57-12.25" transform="translate(-111.74 -6.93)"/><path class="cls-3" d="M291.26,166.77c9.48,0,17.11-4.83,17.11-11.38S300.74,144,291.26,144s-17.12,4.83-17.12,11.38S281.78,166.77,291.26,166.77Zm0-23.63c10.26,0,18.56,5.15,18.56,12.25s-8.3,12.25-18.56,12.25-18.57-5.15-18.57-12.25S281,143.14,291.26,143.14Z" transform="translate(-111.74 -6.93)"/><polygon class="cls-1" points="230.53 159 230.63 159 230.63 136.63 232.08 136.63 232.08 160.28 230.24 160.28 205.39 137.59 205.3 137.59 205.3 160.28 203.84 160.28 203.84 136.63 206.03 136.63 230.53 159"/><polygon class="cls-3" points="230.53 159 230.63 159 230.63 136.63 232.08 136.63 232.08 160.28 230.24 160.28 205.39 137.59 205.3 137.59 205.3 160.28 203.84 160.28 203.84 136.63 206.03 136.63 230.53 159"/><path class="cls-1" d="M383.71,162.07c-2.42,2.72-8.12,5.57-15.62,5.57-10.25,0-18.56-5.15-18.56-12.25s8.31-12.25,18.56-12.25c7.64,0,13.06,3,15.67,5.7h-1.69c-1.35-1.25-6-4.81-14-4.84-9.48,0-17.11,4.84-17.11,11.39s7.63,11.38,17.11,11.38c8.37,0,13-3.78,14-4.7Z" transform="translate(-111.74 -6.93)"/><path class="cls-3" d="M383.71,162.07c-2.42,2.72-8.12,5.57-15.62,5.57-10.25,0-18.56-5.15-18.56-12.25s8.31-12.25,18.56-12.25c7.64,0,13.06,3,15.67,5.7h-1.69c-1.35-1.25-6-4.81-14-4.83-9.48,0-17.11,4.83-17.11,11.38s7.63,11.38,17.11,11.38c8.37,0,13-3.78,14-4.7Z" transform="translate(-111.74 -6.93)"/><polygon class="cls-1" points="297.17 136.63 297.17 137.49 278.98 137.49 278.98 147.94 297.17 147.94 297.17 148.81 278.98 148.81 278.98 159.42 297.17 159.42 297.17 160.28 277.53 160.28 277.53 136.63 297.17 136.63"/><polygon class="cls-3" points="297.17 136.63 297.17 137.49 278.98 137.49 278.98 147.94 297.17 147.94 297.17 148.81 278.98 148.81 278.98 159.42 297.17 159.42 297.17 160.28 277.53 160.28 277.53 136.63 297.17 136.63"/><path class="cls-1" d="M416.69,156.12h6.91c4,0,6.1-.32,8.13-1.31a5,5,0,0,0,0-9.08c-2-1-4.06-1.31-8.13-1.31h-6.91Zm6.87-12.56c4.25,0,6.57.26,8.94,1.4a5.7,5.7,0,0,1,0,10.62c-2.37,1.15-4.78,1.41-8.94,1.41h-6.87v10.22h-1.45V143.56Z" transform="translate(-111.74 -6.93)"/><path class="cls-3" d="M416.69,156.12h6.91c4,0,6.1-.32,8.13-1.31a5,5,0,0,0,0-9.08c-2-1-4.06-1.31-8.13-1.31h-6.91Zm6.87-12.56c4.25,0,6.57.26,8.94,1.4a5.7,5.7,0,0,1,0,10.62c-2.37,1.15-4.78,1.41-8.94,1.41h-6.87v10.22h-1.45V143.56Z" transform="translate(-111.74 -6.93)"/><polygon class="cls-1" points="346.09 136.63 346.09 137.49 336.38 137.49 336.38 160.28 334.94 160.28 334.94 137.49 325.2 137.49 325.2 136.63 346.09 136.63"/><polygon class="cls-3" points="346.09 136.63 346.09 137.49 336.38 137.49 336.38 160.28 334.94 160.28 334.94 137.49 325.2 137.49 325.2 136.63 346.09 136.63"/></svg>