<svg id="Слой_1" data-name="Слой 1" xmlns="http://www.w3.org/2000/svg" viewBox="0 0 525.27 100.24"><defs><style>.cls-1{fill:#13100d;fill-rule:evenodd;}</style></defs><title>otools</title><polygon class="cls-1" points="225.06 4.34 225.06 32.6 212.38 32.6 212.38 70.56 212.38 82.67 212.38 97.15 212.38 99.09 182.01 99.09 182.01 97.15 182.01 82.67 182.01 70.56 182.01 32.6 169.34 32.6 169.34 4.34 182.01 4.34 212.38 4.34 225.06 4.34"/><polygon class="cls-1" points="470.94 70.83 470.94 99.09 454.44 99.09 424.07 99.09 424.07 97.15 424.07 82.67 424.07 70.83 424.07 70.56 424.07 4.34 454.44 4.34 454.44 70.56 454.44 70.83 470.94 70.83"/><path class="cls-1" d="M291.6,71.53a20.22,20.22,0,1,1-20.22,20.22A20.22,20.22,0,0,1,291.6,71.53m0-28.46a48.69,48.69,0,1,1-48.69,48.68A48.67,48.67,0,0,1,291.6,43.07Z" transform="translate(-19.55 -40.2)"/><path class="cls-1" d="M391.52,71.53A20.22,20.22,0,1,1,371.3,91.75a20.22,20.22,0,0,1,20.22-20.22m0-28.46a48.69,48.69,0,1,1-48.69,48.68A48.67,48.67,0,0,1,391.52,43.07Z" transform="translate(-19.55 -40.2)"/><path class="cls-1" d="M544.82,42.07V69.49a18.9,18.9,0,0,0-4.78-.91,7.42,7.42,0,0,0-5.57,2.4,7.88,7.88,0,0,0-2.33,5.76c0,1.92.84,4.35,2.54,7.3l2.19,3.79c9.24,16,3.67,31.22-6.47,40.7-7.23,6.74-16.11,10.26-26.62,10.63a41.73,41.73,0,0,1-9.21-.3V111.05c7.62.94,19.74-2.34,12.26-15.12a44.23,44.23,0,0,1-6.38-22.53A32.12,32.12,0,0,1,510.12,50a31.22,31.22,0,0,1,23.1-9.82,36.86,36.86,0,0,1,11.6,1.87" transform="translate(-19.55 -40.2)"/><path class="cls-1" d="M150.25,122.87v16.42H119.88V122.87a16.35,16.35,0,0,0,30.37,0" transform="translate(-19.55 -40.2)"/><path class="cls-1" d="M150.25,44.54v66.22a16.35,16.35,0,0,0-30.37,0V44.54Z" transform="translate(-19.55 -40.2)"/><path class="cls-1" d="M68.23,71.53A20.22,20.22,0,1,1,48,91.75,20.22,20.22,0,0,1,68.23,71.53m0-28.46A48.69,48.69,0,1,1,19.55,91.75,48.68,48.68,0,0,1,68.23,43.07Z" transform="translate(-19.55 -40.2)"/></svg>