<svg id="Слой_1" data-name="Слой 1" xmlns="http://www.w3.org/2000/svg" viewBox="0 0 366.82 97.69"><title>sanctuaryspa</title><path d="M362.14,210.2c5,0,10.51-.28,16,.08s9.7,3,10.72,7.52c1.18,5.17-.58,10.19-6.54,12.37a3.09,3.09,0,0,0-.66.47C387,235,390,241.16,394.25,246.29c3.48,4.17,6.74,8.53,11.73,11.14,4.28,2.25,8.58,3.36,13.13.78a4,4,0,0,1,.89-.12c-2.69,2.73-5.83,3.6-9.17,4-6.1.77-11-1.85-15.43-5.58a91.21,91.21,0,0,1-18.64-21.59,6.29,6.29,0,0,0-2.49-2.23c-2.17-1-3.29-.11-3.28,2.21,0,4.05.05,8.1,0,12.15,0,2-.19,4,2.52,5.15H361c2.65-1.43,2.28-3.64,2.28-5.74,0-10.67.05-21.34,0-32A17,17,0,0,0,362.14,210.2Zm11.79,3.25a5.67,5.67,0,0,0-1.8,0c-.47.17-1.12.73-1.13,1.12q-.09,6.57.06,13.15c0,.46.6,1.28,1,1.31,3,.27,5.88-.32,7.68-3a8.24,8.24,0,0,0,.58-9C378.94,214.64,376.91,213.2,373.93,213.45Z" transform="translate(-66.59 -201.16)"/><path d="M92.63,213.28c-1.59-3.86-4.2-6.79-8.21-8s-7.62-.44-9.61,2.92-1.32,7.18,2.08,9.37c3.07,2,6.47,3.47,9.71,5.19,3.44,1.82,7,3.58,8.71,7.38,3.43,7.58,1,17.45-8.07,21.09-6.82,2.74-13.13,1.18-19.37-1.73a1.71,1.71,0,0,1-.88-1.15c-.19-3.17-.29-6.34-.4-9.51a1.49,1.49,0,0,1,.14-.53c1.34,2.14,2.55,4.3,4,6.31a10.94,10.94,0,0,0,14.4,2.54c4.67-3.19,4.75-10.89,0-13.95-2.86-1.84-6-3.19-9-4.86-4.3-2.43-8-5.41-9.11-10.62a13.58,13.58,0,0,1,10.49-16.06,21.68,21.68,0,0,1,13.43,1.16c1.21.53,1.89,1,1.83,2.59-.09,2.55.21,5.11.35,7.66Z" transform="translate(-66.59 -201.16)"/><path d="M179.88,254.67l-28.41-35.41v2.16c0,8.92,0,17.83,0,26.75,0,1.62.1,3.09,1.79,4h-7.47c2.55-1.53,2-3.89,2-6.08,0-9.12,0-18.24,0-27.36,0-4.89,1-4.63-4.14-9,3.54,0,6.81-.07,10.07.05.58,0,1.26.71,1.7,1.24,4.15,5.11,8.26,10.25,12.38,15.39,2.34,2.93,4.66,5.87,7,8.79a9.8,9.8,0,0,0,1.07,1c0-7.67.05-15.13-.06-22.59a14.45,14.45,0,0,0-1.07-3.73h6.95c-1.91,1-1.81,2.73-1.8,4.48,0,12.57,0,25.14,0,37.7Z" transform="translate(-66.59 -201.16)"/><path d="M278.46,209.86h12.36c-2.47,1.34-2.56,3.31-2.54,5.45.08,7.63,0,15.27.08,22.9a20.08,20.08,0,0,0,1.06,5.67c1.35,4.22,5.13,5.21,8.44,5.05,4.44-.22,7.16-2.37,8.25-6.34a13.15,13.15,0,0,0,.44-3.37c0-8.44.07-16.89,0-25.33,0-1.3-.75-2.59-1.17-3.91h7.08c-1.78,1.1-1.83,2.82-1.81,4.66,0,7.7.1,15.41-.05,23.11-.08,4.41-.79,8.75-4.36,11.94a11.15,11.15,0,0,1-7.67,3.06c-2.8-.05-5.74.05-8.35-.77-6.94-2.19-9.86-6.61-9.89-14.1,0-7.9,0-15.81,0-23.71A4.7,4.7,0,0,0,278.46,209.86Z" transform="translate(-66.59 -201.16)"/><path d="M228.26,222c-1.86-2.17-3.39-4.63-5.53-6.32-6.11-4.83-15.77-3-20.34,3.36-5.23,7.31-4,20.3,2.15,26.06,7,6.51,19.23,5.14,23.32-5.07,0-.09.21-.13.66-.42,0,1.67,0,3.14,0,4.61,0,.47-.28,1-.21,1.39.48,2.82-1.07,4.14-3.45,5-8.89,3.19-17.62,3.71-25.66-2.14a20,20,0,0,1-8.36-16c-.31-6.64,1.63-12.45,6.42-17.12,5-4.83,11.12-6.48,17.91-6.13a31.2,31.2,0,0,1,10.91,2.46,2.38,2.38,0,0,1,1.77,2.49C227.87,216.88,228.11,219.54,228.26,222Z" transform="translate(-66.59 -201.16)"/><path d="M109.25,252.3H100.4c4-3.45,4.92-8.38,6.8-12.76,3.63-8.45,7.06-17,10.57-25.49.75-1.81,1.49-3.62,2.39-5.8,2,4.75,3.85,9.14,5.68,13.54,3.83,9.18,7.59,18.39,11.51,27.52.5,1.15,1.84,1.94,2.82,2.93H126.53c3.35-1.56,1.77-3.58,1-5.53-.66-1.6-1.21-3.26-2-4.79a2.4,2.4,0,0,0-1.65-1.2c-3.79-.11-7.58-.13-11.36,0a2.83,2.83,0,0,0-2,1.4c-.93,1.84-1.53,3.84-2.35,5.74S107,251.22,109.25,252.3Zm14.3-15.4c-1.91-4.75-3.7-9.21-5.64-14.06l-5.43,14.06Z" transform="translate(-66.59 -201.16)"/><path d="M324.2,252.28h-8.71c4.46-3.88,5.27-9.5,7.56-14.35s4.18-10.13,6.25-15.2c1.93-4.72,3.89-9.43,6-14.53,1.37,3.32,2.56,6.24,3.78,9.16,4.14,9.91,8.32,19.8,12.4,29.74.85,2.06,1.62,4.06,3.86,5.14H341.67c2.77-1.31,1.95-3.08,1.24-4.84s-1.55-3.56-2.17-5.39a1.81,1.81,0,0,0-2.09-1.37c-3.65.06-7.3.1-10.95,0a2,2,0,0,0-2.21,1.53c-.74,2.06-1.5,4.12-2.36,6.13C322.45,249.9,322.1,251.3,324.2,252.28ZM333,222.87c-1.87,4.9-3.6,9.4-5.35,14h11C336.77,232.21,335,227.73,333,222.87Z" transform="translate(-66.59 -201.16)"/><path d="M417.32,228.61c2.29-4.65,4.44-9,6.58-13.37.17-.36.26-.76.44-1.11,1.45-2.73,1.34-3.08-1.72-4.23h10.79c-4.73,1.76-5.5,6-7.4,9.41-2.18,3.89-4.21,7.88-6,11.95a12.86,12.86,0,0,0-.71,4.86c-.1,3.78,0,7.57,0,11.35,0,2.88,0,2.89,2.27,4.75H408.44c3.18-1.38,2.47-3.74,2.49-5.87a43.85,43.85,0,0,1,.05-6.07c.9-5.81-1.45-10.54-4.44-15.2-2.39-3.71-4.41-7.66-6.75-11.41a32.1,32.1,0,0,0-3.28-3.78h14.06c-2.42,1.74-2.43,1.75-.93,4.52C412.14,219.05,414.65,223.68,417.32,228.61Z" transform="translate(-66.59 -201.16)"/><path d="M237.22,209.86h32.61v6.7c-3.21-4.64-8-2.42-12.39-3.27v2.46c0,10.87,0,21.74,0,32.6a16.78,16.78,0,0,0,1,3.84H247.69c2.33-1.57,1.75-3.87,1.75-6,0-10.46.05-20.92,0-31.38,0-.45-.72-1.28-1.1-1.27a54.22,54.22,0,0,0-8.07.45c-1.12.18-2.08,1.37-3.05,2.05Z" transform="translate(-66.59 -201.16)"/><path d="M242.42,287v11.25H240.5V267.79c1.95,0,3.95-.05,5.94,0a65.25,65.25,0,0,1,8.86.44c5,.83,8.35,4,7.86,10.24-.32,4-4.09,7.63-8.75,7.95C250.52,286.69,246.62,286.83,242.42,287Zm.06-2.21c3.41,0,6.71.11,10-.05a15.89,15.89,0,0,0,4.63-1.06c3-1.1,4.33-3.6,4.3-6.61a6.74,6.74,0,0,0-4.54-6.49c-4.67-1.9-9.52-.91-14.39-1.18Z" transform="translate(-66.59 -201.16)"/><path d="M302.27,298.81a12.52,12.52,0,0,1-2.16-2.28c-1-1.8-1.83-3.71-2.66-5.6a2.24,2.24,0,0,0-2.43-1.58c-5,.09-10,0-15,0a2.68,2.68,0,0,0-1.93,1.18c-1.18,2.1-2.06,4.35-3.23,6.45-.4.71-1.35,1.12-2.05,1.66l-.51-.51c1.66-3.47,3.33-6.93,5-10.4q4.28-8.94,8.54-17.87a12.08,12.08,0,0,1,.83-1.6c.75-1.12,1.45-1.24,2.1.13q4,8.49,8.12,17L303,298.19Zm-14.66-28.44-8.16,17.21H295.8Z" transform="translate(-66.59 -201.16)"/><path d="M222.34,271.05l-1.09,1.63a15.34,15.34,0,0,0-8.92-3.46c-3-.12-5.69.5-7.74,2.9s-1.7,5.95,1,7.27,5.88,2,8.84,3c1.4.46,2.83.84,4.18,1.39a7.23,7.23,0,0,1,4.71,6.66,8.7,8.7,0,0,1-5.14,7.33c-6.47,2.67-14,.16-18-4.32l1.4-1.28a14,14,0,0,0,11.89,4.73,11.35,11.35,0,0,0,5.8-2.27c3.57-3,2.5-7.83-1.93-9.35-3.27-1.12-6.68-1.84-10-2.86-4-1.23-6.05-3.76-5.89-7.12.17-3.59,3.14-6.7,7-7.52C213.48,266.68,218,267.9,222.34,271.05Z" transform="translate(-66.59 -201.16)"/><path d="M372.72,281.08l-59.12,1v-2.24l59.12,1Z" transform="translate(-66.59 -201.16)"/><path d="M126.34,280.91l58.87-1,.18,2.23-59-1Z" transform="translate(-66.59 -201.16)"/></svg>