<svg id="Слой_1" data-name="Слой 1" xmlns="http://www.w3.org/2000/svg" viewBox="0 0 654.79 271.92"><title>serical</title><path d="M47.89,69.07c6.54,0,11.55,9.52,17,55.92h2.44V64.61H65.67l-7.75,9.52c-2.58-5.47-6.38-9.52-11.7-9.52-7.9,0-18.84,10.13-18.84,33.23C27.38,131.68,56,163.7,56,193.49c0,14-1.52,17.42-8.06,17.42-9,0-14.59-17.22-18.84-60.19H26.92V215h1.52L37,206.45c3.19,5.88,8.21,8.51,13.53,8.51,13.67,0,21-14.59,21-31.61,0-37.08-30.55-75.17-30.55-100.71C40.9,76.57,42.12,69.07,47.89,69.07Z" transform="translate(-26.92)"/><path d="M108.48,69.47h5.78v140h-5.78v3.24H160.3V153.57H158c-.76,8.5-1.67,14.38-4.86,31.2-4.25,22.29-7.75,24.72-15.65,24.72H133V139.58c8.66,1,10.94,9.73,13.07,36.48h1.67v-75h-2.13c-1.06,27-4.86,33.43-12.61,35.26V69.47h7.9c9.58,0,12.31,12,17.48,52.28h2V66.23H108.48Z" transform="translate(-26.92)"/><path d="M262.51,188.62c-.92,14-2,18.44-5.63,18.44-2.12,0-3-3.65-3-11.55V175.65c0-24.52-5.62-30.59-18.69-37.08v-.4c13.68-5.67,19.45-17.83,19.45-36.89,0-18.23-8.66-35-28.11-35H200.8v3.24h5.78v140H200.8v3.24h30.4v-3.24h-5.93V139.78c7.6,0,10.64,1.63,10.64,14.6v40.73c0,12.76,4.56,18.84,14.44,18.84,7.9,0,14.89-3,14.59-25.33ZM225.27,137V69.47c6.84,0,9.88,1,9.88,9.93v48C235.15,133.91,233.48,137,225.27,137Z" transform="translate(-26.92)"/><polygon points="292.92 69.47 299.6 69.47 299.6 66.23 267.54 66.23 267.54 69.47 274.22 69.47 274.22 209.49 267.54 209.49 267.54 212.73 300.06 212.73 300.06 209.49 292.92 209.49 292.92 69.47"/><path d="M399.87,153.36c.76,38.5-5.63,57.15-14.59,57.15-4.11,0-6.08-3.25-6.08-13.79V75.15c0-2.64.91-6.69,3.65-6.69,5.31,0,10.18,5.67,16.71,56.74h2.13V65h-1.52l-6.69,11.75c-2.28-7.7-5.77-12.16-12.31-12.16-9.57,0-21,10.34-21,60.79v26.54c0,35.87,5.93,63,22.95,63,15.05,0,19.61-24.72,19-61.6Z" transform="translate(-26.92)"/><path d="M679.59,154.18c-7.45,51.66-10.49,55.31-20.52,55.31h-5v-140h6.39V66.23H629.59v3.24h5.77v140h-5.77v3.24h52.13V154.18Z" transform="translate(-26.92)"/><path d="M624,237.74a60.28,60.28,0,0,1-6.45-.76,47,47,0,0,1-3.8-6.46c-1.14-2.65-4.56-5.31-4.56-5.31l.76-6.46,3-3.42.38-5.69a48.43,48.43,0,0,0-4.18-5.7,56.29,56.29,0,0,0-5.32-4.18l.76-6.46S575,140.52,570,130.65s-29.62-68.74-31.52-72.54-3.42-7.22-3.42-7.22l1.9-8L535.86,33l-4.56-3.42s-6.08-12.15-7.22-15.94S519.52,0,515.72,0s-7.59,5.32-7.59,5.32-7.59,8.73-9.49,11S486.48,33,486.48,39.12s5.32,15.19,6.46,18.61,4.93,15.18,4.93,15.18,2.67,5.33,1.15,8.36-2.66,6.08-2.66,6.08S483.44,107.1,481.93,109s-9.12,13.29-10.64,14.43-3.8,6.07-5.7,7.22-3.41,5.69-3.41,5.69V142s-5.7,12.53-8,15.57S444.71,172,444.71,172s-1.14-1.14-6.08,5.7S430.28,200.9,429.9,210s0,11,3.79,11,8.36-7.59,8.36-7.59S458.38,193.69,463.7,185c4.88-8,14.9-27.6,17.67-33.07a36.45,36.45,0,1,0,72,8.31,37.25,37.25,0,0,0-.79-7.6,123.55,123.55,0,0,1,5.73,11.1c1.9,4.93,11.77,20.88,14.43,26.58s10.25,12.15,10.25,12.15V207s.77,1.13,2.66,3.8,8.74,10.63,8.74,10.63,0,6.08,1.14,7.59,4.93,4.18,4.93,4.18-1.13,3.8.38,5.32a5.93,5.93,0,0,0,3.8,1.52l2.28,4.55s-1.52,6.08.76,10.64,3.8,8.36,5.32,10.64a28.13,28.13,0,0,0,4.93,4.93l3.8,1.14a39.62,39.62,0,0,0,6.46-1.9c2.66-1.14,3-3.8,5.31-3.8s4.94.38,5.7-1.52-11.39-25.06-11.39-25.06S625.86,237.74,624,237.74ZM482.63,147.63a8.9,8.9,0,0,1,1.58-4.83c2.65-4.56,11-16.72,11-16.72s-1.52-5.31,0-9.11,17.47-33,17.47-33L515,82.41A34.15,34.15,0,0,1,523.7,93.8c2.7,6.08,13.78,31.29,17.82,39.53a36.47,36.47,0,0,0-58.89,14.3Z" transform="translate(-26.92)"/></svg>