<svg id="Слой_1" data-name="Слой 1" xmlns="http://www.w3.org/2000/svg" viewBox="0 0 432.4 196.33"><title>stapiz</title><path d="M46.3,296.11h4.57c2.52,0,4.25-.5,5.21-1.48a4.91,4.91,0,0,0,1.45-3.6,5,5,0,0,0-.54-2.29,4.39,4.39,0,0,0-1.43-1.61,5.82,5.82,0,0,0-2.2-.77,17.86,17.86,0,0,0-2.72-.16h-6.7V302.9H46.3Zm0-7.93h4.55a10.88,10.88,0,0,1,2.21.14,2.61,2.61,0,0,1,1.49,1,2.87,2.87,0,0,1,.55,1.79,2.76,2.76,0,0,1-1,2.25,5.14,5.14,0,0,1-3.25.79H46.3Z" transform="translate(-33.8 -151.84)"/><path d="M66.58,295.47h2.73a7.93,7.93,0,0,1,1.31.08,3.13,3.13,0,0,1,1.07.46,4.8,4.8,0,0,1,1.21,1.1c.44.53,1,1.31,1.7,2.3L77,302.88h3l-3.11-4.55a11,11,0,0,0-2-2.22,5.54,5.54,0,0,0-1.42-.82,6.39,6.39,0,0,0,3.78-1.56,4,4,0,0,0,1.23-3,4.36,4.36,0,0,0-.75-2.51,3.9,3.9,0,0,0-2-1.6,11.43,11.43,0,0,0-3.61-.44h-7.9v16.69h2.36Zm0-7.44h5.64a4.51,4.51,0,0,1,2.9.76,2.45,2.45,0,0,1,.9,1.95,2.57,2.57,0,0,1-1.85,2.49,8,8,0,0,1-2.52.32H66.58Z" transform="translate(-33.8 -151.84)"/><path d="M89.11,302a8.77,8.77,0,0,0,4.48,1.13,9.52,9.52,0,0,0,4.33-1,7.26,7.26,0,0,0,3.11-3.05,9.39,9.39,0,0,0,1.09-4.53,9.81,9.81,0,0,0-1-4.49,7.47,7.47,0,0,0-3-3.07,9,9,0,0,0-4.45-1.11,8.31,8.31,0,0,0-6.13,2.36,8.73,8.73,0,0,0-2.37,6.5,8.92,8.92,0,0,0,1,4.17,7.61,7.61,0,0,0,3,3.11m.2-12.62a6.35,6.35,0,0,1,4.31-1.61,6,6,0,0,1,3.18.84A5.39,5.39,0,0,1,99,291a8.23,8.23,0,0,1,.74,3.58,6.82,6.82,0,0,1-1.72,5,6.31,6.31,0,0,1-8.72,0,6.49,6.49,0,0,1-1.73-4.76c0-2.5.61-4.3,1.79-5.38" transform="translate(-33.8 -151.84)"/><polygon points="77.48 143.43 85.83 143.42 85.83 141.46 77.48 141.46 77.48 136.3 87.13 136.29 87.13 134.32 75.12 134.33 75.13 151.02 77.49 151.02 77.48 143.43"/><polygon points="107.19 149.02 96.25 149.02 96.25 143.35 106.1 143.34 106.1 141.38 96.25 141.39 96.24 136.29 106.77 136.28 106.77 134.31 93.89 134.32 93.91 151.01 107.19 151 107.19 149.02"/><path d="M157,300.75a7.17,7.17,0,0,1-2.38.37,7.59,7.59,0,0,1-2.73-.48,4,4,0,0,1-1.78-1.31,4.08,4.08,0,0,1-.74-2.05l-2.22.19a5.29,5.29,0,0,0,1,3,5.49,5.49,0,0,0,2.56,2,10.58,10.58,0,0,0,4,.66,8.63,8.63,0,0,0,3.43-.65,5.44,5.44,0,0,0,2.35-1.84,4.32,4.32,0,0,0,.8-2.51,4.07,4.07,0,0,0-.75-2.37,5.28,5.28,0,0,0-2.29-1.7,22.33,22.33,0,0,0-3.94-1.06,10,10,0,0,1-3.55-1.19,1.83,1.83,0,0,1-.7-1.48,2.14,2.14,0,0,1,1-1.77,5.29,5.29,0,0,1,3.11-.73,5,5,0,0,1,3.1.81,3.2,3.2,0,0,1,1.23,2.38l2.27-.17a4.78,4.78,0,0,0-.88-2.62,5,5,0,0,0-2.32-1.75,9.47,9.47,0,0,0-3.5-.6,8.92,8.92,0,0,0-3.26.57,4.78,4.78,0,0,0-2.24,1.67,4.05,4.05,0,0,0-.76,2.37,3.58,3.58,0,0,0,.63,2.06,4.57,4.57,0,0,0,1.9,1.56,17.9,17.9,0,0,0,3.44,1.05,29.66,29.66,0,0,1,3.16.81,3.52,3.52,0,0,1,1.61,1,2.13,2.13,0,0,1,.48,1.36,2.27,2.27,0,0,1-.5,1.43,3.33,3.33,0,0,1-1.54,1" transform="translate(-33.8 -151.84)"/><path d="M178.47,294a24.61,24.61,0,0,0-3.94-1.06,9.84,9.84,0,0,1-3.55-1.18,1.87,1.87,0,0,1-.71-1.48,2.16,2.16,0,0,1,1-1.77,5.28,5.28,0,0,1,3.12-.73,4.84,4.84,0,0,1,3.1.81,3.25,3.25,0,0,1,1.24,2.38l2.26-.17a4.84,4.84,0,0,0-.88-2.62,5,5,0,0,0-2.32-1.76,9.26,9.26,0,0,0-3.49-.59,8.77,8.77,0,0,0-3.27.57,4.78,4.78,0,0,0-2.24,1.66,4.08,4.08,0,0,0-.77,2.37,3.74,3.74,0,0,0,.63,2.07,4.76,4.76,0,0,0,1.9,1.55,16.92,16.92,0,0,0,3.46,1.06,27.3,27.3,0,0,1,3.16.81,3.52,3.52,0,0,1,1.61,1,2.12,2.12,0,0,1,.48,1.35,2.24,2.24,0,0,1-.51,1.43,3.2,3.2,0,0,1-1.53,1.05,7.85,7.85,0,0,1-5.11-.12,4.22,4.22,0,0,1-1.8-1.3,4.66,4.66,0,0,1-.74-2.06l-2.22.19a5.34,5.34,0,0,0,1,3,5.64,5.64,0,0,0,2.57,2,10.86,10.86,0,0,0,4.05.66,8.65,8.65,0,0,0,3.42-.65,5.64,5.64,0,0,0,2.35-1.84,4.36,4.36,0,0,0,.81-2.51,3.85,3.85,0,0,0-.75-2.37,5.33,5.33,0,0,0-2.29-1.71" transform="translate(-33.8 -151.84)"/><rect x="154.98" y="134.27" width="2.36" height="16.69"/><path d="M211.07,302a7.22,7.22,0,0,0,3.09-3.05,9.17,9.17,0,0,0,1.09-4.53,9.37,9.37,0,0,0-1-4.48,7.27,7.27,0,0,0-3-3.08,9,9,0,0,0-4.45-1.1,8.33,8.33,0,0,0-6.15,2.35,9.69,9.69,0,0,0-1.35,10.68,7.48,7.48,0,0,0,3,3.1,8.72,8.72,0,0,0,4.49,1.14,9.39,9.39,0,0,0,4.32-1m-8.68-2.59a6.42,6.42,0,0,1-1.73-4.76c0-2.5.59-4.29,1.8-5.37a6.24,6.24,0,0,1,4.3-1.61,6,6,0,0,1,3.17.83,5.35,5.35,0,0,1,2.15,2.34,8,8,0,0,1,.74,3.57,6.8,6.8,0,0,1-1.71,5,6.32,6.32,0,0,1-8.72,0" transform="translate(-33.8 -151.84)"/><polygon points="190.38 137.82 199.73 150.94 202.16 150.93 202.14 134.24 199.88 134.24 199.89 147.34 190.52 134.25 188.11 134.25 188.12 150.94 190.39 150.94 190.38 137.82"/><path d="M246.08,297.77h7.44l2.09,5.07h2.66L251,286.15h-2.53l-6.85,16.69h2.51Zm2.63-6.69a18.91,18.91,0,0,0,.95-3.18c.29.9.71,2.05,1.28,3.46l1.85,4.62h-6Z" transform="translate(-33.8 -151.84)"/><polygon points="232.28 149.02 232.28 134.31 229.92 134.31 229.92 151 241.04 151 241.04 149.02 232.28 149.02"/><polygon points="24.21 173.54 24.2 156.85 21.83 156.85 21.83 163.71 12.58 163.71 12.58 156.86 10.23 156.86 10.24 173.55 12.59 173.55 12.58 165.69 21.83 165.69 21.84 173.54 24.21 173.54"/><path d="M68.08,320.31h7.44l2.09,5.06h2.68L73,308.68H70.46l-6.83,16.69h2.49Zm2.63-6.69a20.8,20.8,0,0,0,1-3.19c.26.9.7,2.06,1.25,3.47l1.87,4.61h-6Z" transform="translate(-33.8 -151.84)"/><rect x="52.42" y="156.84" width="2.35" height="16.68"/><path d="M112.12,325.34,109,320.8a11.88,11.88,0,0,0-1.94-2.22,6.13,6.13,0,0,0-1.42-.82,6.45,6.45,0,0,0,3.79-1.56,4.1,4.1,0,0,0,1.21-3,4.45,4.45,0,0,0-.74-2.51,4,4,0,0,0-2-1.6,11.77,11.77,0,0,0-3.61-.44H96.42v16.68h2.36v-7.41h2.72a7.84,7.84,0,0,1,1.31.08,3.57,3.57,0,0,1,1.08.44,5.53,5.53,0,0,1,1.21,1.11c.43.54,1,1.3,1.7,2.31l2.36,3.46ZM103.85,316H98.78v-5.52h5.63a4.47,4.47,0,0,1,2.9.76,2.41,2.41,0,0,1,.9,1.94,2.63,2.63,0,0,1-.46,1.5,2.75,2.75,0,0,1-1.39,1,8.32,8.32,0,0,1-2.51.3" transform="translate(-33.8 -151.84)"/><path d="M51.67,348.16a7.62,7.62,0,0,0,4.69-1.43A7.31,7.31,0,0,0,59,342.57L56.68,342a5.44,5.44,0,0,1-1.87,3.18,5.31,5.31,0,0,1-3.33,1.07,6,6,0,0,1-3-.79,4.76,4.76,0,0,1-2.07-2.36,9.74,9.74,0,0,1-.66-3.73,9,9,0,0,1,.57-3.2,4.83,4.83,0,0,1,1.92-2.49,6.11,6.11,0,0,1,3.45-.91,4.57,4.57,0,0,1,4.74,3.47l2.33-.51a6.46,6.46,0,0,0-2.55-3.57,7.53,7.53,0,0,0-4.49-1.29,9.47,9.47,0,0,0-4.31,1,7.24,7.24,0,0,0-3,2.95,9.34,9.34,0,0,0-1.07,4.56,10.61,10.61,0,0,0,1,4.48A6.92,6.92,0,0,0,47,347.06a9,9,0,0,0,4.7,1.1" transform="translate(-33.8 -151.84)"/><path d="M77.85,332a9.13,9.13,0,0,0-4.46-1.11,8.46,8.46,0,0,0-6.15,2.36,8.8,8.8,0,0,0-2.38,6.5,9.42,9.42,0,0,0,1,4.18,7.64,7.64,0,0,0,3,3.09,8.83,8.83,0,0,0,4.5,1.14,9.35,9.35,0,0,0,4.31-1,7.16,7.16,0,0,0,3.1-3,9.41,9.41,0,0,0,1.09-4.54,9.52,9.52,0,0,0-1-4.48,7.48,7.48,0,0,0-3-3.07m-.1,12.52a6.32,6.32,0,0,1-8.71,0,6.39,6.39,0,0,1-1.76-4.76c0-2.51.63-4.29,1.8-5.37a6.32,6.32,0,0,1,4.31-1.61,6.21,6.21,0,0,1,3.19.82A5.58,5.58,0,0,1,78.73,336a8,8,0,0,1,.74,3.56,6.9,6.9,0,0,1-1.72,5" transform="translate(-33.8 -151.84)"/><path d="M98.93,339.07A24.13,24.13,0,0,0,95,338a9.76,9.76,0,0,1-3.55-1.18,1.8,1.8,0,0,1-.7-1.47,2.18,2.18,0,0,1,1-1.79,5.3,5.3,0,0,1,3.12-.72,5.1,5.1,0,0,1,3.1.8A3.43,3.43,0,0,1,99.17,336l2.25-.17a4.66,4.66,0,0,0-.89-2.62,4.75,4.75,0,0,0-2.32-1.75,9.36,9.36,0,0,0-3.48-.61,9.07,9.07,0,0,0-3.28.59,4.33,4.33,0,0,0-2.2,1.66,4,4,0,0,0-.8,2.35,3.7,3.7,0,0,0,.63,2.09A4.85,4.85,0,0,0,91,339.1a16.09,16.09,0,0,0,3.44,1,30.22,30.22,0,0,1,3.17.83,3.39,3.39,0,0,1,1.61,1,2.07,2.07,0,0,1,.48,1.36,2.35,2.35,0,0,1-.5,1.44,3.39,3.39,0,0,1-1.53,1,7.7,7.7,0,0,1-5.12-.12,4.08,4.08,0,0,1-1.8-1.3,4.49,4.49,0,0,1-.73-2.05l-2.22.19a5.49,5.49,0,0,0,1,3,5.56,5.56,0,0,0,2.57,2,10.65,10.65,0,0,0,4.06.66,8.55,8.55,0,0,0,3.42-.65,5.11,5.11,0,0,0,2.33-1.84,4.35,4.35,0,0,0,.82-2.51,3.93,3.93,0,0,0-.74-2.37,5.38,5.38,0,0,0-2.29-1.69" transform="translate(-33.8 -151.84)"/><path d="M111,333.63l5.15,14.21h2.12l5.18-14v14h2.26V331.14h-3.17l-4.24,11.61c-.45,1.19-.75,2.07-1,2.68-.18-.53-.47-1.36-.85-2.48l-4.22-11.8h-3.56v16.69H111Z" transform="translate(-33.8 -151.84)"/><polygon points="112.32 181.26 112.32 179.29 99.45 179.3 99.46 195.99 112.74 195.98 112.73 194.01 101.82 194.01 101.82 188.34 111.66 188.33 111.66 186.37 101.82 186.37 101.82 181.27 112.32 181.26"/><polygon points="126.54 195.97 126.53 181.25 132.41 181.25 132.4 179.28 118.31 179.28 118.31 181.26 124.17 181.25 124.18 195.97 126.54 195.97"/><rect x="138.91" y="179.27" width="2.34" height="16.69"/><path d="M193.71,345.12a5.32,5.32,0,0,1-3.35,1.06,6.17,6.17,0,0,1-3-.78,4.83,4.83,0,0,1-2-2.37,9.65,9.65,0,0,1-.66-3.72,9.22,9.22,0,0,1,.56-3.2,4.92,4.92,0,0,1,1.94-2.49,6,6,0,0,1,3.43-.91,5,5,0,0,1,3,.83,5.23,5.23,0,0,1,1.79,2.64l2.32-.51a6.47,6.47,0,0,0-2.55-3.58,7.56,7.56,0,0,0-4.49-1.28,9.41,9.41,0,0,0-4.32,1,7.33,7.33,0,0,0-3,2.95,9.43,9.43,0,0,0-1.07,4.56,10.87,10.87,0,0,0,1,4.47,7.07,7.07,0,0,0,2.75,3.17,9,9,0,0,0,4.68,1.1,7.69,7.69,0,0,0,4.71-1.44,7.37,7.37,0,0,0,2.66-4.15l-2.36-.55a5.57,5.57,0,0,1-1.85,3.19" transform="translate(-33.8 -151.84)"/><path d="M217,345.56a4.35,4.35,0,0,0,.82-2.51,3.94,3.94,0,0,0-.74-2.36,5.29,5.29,0,0,0-2.3-1.7,23.53,23.53,0,0,0-3.95-1.08,10.28,10.28,0,0,1-3.55-1.17,1.84,1.84,0,0,1-.68-1.48,2.18,2.18,0,0,1,1-1.78,5.22,5.22,0,0,1,3.11-.73,5,5,0,0,1,3.09.8,3.36,3.36,0,0,1,1.25,2.39l2.26-.16a4.89,4.89,0,0,0-.87-2.63,5,5,0,0,0-2.34-1.75,9.41,9.41,0,0,0-3.49-.61,9.11,9.11,0,0,0-3.28.59,4.55,4.55,0,0,0-2.21,1.66,4,4,0,0,0-.78,2.36,3.69,3.69,0,0,0,.63,2.08,4.69,4.69,0,0,0,1.91,1.54,16.28,16.28,0,0,0,3.44,1,29.08,29.08,0,0,1,3.16.83,3.64,3.64,0,0,1,1.61,1,2,2,0,0,1,.49,1.37,2.31,2.31,0,0,1-.52,1.43,3.25,3.25,0,0,1-1.52,1,6.91,6.91,0,0,1-2.38.38,7,7,0,0,1-2.74-.5,3.93,3.93,0,0,1-1.78-1.29,4.58,4.58,0,0,1-.74-2.06l-2.22.19a5.33,5.33,0,0,0,1,3,5.51,5.51,0,0,0,2.57,2,10.62,10.62,0,0,0,4.05.67,8.78,8.78,0,0,0,3.43-.66,5.17,5.17,0,0,0,2.33-1.84" transform="translate(-33.8 -151.84)"/><path d="M91.89,215.56a14.83,14.83,0,0,0,.55-5.42,59.75,59.75,0,0,0-1.13-8.09,21,21,0,0,0-3.82-6.48,26.38,26.38,0,0,0-4.68-4.1s-8.71-6.71-10.09-8.76-1.14-4-1.14-5.64a7.3,7.3,0,0,1,1.06-4,6.31,6.31,0,0,1,2.28-2.51A17.87,17.87,0,0,1,82.49,168a21.92,21.92,0,0,1,10.44,2l8.46,4.63c1.28.32,5.39-15.36,4.45-16.72s-6-3.51-9.44-4.54a29.09,29.09,0,0,0-8.8-1.46,58.21,58.21,0,0,0-8.38.38,31.55,31.55,0,0,0-11.77,4,46.31,46.31,0,0,0-9.92,8.39A35.85,35.85,0,0,0,52,175.52a38.55,38.55,0,0,0-.92,6.81,34.73,34.73,0,0,0,.69,6.8c.69,2.9,4.73,7.87,6.34,9.66s3.79,3.26,6.92,6.26a43.51,43.51,0,0,1,7.26,8.66c1,1.86.72,6.43-.13,8.39s-2.08,2.85-5,4.6c-2.71,1.2-7.15,1.27-9.61,1.05a21.05,21.05,0,0,1-5.72-1.37,36.23,36.23,0,0,1-7.75-4.56,43.39,43.39,0,0,1-3.9-3.7L33.8,233.83a17.58,17.58,0,0,0,9.51,7.64c6.5,2.07,7.47,2,9.77,2.16a53.14,53.14,0,0,0,9.25.16,26.22,26.22,0,0,0,7.94-1.8,64.46,64.46,0,0,0,7.53-3.85,25.11,25.11,0,0,0,5-4.87A45.8,45.8,0,0,0,89.3,224a60.31,60.31,0,0,0,2.59-8.46" transform="translate(-33.8 -151.84)"/><path d="M140.26,244c6.47.07,16.6-4.62,16.6-4.62l2.21-14.58s-3.21,1.24-5.54,1.92-9.14,4.15-9.31-.43,8.5-29.08,8.5-29.08l14.55-.13,2.9-13.76-12,.06,4.28-12H148.27l-3.8,11.77-2.24.12-9.61.17-3.93,13.78,9.44-.13s-9.88,24.78-10.59,30.33.63,9.12,1.45,10.59a13.88,13.88,0,0,0,11.27,6" transform="translate(-33.8 -151.84)"/><path d="M237.5,243.74l19.65-61.05s-16.74-.35-21.56-.06-10.54.54-15.24,2-9.49,3.79-15.71,9.06-9.87,13.66-9.87,13.66A40.06,40.06,0,0,0,191.63,220a44.27,44.27,0,0,0,.53,10.95,24.63,24.63,0,0,0,4.24,8.73c2,1.69,3.19,3,6,3.76a15.94,15.94,0,0,0,7.16.31c5.29-.85,12.87-5.49,12.87-5.49l-1.34,5.4Zm-21.09-12.63c-3.48.41-13.56-1-8.33-17.93s27.68-18.35,27.68-18.35l-10.85,33.71a27.81,27.81,0,0,1-8.5,2.57" transform="translate(-33.8 -151.84)"/><path d="M338,197.13c-2.94-19.65-27.4-13.61-27.4-13.61l3-10.77-15.19,0-5.63,17.17s-21.89,21.59-21.15,27.59c-.34.86,14.9-10.31,14.9-10.31l-22.61,64.46h16.64l9.85-28.46s47,7.94,47.61-46M295.79,229.8l12.47-33.51a28.22,28.22,0,0,1,8.66-2.25c3.5-.27,13.59,1.5,7.57,18.4s-28.7,17.36-28.7,17.36" transform="translate(-33.8 -151.84)"/><polygon points="318.1 92.13 338.77 92.13 357.26 30.61 338.92 30.61 318.1 92.13"/><path d="M385.58,173.78c7.12.17,10.59-5.85,11-11,.11-3.7-.93-9-6.57-8.66a11.27,11.27,0,0,0-11,9.7c-.05,4.19-.61,8.91,6.57,9.92" transform="translate(-33.8 -151.84)"/><polygon points="376.92 46.85 401.86 46.85 361.84 92.19 414.15 92.19 421.99 78.92 395.55 78.45 432.4 30.61 385.9 30.61 376.92 46.85"/></svg>