<svg id="Слой_1" data-name="Слой 1" xmlns="http://www.w3.org/2000/svg" viewBox="0 0 471.52 73.37"><title>sttropez</title><path d="M280.82,286.69l-2-.23a35.92,35.92,0,0,1-15.27-4.92,35.12,35.12,0,0,1-16.84-23.48,37.51,37.51,0,0,1-.69-11.43,35.79,35.79,0,0,1,28.4-32.42,36.06,36.06,0,0,1,10.25-.82c12,.78,21.58,5.82,28.5,15.69A34.62,34.62,0,0,1,319,243.71a39.14,39.14,0,0,1,.32,10.14,35.72,35.72,0,0,1-27.61,31.76,40.3,40.3,0,0,1-6.46,1,4.21,4.21,0,0,0-.58.11Zm36.71-36.9a36.14,36.14,0,0,0-1.08-8.63,32.92,32.92,0,0,0-9-15.95,34.33,34.33,0,0,0-21.85-9.79,36.13,36.13,0,0,0-11,.8,33.75,33.75,0,0,0-26.46,30,36.26,36.26,0,0,0,.44,10.55,33.17,33.17,0,0,0,9.92,18.4,34.41,34.41,0,0,0,22.62,9.43,35.15,35.15,0,0,0,10.12-.95,33.55,33.55,0,0,0,20.13-13.53A34.84,34.84,0,0,0,317.53,249.79Z" transform="translate(-14.24 -213.31)"/><path d="M34.25,286.69c-.71-.08-1.42-.14-2.13-.24A20.65,20.65,0,0,1,19.32,280a19.19,19.19,0,0,1-4.85-10.24c-.09-.53-.15-1.06-.23-1.66.35,0,.66,0,1,0h1c.09.47.18.92.27,1.36a19.91,19.91,0,0,0,3,7.45A17.42,17.42,0,0,0,29.73,284a19.28,19.28,0,0,0,19.92-6.72A16.18,16.18,0,0,0,53,266.66a17.17,17.17,0,0,0-1.55-6.84,15.36,15.36,0,0,0-7.65-7.53A35.91,35.91,0,0,0,37.13,250a76.59,76.59,0,0,1-10.25-3.11,20.92,20.92,0,0,1-5.21-2.79,14.67,14.67,0,0,1-5.79-10.44,19.25,19.25,0,0,1,1-8.9,16.31,16.31,0,0,1,8.07-9,20.57,20.57,0,0,1,15.6-1.52A16.51,16.51,0,0,1,52,225.27a19.07,19.07,0,0,1,.93,3.91,14.79,14.79,0,0,1-2,0c-.07-.29-.14-.56-.21-.83A20,20,0,0,0,48.06,222a13.62,13.62,0,0,0-8-5.9A18.9,18.9,0,0,0,27,217a15,15,0,0,0-8.87,10.71,16.42,16.42,0,0,0,.2,8.18A12.72,12.72,0,0,0,24,243.32a26.71,26.71,0,0,0,5.91,2.75c2.76,1,5.61,1.59,8.44,2.27a29.8,29.8,0,0,1,7.94,3,17.82,17.82,0,0,1,5,4.1,16.49,16.49,0,0,1,3.64,8.84,20,20,0,0,1-.53,7.78,19.34,19.34,0,0,1-8.87,11.48,20.84,20.84,0,0,1-9.8,3,8.15,8.15,0,0,0-.83.1Z" transform="translate(-14.24 -213.31)"/><path d="M485.76,214.8c-.15.2-.31.4-.44.61l-42.93,67.26-.43.7.71,0h40.45v1.93H438.35l43.89-68.77c-1.88,0-3.62,0-5.37,0h-37.1v-2l.64,0h45.35Z" transform="translate(-14.24 -213.31)"/><path d="M194.92,285.34H193V214.6l.52,0c7.9,0,15.8-.11,23.7,0a19.52,19.52,0,0,1,18.94,21.2,19.55,19.55,0,0,1-16,17.52,22.05,22.05,0,0,1-3.34.3c-1.6.05-3.2,0-4.8,0l-.72,0,27.15,31.64a4,4,0,0,1-1.12.06,3.81,3.81,0,0,1-1.48-.08c-.4-.18-.65-.67-1-1l-27.39-31.93-.53-.66h.75c3,0,6,0,8.94,0a16.67,16.67,0,0,0,6.93-1.45A17.13,17.13,0,0,0,234,237a17.48,17.48,0,0,0-13.79-20,22.35,22.35,0,0,0-4.47-.35l-20.1,0h-.7Z" transform="translate(-14.24 -213.31)"/><path d="M390.78,250.72v32.66c1.51.05,3,0,4.53,0s3,0,4.56,0h27.44v1.93H388.88c-.12-.47-.14-70.13,0-70.73h38.44c0,.17,0,.3,0,.43v1.52H390.78v32.16h36.53a16.76,16.76,0,0,1,0,2Z" transform="translate(-14.24 -213.31)"/><path d="M333.43,214.57h.63c7.5,0,15,0,22.49,0a19.67,19.67,0,0,1,11.24,3.21,19.07,19.07,0,0,1,8.62,13.4,19.57,19.57,0,0,1-15.81,22.18,20,20,0,0,1-3.46.3H335.31v31.69h-1.85C333.34,284.92,333.3,215.44,333.43,214.57Zm1.91,37.1h.8c6.93,0,13.87,0,20.81,0a18.59,18.59,0,0,0,3.33-.31,17.49,17.49,0,0,0,14.15-19.83,17.59,17.59,0,0,0-17.77-15c-6.94,0-13.88,0-20.81,0-.17,0-.34,0-.51,0Z" transform="translate(-14.24 -213.31)"/><path d="M86.57,285.35H84.44V216.58c-1.67,0-3.28,0-4.89,0H65a11.68,11.68,0,0,1,0-2h41v1.95H86.57Z" transform="translate(-14.24 -213.31)"/><path d="M159,216.56v68.81h-2a3.53,3.53,0,0,1-.06-.42c0-.19,0-.4,0-.59v-67.8H137.39v-1.89c.41-.13,40.07-.18,41-.05v1.93Z" transform="translate(-14.24 -213.31)"/><path d="M122.65,285.35h-2v-4.6h2A28.1,28.1,0,0,1,122.65,285.35Z" transform="translate(-14.24 -213.31)"/></svg>